<svg width="124" height="124" viewBox="0 0 124 124" fill="none" xmlns="http://www.w3.org/2000/svg">
<path d="M120.855 76.6892L112.781 68.6145C112.392 68.2388 111.871 68.0309 111.33 68.0356C110.789 68.0403 110.272 68.2572 109.89 68.6396C109.507 69.022 109.29 69.5393 109.286 70.0801C109.281 70.6209 109.489 71.1418 109.864 71.5308L117.939 79.6055C119.099 80.7659 119.751 82.3394 119.751 83.9801C119.751 85.6208 119.099 87.1943 117.939 88.3547L88.2804 118.011C87.1271 119.157 85.5705 119.804 83.945 119.815C82.3195 119.825 80.7548 119.198 79.5869 118.067L20.1581 60.1438C19.7664 59.7609 19.2387 59.5492 18.691 59.5554C18.1433 59.5616 17.6205 59.7851 17.2376 60.1768C16.8547 60.5684 16.643 61.0962 16.6492 61.6439C16.6554 62.1916 16.8789 62.7144 17.2706 63.0973L76.7077 121.023C78.655 122.906 81.2628 123.95 83.9716 123.933C86.6804 123.915 89.2743 122.836 91.1967 120.928L120.855 91.271C122.789 89.3372 123.875 86.7146 123.875 83.9801C123.875 81.2456 122.789 78.623 120.855 76.6892Z" fill="white"/>
<path d="M4.25 44.6296V4.25H42.5836L64.9391 26.6054C59.2972 28.2586 53.4412 29.0655 47.5625 29C40.3853 29.1706 33.2471 27.8962 26.5724 25.2524C28.1298 23.4184 28.9895 21.0935 29 18.6875C29 16.6479 28.3952 14.6541 27.262 12.9582C26.1289 11.2623 24.5183 9.94052 22.6339 9.15999C20.7496 8.37946 18.6761 8.17524 16.6756 8.57315C14.6752 8.97106 12.8377 9.95323 11.3955 11.3955C9.95323 12.8377 8.97106 14.6752 8.57315 16.6756C8.17524 18.6761 8.37947 20.7496 9.16 22.6339C9.94052 24.5183 11.2623 26.1289 12.9582 27.262C14.6541 28.3952 16.6479 29 18.6875 29C20.1628 28.9945 21.6193 28.6694 22.9569 28.0471C28.9753 31.3739 38.4339 33.125 47.5625 33.125C54.5732 33.2085 61.5472 32.1018 68.1875 29.8518L92.0836 53.75L58.4793 87.3543C58.2823 87.5446 58.1252 87.7722 58.0171 88.0238C57.909 88.2754 57.8521 88.5461 57.8497 88.8199C57.8474 89.0938 57.8995 89.3654 58.0032 89.6188C58.1069 89.8723 58.2601 90.1026 58.4537 90.2962C58.6474 90.4899 58.8777 90.6431 59.1312 90.7468C59.3846 90.8505 59.6562 90.9026 59.9301 90.9003C60.2039 90.8979 60.4746 90.841 60.7262 90.7329C60.9778 90.6248 61.2054 90.4677 61.3957 90.2707L95 56.6664L104.032 65.6981C104.421 66.0738 104.942 66.2816 105.482 66.277C106.023 66.2723 106.541 66.0553 106.923 65.6729C107.305 65.2905 107.522 64.7732 107.527 64.2325C107.532 63.6917 107.324 63.1707 106.948 62.7817L72.1991 28.0327C76.0518 25.9062 78.5 23.1178 78.5 19.7188C78.5 11.6276 64.5822 6.94156 50.549 6.38262L44.8957 0.729312C44.509 0.342492 43.9845 0.125117 43.4375 0.125H2.1875C1.64049 0.125 1.11589 0.342298 0.729096 0.729092C0.342302 1.11589 0.125004 1.64049 0.125004 2.1875V45.5C0.124493 45.775 0.17897 46.0473 0.28523 46.3009C0.391489 46.5545 0.547387 46.7843 0.743753 46.9767L11.3677 57.3326C11.5616 57.5222 11.791 57.6717 12.0427 57.7727C12.2944 57.8736 12.5636 57.924 12.8348 57.9209C13.106 57.9179 13.3739 57.8614 13.6233 57.7548C13.8727 57.6482 14.0986 57.4935 14.2882 57.2996C14.4778 57.1056 14.6273 56.8763 14.7283 56.6245C14.8292 56.3728 14.8796 56.1037 14.8765 55.8325C14.8735 55.5613 14.817 55.2934 14.7104 55.044C14.6038 54.7946 14.4491 54.5687 14.2552 54.3791L4.25 44.6296ZM20.75 19.7188C20.75 18.3905 21.9256 16.9158 24.0026 15.5711C24.7202 16.7627 25.0081 18.1641 24.8182 19.5421C24.6283 20.9201 23.9721 22.1915 22.9589 23.1446C22.3593 22.7736 21.8499 22.2736 21.4677 21.681C21.0856 21.0884 20.8404 20.4181 20.75 19.7188ZM12.5 18.6875C12.5 17.0465 13.1519 15.4727 14.3123 14.3123C15.4727 13.1519 17.0465 12.5 18.6875 12.5C19.3749 12.5074 20.0562 12.6309 20.7026 12.8651C19.5245 13.5983 18.5394 14.6033 17.83 15.7958C17.1205 16.9883 16.7073 18.3336 16.625 19.7188C16.6695 21.6502 17.4449 23.4929 18.7948 24.875C18.7597 24.875 18.7246 24.875 18.6875 24.875C17.0465 24.875 15.4727 24.2231 14.3123 23.0627C13.1519 21.9023 12.5 20.3285 12.5 18.6875ZM74.375 19.7188C74.375 21.5069 72.4404 23.3756 69.1362 24.9699L54.9999 10.8335C66.6468 12.1019 74.375 16.1919 74.375 19.7188Z" fill="white"/>
<path d="M78.2422 58.0008C78.6292 58.3876 79.154 58.6047 79.7011 58.6045C80.2482 58.6043 80.7729 58.3868 81.1596 57.9998C81.5463 57.6128 81.7635 57.088 81.7633 56.5409C81.7631 55.9937 81.5456 55.4691 81.1586 55.0824L76.7819 50.7078C76.465 50.3908 76.0533 50.1857 75.6093 50.1235C75.1654 50.0614 74.7132 50.1456 74.3214 50.3634L64.4317 55.8579L44.6977 36.1239C44.4761 35.902 44.2069 35.7336 43.9105 35.6314C43.6141 35.5292 43.2983 35.496 42.9871 35.5341C42.6759 35.5723 42.3776 35.6809 42.1146 35.8518C41.8517 36.0226 41.6312 36.2511 41.4699 36.5199L32.7125 51.1059C32.4761 51.5001 32.3781 51.962 32.4341 52.4182C32.4902 52.8745 32.6971 53.2989 33.0219 53.6242L33.3086 53.9109C32.6605 54.192 32.0692 54.589 31.5637 55.0824C30.4029 56.244 29.7512 57.8191 29.7517 59.4612C29.7523 61.1033 30.4052 62.678 31.5668 63.8387C32.7284 64.9995 34.3035 65.6513 35.9456 65.6507C37.5877 65.6501 39.1624 64.9972 40.3231 63.8356C40.816 63.3328 41.2186 62.7489 41.5132 62.1093L43.2374 63.8336L43.5035 64.0996C42.864 64.3942 42.28 64.7968 41.7772 65.2897C40.6323 66.4531 39.9935 68.0218 39.9999 69.6541C40.0064 71.2864 40.6576 72.85 41.8116 74.0044C42.9657 75.1587 44.5292 75.8103 46.1615 75.8171C47.7937 75.824 49.3626 75.1855 50.5263 74.0409C51.3605 73.2017 51.9366 72.1409 52.1863 70.9843C52.436 69.8277 52.3487 68.6237 51.935 67.5151L74.9587 54.7276L78.2422 58.0008ZM37.4047 60.9172C37.2144 61.1142 36.9868 61.2713 36.7352 61.3794C36.4836 61.4875 36.2129 61.5444 35.9391 61.5468C35.6652 61.5492 35.3936 61.497 35.1402 61.3933C34.8867 61.2896 34.6564 61.1364 34.4627 60.9428C34.2691 60.7491 34.1159 60.5188 34.0122 60.2653C33.9085 60.0119 33.8564 59.7403 33.8587 59.4664C33.8611 59.1926 33.918 58.9219 34.0261 58.6703C34.1342 58.4187 34.2913 58.1911 34.4883 58.0008C34.875 57.6148 35.3991 57.398 35.9455 57.398C36.4919 57.398 37.0159 57.6148 37.4026 58.0008C37.7898 58.387 38.0078 58.9112 38.0086 59.4582C38.0093 60.0051 37.7929 60.5299 37.4068 60.9172H37.4047ZM47.612 62.3754L50.5284 59.459L53.1787 62.1093L49.4291 64.1924L47.612 62.3754ZM44.6956 59.459L41.7875 56.5426L44.7039 53.6242L47.6202 56.5426L44.6956 59.459ZM39.2712 48.1998L41.7875 50.7078L38.8711 53.6242L37.0912 51.8463L39.2712 48.1998ZM47.612 50.7078L50.5284 47.7914L53.4468 50.7078L50.5284 53.6242L47.612 50.7078ZM43.6438 40.9089L47.6141 44.8813L44.6977 47.7976L41.4616 44.5616L43.6438 40.9089ZM47.6079 71.1266C47.3193 71.4148 46.9518 71.611 46.5518 71.6904C46.1518 71.7698 45.7372 71.7288 45.3605 71.5726C44.9837 71.4165 44.6617 71.1521 44.4352 70.813C44.2087 70.4738 44.0878 70.0752 44.0878 69.6673C44.0878 69.2595 44.2087 68.8608 44.4352 68.5217C44.6617 68.1826 44.9837 67.9182 45.3605 67.7621C45.7372 67.6059 46.1518 67.5649 46.5518 67.6443C46.9518 67.7237 47.3193 67.9199 47.6079 68.2081C47.8 68.3993 47.9527 68.6264 48.057 68.8766C48.1613 69.1267 48.2153 69.395 48.2159 69.6661C48.2164 69.9371 48.1636 70.2056 48.0603 70.4562C47.9571 70.7068 47.8054 70.9346 47.6141 71.1266H47.6079ZM56.9242 60.0262L53.4406 56.5426L56.3591 53.6242L60.6759 57.941L56.9242 60.0262Z" fill="white"/>
<path d="M107.375 88.8125C107.375 88.2655 107.158 87.7409 106.771 87.3541C106.384 86.9673 105.86 86.75 105.312 86.75H76.4375C75.8905 86.75 75.3659 86.9673 74.9791 87.3541C74.5923 87.7409 74.375 88.2655 74.375 88.8125C74.375 89.3595 74.5923 89.8841 74.9791 90.2709C75.3659 90.6577 75.8905 90.875 76.4375 90.875H105.312C105.86 90.875 106.384 90.6577 106.771 90.2709C107.158 89.8841 107.375 89.3595 107.375 88.8125Z" fill="white"/>
<path d="M84.6875 101.187C84.6875 102.411 85.0504 103.608 85.7303 104.625C86.4102 105.643 87.3765 106.436 88.5072 106.904C89.6378 107.372 90.8819 107.495 92.0821 107.256C93.2824 107.017 94.3849 106.428 95.2502 105.563C96.1156 104.697 96.7049 103.595 96.9436 102.395C97.1824 101.194 97.0598 99.9503 96.5915 98.8196C96.1232 97.689 95.3301 96.7227 94.3126 96.0428C93.2951 95.3629 92.0988 95 90.875 95C89.234 95 87.6602 95.6519 86.4998 96.8123C85.3394 97.9727 84.6875 99.5465 84.6875 101.187ZM92.9375 101.187C92.9375 101.595 92.8165 101.994 92.5899 102.333C92.3633 102.673 92.0412 102.937 91.6643 103.093C91.2874 103.249 90.8727 103.29 90.4726 103.21C90.0725 103.131 89.705 102.934 89.4166 102.646C89.1281 102.357 88.9317 101.99 88.8521 101.59C88.7726 101.19 88.8134 100.775 88.9695 100.398C89.1256 100.021 89.39 99.6992 89.7291 99.4726C90.0683 99.246 90.4671 99.125 90.875 99.125C91.422 99.125 91.9466 99.3423 92.3334 99.7291C92.7202 100.116 92.9375 100.64 92.9375 101.187Z" fill="white"/>
<path d="M97.0625 76.4375C97.0625 75.2137 96.6996 74.0174 96.0197 72.9999C95.3398 71.9824 94.3735 71.1893 93.2429 70.721C92.1122 70.2527 90.8681 70.1301 89.6679 70.3689C88.4676 70.6076 87.3651 71.1969 86.4998 72.0623C85.6344 72.9276 85.0451 74.0301 84.8064 75.2304C84.5676 76.4306 84.6902 77.6747 85.1585 78.8054C85.6268 79.936 86.4199 80.9023 87.4374 81.5822C88.4549 82.2621 89.6512 82.625 90.875 82.625C92.516 82.625 94.0898 81.9731 95.2502 80.8127C96.4106 79.6523 97.0625 78.0785 97.0625 76.4375ZM88.8125 76.4375C88.8125 76.0296 88.9335 75.6308 89.1601 75.2916C89.3867 74.9525 89.7088 74.6881 90.0857 74.532C90.4626 74.3759 90.8773 74.3351 91.2774 74.4146C91.6775 74.4942 92.045 74.6906 92.3334 74.9791C92.6219 75.2675 92.8183 75.635 92.8979 76.0351C92.9775 76.4352 92.9366 76.8499 92.7805 77.2268C92.6244 77.6037 92.36 77.9258 92.0209 78.1524C91.6817 78.379 91.2829 78.5 90.875 78.5C90.328 78.5 89.8034 78.2827 89.4166 77.8959C89.0298 77.5091 88.8125 76.9845 88.8125 76.4375Z" fill="white"/>
</svg>
