<svg width="235" height="15" viewBox="0 0 235 15" fill="none" xmlns="http://www.w3.org/2000/svg">
<g clip-path="url(#clip0_1_904)">
<path d="M199.601 3.8417C199.621 3.82738 199.635 3.80545 199.642 3.78333C199.608 3.80472 199.601 3.82684 199.601 3.8417Z" fill="#003383"/>
<path d="M181.424 3.53532L181.633 3.50471C181.566 3.50298 181.492 3.51547 181.424 3.53532Z" fill="#003383"/>
<path d="M210.492 4.01004C210.486 4.01643 210.472 4.01615 210.465 4.02254L211.233 4.0389L210.492 4.01004Z" fill="#003383"/>
<path d="M142.652 3.66434L142.894 3.65635C142.813 3.66131 142.733 3.65939 142.652 3.66434Z" fill="#003383"/>
<path d="M165.628 3.57746C165.526 3.60366 165.425 3.61547 165.317 3.6199C165.425 3.63706 165.533 3.61823 165.628 3.57746Z" fill="#003383"/>
<path d="M216.242 5.3818L215.933 5.28629C215.933 5.33 216.047 5.36942 216.242 5.3818Z" fill="#003383"/>
<path d="M227.282 5.12643C227.275 5.11887 227.262 5.11112 227.255 5.10355C227.241 5.11797 227.255 5.12572 227.282 5.12643Z" fill="#003383"/>
<path d="M222.973 4.72573C222.879 4.73049 222.771 4.74204 222.663 4.76073C222.791 4.75683 222.959 4.76109 222.973 4.72573Z" fill="#003383"/>
<path d="M222.514 4.7814L222.663 4.7637C222.582 4.76165 222.514 4.76709 222.514 4.7814Z" fill="#003383"/>
<path d="M1.9145 9.10069C1.5837 9.12835 1.25237 9.19219 0.934092 9.28533L1.9145 9.10069Z" fill="#003383"/>
<path d="M107.557 4.47616L107.625 4.44113C107.557 4.44671 107.543 4.46108 107.557 4.47616Z" fill="#003383"/>
<path d="M1.54482 9.91006L1.30886 9.91146C1.38299 9.91312 1.46386 9.91492 1.54482 9.91006Z" fill="#003383"/>
<path d="M210.394 5.59854C210.076 5.68193 209.423 5.5747 209.429 5.65903C209.759 5.6461 210.237 5.71396 210.394 5.59854Z" fill="#003383"/>
<path d="M100.215 8.02502L100.006 8.03385C100.107 8.02935 100.167 8.03081 100.215 8.02502Z" fill="#003383"/>
<path d="M1.54483 9.90743L1.82127 9.9073C1.79452 9.89227 1.76778 9.87725 1.73418 9.86922C1.66647 9.88901 1.6056 9.90181 1.54483 9.90743Z" fill="#003383"/>
<path d="M71.0142 5.60381L71.0277 5.60416L71.1021 5.5843L71.0142 5.60381Z" fill="#003383"/>
<path d="M69.0739 5.52042L69.4858 5.48099C69.3442 5.47744 69.2092 5.48827 69.0739 5.52042Z" fill="#003383"/>
<path d="M0.93401 9.29603L0.386241 9.4051C0.568652 9.38082 0.751277 9.34205 0.93401 9.29603Z" fill="#003383"/>
<path d="M48.1883 6.43641L48.3773 6.41986C48.3167 6.41835 48.2491 6.42375 48.1883 6.43641Z" fill="#003383"/>
<path d="M167.104 3.6027L167.272 3.62126C167.293 3.60033 167.279 3.58569 167.104 3.6027Z" fill="#003383"/>
<path d="M153.462 6.05752C153.199 6.05079 152.942 6.08742 152.692 6.17462C152.955 6.17415 153.218 6.13769 153.462 6.05752Z" fill="#003383"/>
<path d="M151.04 6.16366L151.134 6.17291C151.101 6.17209 151.074 6.16448 151.04 6.16366Z" fill="#003383"/>
<path d="M166.547 6.09715L166.547 6.08973C166.54 6.08955 166.54 6.09697 166.54 6.09697L166.547 6.09715Z" fill="#003383"/>
<path d="M163.478 6.15144C163.411 6.13548 163.337 6.11935 163.263 6.11748C163.337 6.14074 163.404 6.14957 163.478 6.15144Z" fill="#003383"/>
<path d="M143.402 6.56537L143.389 6.55769L143.402 6.56537Z" fill="#003383"/>
<path d="M114.483 7.83075C117.384 7.7216 121.142 7.50361 124.028 7.5024C124.833 7.34496 125.657 7.26242 126.479 7.25429L126.584 7.47329L127.347 7.38935C127.656 7.45062 126.76 7.43673 127.312 7.51036L127.597 7.36803C127.656 7.44385 129.565 7.3863 128.282 7.56655L131.256 7.52C131.917 7.51491 131.636 7.33248 132.364 7.37631C132.511 7.44062 132.107 7.42454 132.166 7.50036C134.356 7.62525 134.681 7.03714 136.716 7.10432L136.541 7.13412C136.886 7.06761 137.546 7.06929 137.554 7.03562C137.287 6.81966 137.188 7.15579 136.569 7.04001C136.619 6.85165 137.339 6.92916 137.294 6.78599C137.685 6.80852 138.076 6.7837 138.468 6.72504C139.181 6.83623 140.194 6.73773 140.732 6.8787C141.212 6.73411 141.706 6.64395 142.205 6.61485C142.743 6.75582 142.082 6.75414 142.809 6.80474L142.926 6.69912C143.519 6.70602 143.431 6.73783 143.41 6.79149C143.849 6.72039 144.294 6.69004 144.739 6.70029L144.293 6.81183C144.887 6.7646 145.122 6.7768 145.952 6.78237C145.937 6.84295 145.607 6.84211 145.364 6.82975C145.814 6.98224 146.127 6.75257 146.37 6.76493C146.303 6.71602 145.73 6.70282 146.008 6.59416C146.419 6.6104 146.874 6.43812 147.169 6.55997L146.722 6.67151C147.189 6.5672 147.675 6.53102 148.153 6.56234C148.099 6.56787 148.125 6.59555 148.105 6.62215C148.881 6.53852 149.67 6.52962 150.452 6.59499L150.276 6.62478C150.647 6.58596 150.844 6.48897 151.046 6.49363C150.521 6.43416 150.663 6.40359 150.618 6.30101C151.31 6.47262 151.666 6.0815 152.797 6.17525C152.783 6.23583 152.512 6.31758 152.196 6.25615C151.869 6.49228 151.489 6.64597 151.084 6.69078C151.509 6.64643 152.016 6.61071 151.906 6.68942L152.037 6.51646C152.294 6.50882 152.502 6.5204 152.698 6.51137C152.807 6.4056 152.175 6.34364 152.769 6.26258C153.444 6.19692 153.131 6.43335 153.233 6.35449C154.165 6.27443 153.613 6.16697 154.509 6.21468C154.401 6.23926 154.286 6.25016 154.172 6.24752C154.811 6.30963 155.75 6.19589 155.936 6.40322C155.834 6.48208 155.705 6.51973 155.584 6.49664L155.591 6.46296C154.888 6.62273 156.179 6.41558 155.96 6.60682C155.908 6.49732 156.811 6.51813 157.215 6.53421L157.082 6.40932C158.43 6.02749 157.011 6.65811 158.347 6.60089C159.198 6.5122 158.024 6.56637 158.544 6.47684C159.083 6.54339 159.628 6.5695 160.175 6.54824C160.41 6.59427 160.888 6.65943 160.933 6.8026C161.546 6.81673 162.16 6.79026 162.775 6.71643C161.9 6.60152 161.909 6.87248 160.887 6.69326L161.172 6.55769C161.88 6.56046 162.778 6.48639 163.27 6.53155C163.169 6.50216 163.129 6.4674 163.19 6.44173C163.94 6.34394 164.703 6.28706 165.465 6.27754C165.598 6.40244 165.025 6.38247 164.607 6.39991C165.152 6.44632 165.698 6.45889 166.245 6.43764C166.297 6.54714 165.584 6.43596 165.474 6.54173L166.561 6.49907C166.554 6.50568 166.56 6.5126 166.56 6.51936C166.718 6.33349 167.389 6.5317 168.051 6.47249C168.961 6.45962 169.86 6.32465 170.727 6.06035C170.962 6.10638 171.029 6.15529 170.934 6.20048C170.551 6.12397 170.617 6.18642 170.482 6.23068C171.015 6.20911 171.646 6.40639 171.348 6.48075C172.192 6.41897 171.046 6.38581 171.559 6.32318L172.712 6.32943C172.572 6.23821 172.168 6.21537 172.762 6.14107C173.268 6.11212 173.511 6.13124 174.165 6.13277C174.07 6.17796 174.372 6.2729 173.879 6.26833C174.216 6.31669 174.56 6.29755 174.885 6.21028C174.165 6.126 176.066 6.12243 175.529 5.98145L176.249 6.06572C176.087 6.062 176.066 6.12919 175.824 6.11007C176.031 6.2502 176.411 6.06945 176.66 6.0549C176.984 6.06235 177.307 6.09687 177.63 6.15168C177.927 6.11115 178.23 6.13167 178.519 6.21277C178.857 6.18671 178.547 6.11867 178.642 6.07348L179.795 6.0865C179.855 6.16909 179.953 6.38117 179.784 6.41111C180.216 6.33986 179.935 6.17772 180.596 6.18617C180.223 6.34001 181.464 6.30092 180.922 6.48472C181.601 6.58836 182.289 6.61096 182.964 6.55206C183.33 6.43189 182.324 6.48318 182.36 6.36217C184.026 6.31933 184.125 5.97643 185.345 6.0316L185.029 5.99724C185.406 5.98564 185.785 5.93344 186.15 5.84033C185.939 5.99114 187.021 6.25295 188.268 6.22078C188.371 6.14191 187.569 6.07607 187.773 5.95218L188.603 5.93068C188.664 5.94561 188.569 5.9705 188.467 5.98847C189.21 5.93112 189.853 6.1896 190.072 6.00512L190.83 6.23241L190.528 6.13747C190.893 6.06466 191.265 6.02584 191.643 6.00747C192.183 5.93193 192.736 5.9582 193.273 6.08564C193.126 6.02133 192.757 5.87747 193.425 5.85224C193.421 6.10259 194.833 5.94559 194.811 6.07368C195.08 6.07312 195.565 6.15196 195.593 6.05109L195.55 6.20578C195.614 5.99066 196.598 6.00657 197.354 5.96983C197.181 6.26365 198.184 5.9551 198.524 6.22012C198.668 6.0204 199.866 6.14953 199.997 5.98333C200.577 5.97639 200.52 6.16459 200.667 6.2289L200.938 6.15392C201.234 6.24871 202.326 6.2671 202.978 6.33629L203.581 6.16066L203.802 6.24021C203.898 6.19502 204.404 6.17283 204.088 6.10464L204.411 6.11886C204.441 5.93003 204.87 6.06852 205.526 5.98886C205.68 6.0195 205.639 6.06593 205.497 6.08973C205.821 6.09718 205.684 6.1888 205.865 6.25389C205.63 6.20109 207.044 5.91554 206.162 5.82077C206.102 5.74495 206.616 5.68909 206.939 5.72361L207.132 5.89726L207.519 5.71666C207.896 5.72536 208.273 5.76788 208.643 5.83055C208.225 5.84122 207.714 6.15435 208.793 6.15889C208.408 6.18387 208.03 6.2293 207.658 6.30872C207.88 6.32061 207.995 6.33678 207.643 6.40314C208.487 6.35488 207.928 6.3014 208.758 6.2799C208.708 6.43443 208.943 6.48723 209.671 6.5446L209.126 6.43053C209.16 6.41101 209.194 6.39825 209.228 6.3855C209.019 6.36715 208.966 6.33884 208.919 6.28363C209.081 6.28735 209.886 6.09608 210.02 6.19391C209.181 5.94446 211.479 6.0177 210.948 5.87012C211.192 5.81481 211.448 5.82748 211.683 5.90057C210.986 6.01314 212.206 6.08184 212.09 6.18745C212.346 6.14599 211.545 6.06662 211.89 6.01364C212.213 6.0211 212.53 6.06222 212.839 6.15056L212.663 6.18035L213.302 6.256C213.405 6.17713 212.684 6.11316 213.271 6.08607C213.426 6.12347 214.019 6.08977 213.998 6.1502C213.714 6.25194 213.92 6.39884 213.415 6.41426C213.833 6.41035 215.161 6.41387 214.624 6.25936L215.122 6.27085C214.813 6.20282 213.939 6.06761 214.937 6.06353L214.929 6.10397L215.625 5.99817L215.928 6.08635C215.921 6.0456 216.03 6.01425 216.286 6.02015C216.353 6.06907 216.595 6.08819 216.574 6.14862C217.322 6.15232 217.263 6.06973 217.358 6.03131C217.776 6.0274 217.93 6.05804 217.734 6.14826C218.388 6.14979 219.041 6.19191 219.694 6.2611C220.463 6.20438 219.539 6.2237 219.986 6.12569C220.642 6.40478 222.512 6.27188 223.76 6.25324C223.42 6.00851 224.104 6.23409 224.33 6.01594C224.059 6.08415 225.513 6.21918 224.42 6.26845L225.088 6.25676C225.544 6.39587 223.981 6.33955 224.673 6.5247C225.375 6.42582 226.084 6.37447 226.792 6.37724C226.493 6.53956 227.474 6.33202 227.248 6.50958C227.025 6.55182 226.803 6.567 226.574 6.55495L226.728 6.59235C228.365 6.66391 227.203 6.40024 228.067 6.29833C229.065 6.29424 228.854 6.44505 228.914 6.52087C229.223 6.54831 229.527 6.54177 229.838 6.49478C229.229 6.58906 228.714 6.37412 228.991 6.27223C229.569 6.40061 230.17 6.38736 230.745 6.23818C229.319 6.01581 229.754 6.21535 228.423 5.97486C228.24 6.03157 228.264 6.20134 227.463 6.12197C227.97 6.04565 227.431 6.02647 227.29 5.99614C227.443 6.09444 226.73 6.03062 226.486 6.06562C226.265 5.97931 226.968 5.8466 226.153 5.79398L225.995 6.02722C225.679 5.9861 226.132 5.86118 225.45 5.90639C225.816 5.79299 225.339 5.7143 226.263 5.69498C225.167 5.48022 224.583 5.7781 223.725 5.84634C223.813 5.83483 223.82 5.80116 223.908 5.78964C223.658 5.83803 223.402 5.85919 223.145 5.84652C222.587 5.78627 223.592 5.74851 223.445 5.6842L222.534 5.67678C222.514 5.66954 222.514 5.66278 222.514 5.66278C222.332 5.70595 222.143 5.7016 221.962 5.65005C222.232 5.58183 222.342 5.50312 222.524 5.44642L221.572 5.59368C221.674 5.52158 220.785 5.44696 221.467 5.40174L220.05 5.40973L219.932 5.25132C219.594 5.27739 219.58 5.30414 219.991 5.32715C219.506 5.28214 217.843 5.56871 218.104 5.26337C216.99 5.37307 216.593 5.31655 215.25 5.37361C216.284 5.24851 214.067 5.17037 215.16 5.1211C214.729 5.10439 214.297 5.13505 213.877 5.22691C213.406 5.15515 213.618 5.00435 214.131 4.95525L213.53 5.01586L213.544 4.98234L213.023 5.06511C212.472 4.97795 212.911 4.90685 212.338 4.88012L212.215 5.01941L211.825 4.93598C211.973 5.00029 211.628 5.0262 211.217 5.03703L211.224 5.00336L210.718 5.02554C211.218 4.94231 210.26 4.99468 210.484 4.89155C210.053 4.88161 210.046 4.88146 209.264 4.90404L209.397 5.00187C208.378 5.07992 209.352 4.8587 208.529 4.84652L208.582 4.95602C207.398 4.76631 206.571 5.04507 205.69 4.92324C206.196 4.90106 206.063 4.77616 206.056 4.80307C205.3 4.83981 204.067 4.79787 203.289 4.92886C202.935 4.72442 202.532 4.62714 202.134 4.64505C201.554 4.65199 201.466 4.66351 201.276 4.75388C200.723 4.76822 200.171 4.73519 199.619 4.66156C199.489 4.75333 199.107 4.63623 198.802 4.7172L198.735 4.66828L198.788 4.77778C197.787 4.5246 197.094 4.9012 196.079 4.6883L196.254 4.65851L195.829 4.69609C195.762 4.64717 195.931 4.61723 195.953 4.5568L193.971 4.52468L194.361 4.60811C193.975 4.66692 193.577 4.67806 193.187 4.65552C193.978 4.49101 192.526 4.64707 192.4 4.52233L192.825 4.47799C192.245 4.48493 192.245 4.48493 192.291 4.59428C191.535 4.63101 191.775 4.38611 191.079 4.50543L191.577 4.51016C191.725 4.57447 191.366 4.66096 191.036 4.66012C190.955 4.64473 190.727 4.59208 190.976 4.57753C190.382 4.618 189.493 4.56367 189.23 4.60498C188.907 4.57046 189.016 4.49175 189.185 4.4618C187.916 4.56117 188.612 4.44184 187.343 4.53444L187.364 4.47401L186.911 4.57186L186.286 4.4424L186.507 4.52195C186.122 4.5537 185.731 4.55822 185.347 4.54261L185.544 4.45239C184.37 4.50656 184.184 4.29923 183.07 4.42923C182.996 4.41399 183.165 4.38405 183.253 4.36577C182.219 4.51116 182.466 4.19875 181.432 4.37797C181.493 4.34554 181.379 4.30907 181.42 4.28294L180.947 4.33973L180.983 4.21872L180.596 4.39932L180.301 4.27746L180.118 4.33416C179.616 4.09924 178.898 4.279 178.207 4.10062L178.326 4.25903C176.581 4.57757 174.33 4.079 172.217 4.24692L172.253 4.1259L171.381 4.27502C170.91 4.18296 171.659 4.16637 171.511 4.10206C170.58 4.17535 171.124 4.28942 170.045 4.33224C169.493 4.25185 170.235 4.24186 170.499 4.19379C169.425 4.28413 168.346 4.31341 167.268 4.27504C167.254 4.28826 167.207 4.31423 167.247 4.32193C166.572 4.38083 165.676 4.33312 164.927 4.34295C164.942 4.28913 165.131 4.27318 165.313 4.26384C165.023 4.23686 164.733 4.24372 164.45 4.2778L164.728 4.16914C164.127 4.21621 163.52 4.20224 162.921 4.12753C162.988 4.17644 162.966 4.2707 162.468 4.26598C162.194 4.07693 161.118 4.35671 160.324 4.2572C160.419 4.21201 160.999 4.1983 160.837 4.19457C160.466 4.1725 160.095 4.21132 159.73 4.29766L159.839 4.21895L157.989 4.3388C157.716 4.14975 156.243 4.37978 156.366 4.24048C155.705 4.2388 156.924 4.32103 156.088 4.34914C155.867 4.26959 155.332 4.39941 155.368 4.27163L155.456 4.25335L154.869 4.26691L155.235 4.13997C154.735 4.16908 154.363 4.29586 154.341 4.39012C153.883 4.38633 153.425 4.35547 152.967 4.28402L153.143 4.25422C151.807 4.31821 150.923 3.94588 149.874 4.16539C149.794 4.14999 149.808 4.11647 149.969 4.1202L149.14 4.12817L149.337 4.03118L147.973 4.18926L147.987 4.12868C147.084 4.11464 145.674 4.16338 144.507 4.19741L144.683 4.16762C143.413 4.28052 143.456 4.12583 142.531 4.19928C142.558 4.18637 142.592 4.17362 142.626 4.17439L141.79 4.18897L141.973 4.1255C141.507 4.15539 141.049 4.13806 140.585 4.07999C140.227 4.11912 139.875 4.19224 139.536 4.2995C138.626 4.31913 139.315 4.21995 138.749 4.17984C138.196 4.228 137.642 4.2491 137.083 4.24298L137.097 4.1824C136.679 4.19983 136.422 4.24806 135.842 4.26177L136.018 4.23198C135.072 4.37939 134.833 4.06933 134.094 4.35011C133.697 4.30712 132.941 4.35739 132.977 4.22961C131.795 4.331 130.878 4.37754 129.71 4.45217C129.518 4.25145 129.461 4.46672 128.747 4.36231L128.8 4.47181C127.141 4.5148 125.229 4.27449 123.401 4.34744L123.349 4.23794L122.983 4.36488C121.014 4.3466 118.466 4.34204 116.894 4.36676C116.198 4.48608 115.496 4.55113 114.788 4.55512L114.876 4.53684C113.459 4.62603 111.954 4.70643 110.404 4.67071C110.499 4.62553 110.344 4.59489 110.513 4.55818C110.101 4.6299 109.683 4.64057 109.272 4.58374L109.662 4.6604C109.229 4.74519 108.785 4.72818 108.362 4.61014L107.665 4.743C107.618 4.73514 107.544 4.7199 107.538 4.69945L107.415 4.75755L107.04 4.6203C106.574 4.65018 106.115 4.72758 105.661 4.8525C105.594 4.80359 104.941 4.78176 105.447 4.74604L102.898 4.75501L103.295 4.798C103.348 4.9075 102.584 4.99145 102.187 4.94846C102.701 4.852 102.223 4.79361 102.002 4.71406C101.657 4.78057 102.304 4.80224 102.128 4.86587C101.607 4.9554 101.074 4.98373 100.542 4.95793L100.799 4.90971C100.212 4.96386 99.9312 4.77465 99.351 4.79513C98.8304 4.89143 98.4404 4.82153 98.5523 5.00685C97.7963 5.06389 98.2574 4.885 98.0149 4.87264C97.5011 4.96233 96.9754 4.95022 96.4646 4.8437C96.0557 5.13209 94.4224 4.78989 94.2774 5.02344L93.652 4.90751C93.6377 4.96809 93.5141 5.11415 93.0147 5.15002C92.5368 5.09164 92.6464 4.9791 92.5056 4.92171L92.192 5.15814C89.4506 4.97316 85.8532 5.22194 82.8481 5.08503C81.512 5.16254 79.8309 5.31333 78.2733 5.31806L78.4424 5.28135L76.892 5.25917L78.0236 5.33262C77.686 5.36545 77.4223 5.42029 77.0985 5.42637C75.0704 5.33904 73.0474 5.36012 71.0227 5.48945C69.6765 5.79009 70.1156 5.27904 68.8177 5.50634C68.9259 5.48176 68.967 5.4421 69.0686 5.41059C67.6711 5.53407 66.915 5.59788 65.5165 5.78901C65.6688 5.52179 64.6059 5.81542 64.7226 5.67597L64.6063 5.78835C64.2902 5.73369 63.5553 5.7303 63.6576 5.65144L63.0419 5.79969L62.9828 5.69004C62.16 5.70493 60.4049 5.84724 59.9631 5.63401C57.937 5.85807 54.727 5.89919 52.178 5.92846C51.6237 6.02398 51.0632 6.07875 50.4969 6.07924L49.8716 5.96331C49.29 6.07852 48.7025 6.13943 48.1092 6.1393C48.1094 6.12577 48.1365 6.11286 48.1703 6.10687C47.5906 6.10028 47.0101 6.14782 46.4356 6.23612C45.7747 6.24796 45.1349 6.19938 45.3323 6.07533C45.2751 6.2906 43.9364 6.09055 43.9364 6.09055C43.9364 6.09055 35.4929 6.2277 26.0148 6.56436C16.5299 6.90764 6.02386 7.45751 1.91942 8.24962C1.60746 8.37103 0.762735 8.50048 1.1118 8.60327C0.469984 8.69001 0.121723 8.53309 0.0189053 8.64578C0.915635 8.64613 -0.167418 8.93253 0.708082 9.00007L0.181146 9.06916C0.0923133 9.14833 0.877593 8.9363 0.781111 9.07621L0.892083 8.86895C1.17557 8.8484 1.45825 8.88199 1.73358 8.95601C2.20912 8.71654 2.7434 8.60702 3.2821 8.65327L3.02557 8.67443C3.77463 8.63077 3.48912 8.78664 3.65058 8.81066L3.48198 8.81354L4.12138 8.88919C3.64334 8.84434 2.85826 9.04284 3.27001 9.01171C4.16654 9.0256 3.03461 8.97245 3.70289 8.92016C4.12138 8.88919 4.00508 9.00157 3.99059 9.06892L4.7329 9.02511C4.71127 9.11937 4.24047 9.04084 4.54941 9.12241L5.48196 8.98145C5.66735 9.20907 6.49569 8.82206 6.93761 9.02852C6.26219 9.10772 7.0039 9.1045 6.89484 9.18321L8.54787 9.10622C8.70259 9.13009 8.115 9.19778 8.36478 9.17646C8.59384 9.1885 8.82351 9.15995 9.0403 9.09049C9.18778 9.14804 10.2749 9.03771 10.2388 9.19932C11.3639 9.25908 10.7006 8.97984 11.7516 9.03112C11.8918 9.12234 10.9215 9.08645 11.3923 9.16498L12.4858 9.08188C12.3087 9.19963 12.0921 9.25555 11.8767 9.23705C14.8162 9.24385 16.4209 9.69369 19.0942 9.471C19.4771 9.56781 18.8232 9.55952 18.559 9.64142C20.4974 9.42211 21.3009 9.79257 22.954 9.71559L22.9823 9.62149C25.2986 9.83052 28.0669 9.56941 30.6825 9.59582L30.3664 9.54116C30.8128 9.44992 31.2721 9.39281 31.7244 9.35586C31.7912 9.398 31.4246 9.56554 32.174 9.50158C32.0126 9.47079 31.696 9.44996 31.7912 9.398C34.0408 9.55812 38.7635 9.35557 42.4447 9.35915C47.4173 9.12852 52.8242 9.15831 57.7087 8.95949C56.9666 8.98977 57.2736 8.74642 57.8326 8.78637C59.3849 9.13347 60.4912 8.64456 62.0724 8.86373C64.9141 8.65169 67.4653 8.93382 70.1071 8.5615L70.1594 8.671C70.4694 8.67814 70.7732 8.65806 71.0773 8.61092L71.07 8.6446C72.0542 8.6605 73.2362 8.51852 73.802 8.55863L73.8308 8.43069C74.4111 8.40345 74.1397 8.51903 74.7343 8.4312L74.7199 8.49179L75.4096 8.35877C75.3525 8.57404 77.0551 8.33576 77.5258 8.42106C78.2818 8.36402 79.7064 8.2344 80.8524 8.24726C81.6871 8.33417 82.5294 8.36711 83.3657 8.35254C85.1063 8.28434 87.5956 8.19278 89.814 8.18297L89.7688 8.04656L90.3489 8.02608C90.3417 8.05976 90.4225 8.06839 90.3346 8.08667C90.7908 8.23931 91.6707 8.00915 92.1346 8.09429C91.8398 7.97244 91.7303 8.08498 91.3998 8.0909C90.9219 8.03251 91.3759 7.8873 92.0155 7.94264L92.0016 7.97616L92.4343 7.89138C92.4866 8.00088 92.8838 8.04387 92.943 8.14675C94.8454 8.07552 96.1431 7.86175 98.1051 7.86634C97.9077 7.99039 99.5151 7.80406 99.1275 8.02526C100.309 7.92387 98.9277 7.85822 99.4628 7.69456C99.7932 7.69541 100.138 7.6289 100.198 7.70472C100.042 7.76205 100.472 7.82611 100.202 7.85373L100.991 7.82453C101.065 7.83977 100.896 7.86972 100.808 7.888C102.415 7.73551 103.659 7.97398 105.098 7.8176C105.2 7.73874 104.525 7.8044 104.627 7.72554C106.073 7.54225 105.913 7.83639 107.264 7.70506L106.986 7.81371C107.419 7.68833 107.878 7.65153 108.329 7.70929C108.462 7.83418 107.72 7.82387 107.375 7.89038C107.868 7.88818 109.116 7.82895 108.733 7.72537C109.111 7.70024 109.488 7.72923 109.865 7.80559C109.872 7.77191 109.313 7.73196 109.658 7.66545C110.466 7.71791 111.707 7.69235 112.691 7.68796C112.684 7.72163 112.751 7.76378 112.67 7.78222C113.468 7.61109 113.39 7.89356 114.483 7.83075Z" fill="#003383"/>
<path d="M166.951 6.11597L166.553 6.09863C166.553 6.12737 166.539 6.16296 166.35 6.19407L166.951 6.11597Z" fill="#003383"/>
<path d="M148.105 6.33364C148.058 6.33971 148.01 6.35308 147.963 6.37374C148.057 6.36161 148.085 6.34772 148.105 6.33364Z" fill="#003383"/>
<path d="M143.529 6.66389C143.854 6.62849 143.564 6.59894 143.403 6.56543C143.395 6.59451 143.402 6.62395 143.529 6.66389Z" fill="#003383"/>
<path d="M177.617 5.61136C177.549 5.62431 177.508 5.64535 177.515 5.66765C177.609 5.64804 177.63 5.62646 177.617 5.61136Z" fill="#003383"/>
<path d="M207.124 5.5912L207.01 5.56662C207.05 5.58209 207.084 5.59016 207.124 5.5912Z" fill="#003383"/>
<path d="M205.489 5.37536C205.375 5.37255 205.267 5.38392 205.159 5.39528C205.273 5.39809 205.381 5.39373 205.489 5.37536Z" fill="#003383"/>
<path d="M170.469 5.75449C170.367 5.75909 170.259 5.7707 170.158 5.79683C170.266 5.79958 170.367 5.78063 170.469 5.75449Z" fill="#003383"/>
<path d="M204.821 5.4298L204.41 5.41298C204.403 5.41975 204.403 5.42668 204.403 5.44053L204.821 5.4298Z" fill="#003383"/>
<path d="M207.643 5.60997C207.481 5.60623 207.266 5.60125 207.124 5.59121C207.299 5.62235 207.474 5.62639 207.643 5.60997Z" fill="#003383"/>
<path d="M188.447 5.36017L188.4 5.36617C188.089 5.4159 188.285 5.39208 188.447 5.36017Z" fill="#003383"/>
<path d="M203.018 5.65681L202.964 5.64819L202.842 5.68121L203.018 5.65681Z" fill="#003383"/>
<path d="M209.422 5.6658C209.355 5.66407 209.287 5.67675 209.219 5.68944L209.455 5.7099C209.429 5.68759 209.429 5.67318 209.422 5.6658Z" fill="#003383"/>
<path d="M194.627 5.51881C194.742 5.4702 194.783 5.43438 194.79 5.41242C194.655 5.41621 194.567 5.43602 194.627 5.51881Z" fill="#003383"/>
<g opacity="0.26">
<g opacity="0.26">
<g opacity="0.26">
<g opacity="0.26">
<path opacity="0.26" d="M199.601 3.84174C199.621 3.82739 199.635 3.80543 199.642 3.7833C199.608 3.80473 199.601 3.82687 199.601 3.84174Z" fill="#003383"/>
<path opacity="0.26" d="M181.424 3.53549L181.633 3.50453C181.566 3.50287 181.491 3.51548 181.424 3.53549Z" fill="#003383"/>
<path opacity="0.26" d="M210.492 4.01003C210.486 4.01665 210.472 4.01637 210.465 4.023L211.233 4.0389L210.492 4.01003Z" fill="#003383"/>
<path opacity="0.26" d="M142.652 3.66453L142.894 3.65617C142.814 3.66128 142.733 3.65942 142.652 3.66453Z" fill="#003383"/>
<path opacity="0.26" d="M165.628 3.5772C165.526 3.60362 165.425 3.61558 165.317 3.62014C165.425 3.63727 165.533 3.61825 165.628 3.5772Z" fill="#003383"/>
<path opacity="0.26" d="M216.242 5.3818L215.933 5.28629C215.933 5.33013 216.047 5.36956 216.242 5.3818Z" fill="#003383"/>
<path opacity="0.26" d="M227.282 5.12643C227.275 5.11886 227.262 5.11112 227.255 5.10355C227.241 5.11799 227.255 5.12574 227.282 5.12643Z" fill="#003383"/>
<path opacity="0.26" d="M222.973 4.72548C222.879 4.73035 222.771 4.74208 222.663 4.76099C222.791 4.75694 222.959 4.76106 222.973 4.72548Z" fill="#003383"/>
<path opacity="0.26" d="M222.514 4.78152L222.663 4.76358C222.582 4.76159 222.514 4.76713 222.514 4.78152Z" fill="#003383"/>
<path opacity="0.26" d="M1.91451 9.09987C1.58375 9.12795 1.25242 9.19235 0.934101 9.28615L1.91451 9.09987Z" fill="#003383"/>
<path opacity="0.26" d="M107.557 4.47622L107.625 4.44107C107.557 4.44672 107.543 4.46112 107.557 4.47622Z" fill="#003383"/>
<path opacity="0.26" d="M1.54482 9.9099L1.30885 9.91162C1.38298 9.91323 1.46385 9.91497 1.54482 9.9099Z" fill="#003383"/>
<path opacity="0.26" d="M210.394 5.59777C210.076 5.68225 209.423 5.5747 209.429 5.6598C209.759 5.64641 210.237 5.71441 210.394 5.59777Z" fill="#003383"/>
<path opacity="0.26" d="M100.215 8.02486L100.006 8.03401C100.107 8.02936 100.167 8.03077 100.215 8.02486Z" fill="#003383"/>
<path opacity="0.26" d="M1.54485 9.90766L1.82124 9.90726C1.79452 9.89218 1.76779 9.8771 1.73421 9.86906C1.66648 9.88903 1.60561 9.90195 1.54485 9.90766Z" fill="#003383"/>
<path opacity="0.26" d="M71.0142 5.60389L71.0277 5.60423L71.1021 5.58422L71.0142 5.60389Z" fill="#003383"/>
<path opacity="0.26" d="M69.0739 5.52075L69.4857 5.48066C69.3442 5.47722 69.2092 5.48826 69.0739 5.52075Z" fill="#003383"/>
<path opacity="0.26" d="M0.934054 9.29557L0.386285 9.40555C0.568683 9.38102 0.751311 9.34193 0.934054 9.29557Z" fill="#003383"/>
<path opacity="0.26" d="M48.1883 6.43656L48.3773 6.41971C48.3167 6.41824 48.2492 6.42375 48.1883 6.43656Z" fill="#003383"/>
<path opacity="0.26" d="M167.104 3.60276L167.272 3.62126C167.293 3.60019 167.279 3.58549 167.104 3.60276Z" fill="#003383"/>
<path opacity="0.26" d="M153.462 6.05688C153.199 6.05037 152.942 6.08741 152.692 6.17526C152.955 6.17454 153.218 6.13766 153.462 6.05688Z" fill="#003383"/>
<path opacity="0.26" d="M151.04 6.16366L151.134 6.17291C151.101 6.17212 151.074 6.16445 151.04 6.16366Z" fill="#003383"/>
<path opacity="0.26" d="M166.547 6.09715L166.547 6.08972C166.54 6.08955 166.54 6.09697 166.54 6.09697L166.547 6.09715Z" fill="#003383"/>
<path opacity="0.26" d="M163.478 6.15144C163.411 6.13545 163.337 6.11929 163.263 6.11748C163.337 6.14081 163.404 6.14963 163.478 6.15144Z" fill="#003383"/>
<path opacity="0.26" d="M143.402 6.56537L143.389 6.55769L143.402 6.56537Z" fill="#003383"/>
<path opacity="0.26" d="M114.482 7.84223C117.383 7.72776 121.142 7.50149 124.028 7.49695C124.833 7.33572 125.656 7.25072 126.479 7.24151L126.584 7.46437L127.347 7.37802C127.656 7.44005 126.759 7.42694 127.311 7.50128L127.597 7.35603C127.656 7.43316 129.565 7.37237 128.281 7.55737L131.255 7.50656C131.916 7.50063 131.636 7.31519 132.363 7.35899C132.51 7.4243 132.106 7.40839 132.166 7.48552C134.355 7.61017 134.681 7.01098 136.716 7.07705L136.54 7.10759C136.885 7.03948 137.546 7.04043 137.553 7.00614C137.287 6.78655 137.187 7.12891 136.569 7.01174C136.619 6.81989 137.339 6.89799 137.294 6.75226C137.685 6.77476 138.077 6.74903 138.469 6.68886C139.181 6.80125 140.194 6.69979 140.732 6.84272C141.213 6.69494 141.706 6.60257 142.206 6.57236C142.743 6.71529 142.082 6.71433 142.809 6.76502L142.926 6.65735C143.519 6.66369 143.431 6.69618 143.41 6.75084C143.849 6.67794 144.294 6.64653 144.739 6.65645L144.292 6.77054C144.887 6.72177 145.122 6.73392 145.952 6.73863C145.937 6.80034 145.607 6.79986 145.364 6.78756C145.814 6.9423 146.127 6.7081 146.37 6.7204C146.303 6.67067 145.73 6.65789 146.008 6.54693C146.42 6.563 146.874 6.38706 147.169 6.51079L146.722 6.62488C147.189 6.51813 147.675 6.48073 148.153 6.51208C148.099 6.51776 148.126 6.54592 148.105 6.57303C148.882 6.48698 149.671 6.47701 150.452 6.54268L150.276 6.57322C150.647 6.53326 150.844 6.43428 151.047 6.43879C150.522 6.37884 150.664 6.34755 150.618 6.24316C151.31 6.4171 151.667 6.01845 152.798 6.1126C152.783 6.1743 152.512 6.25785 152.197 6.19567C151.869 6.43647 151.489 6.59339 151.084 6.63948C151.509 6.59384 152.016 6.55689 151.906 6.63716L152.037 6.46089C152.294 6.45283 152.502 6.46438 152.698 6.45496C152.808 6.34714 152.175 6.28478 152.77 6.20156C153.445 6.13392 153.131 6.37502 153.233 6.2946C154.165 6.21201 153.614 6.10323 154.51 6.15079C154.402 6.17594 154.287 6.18716 154.172 6.18461C154.812 6.24712 155.751 6.13023 155.936 6.34112C155.834 6.42153 155.705 6.46001 155.584 6.43664L155.591 6.40234C154.888 6.56583 156.179 6.35342 155.96 6.5484C155.908 6.43697 156.811 6.45711 157.215 6.47302L157.082 6.34601C158.43 5.95568 157.011 6.59941 158.347 6.53962C159.198 6.44834 158.024 6.50485 158.544 6.41308C159.083 6.48023 159.628 6.50618 160.175 6.48391C160.41 6.53051 160.888 6.5963 160.933 6.74203C161.546 6.75571 162.16 6.72806 162.775 6.65218C161.9 6.53618 161.909 6.81206 160.887 6.63075L161.172 6.49239C161.88 6.4944 162.778 6.41794 163.27 6.46337C163.169 6.43355 163.129 6.3982 163.19 6.372C163.94 6.27157 164.703 6.21278 165.465 6.20221C165.598 6.32923 165.025 6.30956 164.607 6.32779C165.152 6.37442 165.698 6.3866 166.244 6.36433C166.297 6.47576 165.584 6.36337 165.474 6.4712L166.56 6.42651C166.554 6.43325 166.56 6.44029 166.56 6.44718C166.718 6.25774 167.389 6.45878 168.051 6.39773C168.961 6.38359 169.86 6.24513 170.727 5.97502C170.963 6.02162 171.029 6.07135 170.934 6.11747C170.551 6.04001 170.617 6.10351 170.482 6.14873C171.015 6.12616 171.646 6.32631 171.348 6.40236C172.191 6.33849 171.046 6.30604 171.559 6.24168L172.712 6.24672C172.572 6.15401 172.168 6.13121 172.762 6.05488C173.268 6.02482 173.511 6.04401 174.165 6.04481C174.07 6.09093 174.372 6.18726 173.879 6.18317C174.216 6.23203 174.56 6.21214 174.885 6.12291C174.165 6.03792 176.066 6.0321 175.529 5.88917L176.249 5.97415C176.087 5.97055 176.066 6.03899 175.824 6.0198C176.03 6.16224 176.411 5.97776 176.661 5.96266C176.984 5.96988 177.307 6.00465 177.63 6.06009C177.927 6.01848 178.23 6.03903 178.519 6.12127C178.857 6.09434 178.547 6.02542 178.643 5.9793L179.795 5.99124C179.855 6.07526 179.952 6.29109 179.783 6.32177C180.216 6.24872 179.935 6.08395 180.596 6.0918C180.223 6.24887 181.464 6.20765 180.922 6.39541C181.601 6.50015 182.288 6.52238 182.963 6.46163C183.329 6.33885 182.324 6.39223 182.36 6.26898C184.026 6.22344 184.126 5.87419 185.345 5.92897L185.029 5.89434C185.406 5.88209 185.785 5.82851 186.15 5.73329C185.939 5.88708 187.02 6.15241 188.268 6.11823C188.371 6.03781 187.569 5.97169 187.774 5.84531L188.603 5.82246C188.664 5.8376 188.569 5.86305 188.467 5.88146C189.21 5.82222 189.853 6.08467 190.072 5.89658L190.83 6.12714L190.528 6.03081C190.893 5.95626 191.265 5.9163 191.643 5.89716C192.183 5.81963 192.736 5.84574 193.273 5.97488C193.126 5.90957 192.757 5.76352 193.425 5.73707C193.421 5.99197 194.833 5.83049 194.81 5.96094C195.08 5.96006 195.564 6.03978 195.593 5.93705L195.55 6.0946C195.614 5.87549 196.598 5.89055 197.354 5.85228C197.181 6.15165 198.183 5.83633 198.523 6.10579C198.668 5.90227 199.866 6.03237 199.997 5.86299C200.577 5.85526 200.52 6.04695 200.667 6.11227L200.938 6.03561C201.233 6.13178 202.325 6.14925 202.978 6.21895L203.581 6.03943L203.802 6.12018C203.897 6.07406 204.403 6.05088 204.087 5.98181L204.411 5.99592C204.441 5.80362 204.87 5.94414 205.525 5.86228C205.68 5.89329 205.639 5.94061 205.497 5.96501C205.82 5.97223 205.684 6.06567 205.865 6.13174C205.63 6.07825 207.043 5.78588 206.162 5.6904C206.102 5.61326 206.616 5.5558 206.939 5.59057L207.131 5.76716L207.519 5.58283C207.896 5.59125 208.273 5.63412 208.643 5.6975C208.225 5.70885 207.714 6.02826 208.793 6.03165C208.408 6.05752 208.03 6.10422 207.657 6.18551C207.88 6.19736 207.994 6.2137 207.642 6.28166C208.486 6.23156 207.927 6.17775 208.757 6.1549C208.707 6.3123 208.942 6.36579 209.67 6.42337L209.125 6.30785C209.159 6.28793 209.193 6.2749 209.227 6.26188C209.018 6.24344 208.965 6.21468 208.919 6.15851C209.08 6.16212 209.886 5.96644 210.019 6.0659C209.18 5.81287 211.478 5.88481 210.948 5.73514C211.192 5.67855 211.448 5.69116 211.682 5.76531C210.986 5.88072 212.205 5.94927 212.089 6.05694C212.346 6.01443 211.545 5.93454 211.89 5.8802C212.213 5.88742 212.529 5.92893 212.838 6.01852L212.662 6.04906L213.302 6.12534C213.404 6.04493 212.684 5.98061 213.271 5.95236C213.425 5.99026 214.019 5.95527 213.998 6.01682C213.713 6.12074 213.92 6.27007 213.414 6.28635C213.832 6.2819 215.16 6.28396 214.623 6.12726L215.122 6.13838C214.813 6.06946 213.938 5.9328 214.936 5.92749L214.929 5.96868L215.625 5.86016L215.927 5.9496C215.921 5.90811 216.029 5.87607 216.285 5.88178C216.352 5.93151 216.594 5.9507 216.573 6.01225C217.322 6.01516 217.262 5.93114 217.357 5.89191C217.775 5.88745 217.93 5.91847 217.733 6.01056C218.387 6.01136 219.04 6.0535 219.693 6.1232C220.463 6.06456 219.539 6.0853 219.985 5.98499C220.642 6.26841 222.511 6.13094 223.759 6.11053C223.419 5.86173 224.103 6.09064 224.329 5.86825C224.058 5.93802 225.512 6.07384 224.419 6.12526L225.087 6.11259C225.543 6.25371 223.98 6.19816 224.671 6.38588C225.374 6.2844 226.083 6.23129 226.791 6.2333C226.492 6.39892 227.473 6.18648 227.247 6.36753C227.024 6.4108 226.801 6.4265 226.572 6.4145L226.727 6.45241C228.364 6.52339 227.202 6.25625 228.066 6.15149C229.064 6.14618 228.853 6.29998 228.912 6.37711C229.222 6.4047 229.526 6.39768 229.836 6.34948C229.228 6.44618 228.712 6.22793 228.991 6.12386C229.568 6.25391 230.169 6.23973 230.744 6.08717C229.318 5.8624 229.753 6.06507 228.422 5.82173C228.239 5.87968 228.263 6.05251 227.462 5.97261C227.969 5.89433 227.43 5.87541 227.289 5.8447C227.443 5.9446 226.729 5.88044 226.486 5.91636C226.265 5.82873 226.968 5.6928 226.153 5.64016L225.994 5.87783C225.678 5.83632 226.132 5.70861 225.45 5.75542C225.816 5.63954 225.338 5.55997 226.262 5.53923C225.167 5.32182 224.582 5.6258 223.725 5.69627C223.813 5.68444 223.82 5.65015 223.908 5.63832C223.658 5.68787 223.401 5.70972 223.145 5.69711C222.586 5.63641 223.592 5.59681 223.444 5.5315L222.534 5.52498C222.514 5.51764 222.514 5.51075 222.514 5.51075C222.331 5.55491 222.143 5.5507 221.962 5.49842C222.232 5.42865 222.341 5.34839 222.524 5.29044L221.571 5.44147C221.674 5.36795 220.785 5.29299 221.467 5.24617L220.051 5.25593L219.932 5.09477C219.594 5.1217 219.58 5.14895 219.991 5.1719C219.506 5.12663 217.843 5.42033 218.104 5.10914C216.99 5.22212 216.593 5.16502 215.251 5.22466C216.284 5.0961 214.067 5.01908 215.16 4.96765C214.729 4.95114 214.297 4.98285 213.878 5.07687C213.407 5.00434 213.618 4.85055 214.131 4.79997L213.53 4.86237L213.544 4.82823L213.024 4.9131C212.472 4.82499 212.912 4.75209 212.339 4.72553L212.216 4.8675L211.826 4.783C211.973 4.84831 211.629 4.87509 211.217 4.88658L211.225 4.85229L210.719 4.87546C211.219 4.79013 210.261 4.84457 210.485 4.7393C210.053 4.72968 210.047 4.72953 209.264 4.75342L209.398 4.85288C208.378 4.93351 209.353 4.70715 208.53 4.6957L208.583 4.80713C207.399 4.61532 206.572 4.90011 205.691 4.77707C206.197 4.7539 206.064 4.62689 206.057 4.6543C205.301 4.69257 204.068 4.65128 203.29 4.78555C202.936 4.57779 202.533 4.47921 202.135 4.4979C201.555 4.50563 201.467 4.51746 201.277 4.6097C200.724 4.62493 200.172 4.59193 199.62 4.5176C199.49 4.61119 199.108 4.49239 198.803 4.57519L198.737 4.52546L198.789 4.63689C197.788 4.38025 197.095 4.76449 196.08 4.54889L196.256 4.51835L195.83 4.55711C195.764 4.50738 195.933 4.47669 195.954 4.41514L193.972 4.38471L194.362 4.46921C193.977 4.52954 193.579 4.54133 193.188 4.51884C193.979 4.35042 192.527 4.51099 192.401 4.38413L192.827 4.33848C192.247 4.34622 192.247 4.34622 192.292 4.4575C191.537 4.49578 191.776 4.24614 191.08 4.36844L191.579 4.37267C191.726 4.43798 191.367 4.52647 191.037 4.52599C190.956 4.5104 190.728 4.45707 190.978 4.44196C190.384 4.48385 189.495 4.42955 189.231 4.47191C188.908 4.43714 189.017 4.35687 189.186 4.32619C187.917 4.42882 188.613 4.30652 187.344 4.40226L187.366 4.34071L186.912 4.44086L186.287 4.30976L186.509 4.3905C186.124 4.42327 185.733 4.42833 185.349 4.41287L185.546 4.32078C184.371 4.37729 184.186 4.1664 183.071 4.30004C182.998 4.28461 183.167 4.25392 183.255 4.23521C182.221 4.38444 182.468 4.06606 181.434 4.24973C181.495 4.21664 181.381 4.17963 181.422 4.15298L180.949 4.21135L180.985 4.08809L180.598 4.27242L180.303 4.14869L180.12 4.20663C179.618 3.96801 178.9 4.15186 178.209 3.97103L178.328 4.13219C176.583 4.45853 174.332 3.95347 172.219 4.12687L172.255 4.00361L171.383 4.15645C170.912 4.06325 171.661 4.0455 171.514 3.98019C170.582 4.05589 171.126 4.1714 170.047 4.21624C169.495 4.13502 170.237 4.124 170.501 4.07475C169.427 4.16796 168.348 4.19902 167.27 4.16119C167.256 4.17466 167.209 4.20117 167.249 4.20896C166.574 4.26971 165.678 4.22215 164.929 4.23302C164.944 4.17821 165.133 4.16175 165.315 4.15203C165.026 4.1249 164.736 4.13221 164.452 4.16723L164.73 4.05628C164.129 4.1049 163.523 4.09137 162.924 4.01598C162.99 4.06571 162.969 4.16171 162.47 4.15747C162.196 3.9653 161.12 4.25141 160.326 4.151C160.421 4.10488 161.001 4.09025 160.839 4.08664C160.469 4.06459 160.097 4.10455 159.732 4.19288L159.841 4.11261L157.992 4.23676C157.718 4.04458 156.245 4.28049 156.368 4.13852C155.708 4.13757 156.927 4.21989 156.09 4.24948C155.869 4.16873 155.334 4.30153 155.37 4.17138L155.458 4.15267L154.871 4.16715L155.237 4.03748C154.738 4.06769 154.365 4.19721 154.343 4.29321C153.885 4.28987 153.427 4.25898 152.97 4.18675L153.145 4.15621C151.809 4.22289 150.925 3.8448 149.877 4.06951C149.796 4.05393 149.81 4.01979 149.972 4.02339L149.143 4.03246L149.34 3.93348L147.975 4.09601L147.99 4.0343C147.086 4.02105 145.676 4.07229 144.509 4.10829L144.685 4.07775C143.416 4.19416 143.459 4.03661 142.534 4.11246C142.561 4.09928 142.595 4.08625 142.629 4.08701L141.792 4.10281L141.976 4.03798C141.51 4.06894 141.052 4.05182 140.587 3.99322C140.229 4.03348 139.878 4.10833 139.539 4.21793C138.628 4.23897 139.318 4.13719 138.752 4.097C138.198 4.14668 137.645 4.1688 137.086 4.16321L137.1 4.1015C136.682 4.11974 136.425 4.16914 135.845 4.18377L136.02 4.15323C135.074 4.30441 134.836 3.98898 134.097 4.27572C133.7 4.2324 132.944 4.28446 132.98 4.15431C131.798 4.2589 130.881 4.30734 129.713 4.38467C129.521 4.18052 129.463 4.39978 128.75 4.29428L128.802 4.40571C127.143 4.45139 125.232 4.2089 123.404 4.28528L123.352 4.17384L122.986 4.30351C121.017 4.28717 118.469 4.28545 116.897 4.31242C116.201 4.43472 115.499 4.50175 114.791 4.50663L114.879 4.48792C113.461 4.58035 111.957 4.66394 110.406 4.62936C110.501 4.58324 110.347 4.55223 110.516 4.51465C110.104 4.58815 109.685 4.59949 109.275 4.5421L109.665 4.61971C109.232 4.70654 108.787 4.68973 108.364 4.57003L107.668 4.7061C107.621 4.69816 107.547 4.68273 107.54 4.66191L107.418 4.72121L107.043 4.58189C106.577 4.61285 106.117 4.69219 105.664 4.8199C105.597 4.77017 104.943 4.7487 105.45 4.71175L102.901 4.72381L103.298 4.76713C103.35 4.87856 102.587 4.96491 102.19 4.92159C102.704 4.82279 102.226 4.76389 102.005 4.68315C101.66 4.75126 102.307 4.77258 102.131 4.83757C101.61 4.92933 101.077 4.95879 100.545 4.93313L100.802 4.88373C100.214 4.93954 99.934 4.74722 99.3538 4.76873C98.8331 4.86738 98.4432 4.79666 98.5549 4.98523C97.7988 5.04417 98.2602 4.86149 98.0176 4.84919C97.5038 4.9411 96.9781 4.92938 96.4674 4.8215C96.0582 5.11561 94.4253 4.76905 94.28 5.00702L93.6548 4.8897C93.6404 4.9514 93.5167 5.10026 93.0172 5.13736C92.5394 5.07846 92.6491 4.96375 92.5084 4.90548L92.1945 5.14657C89.4534 4.96137 85.8558 5.21881 82.8509 5.08286C81.5147 5.16332 79.8335 5.31878 78.276 5.32539L78.4451 5.28781L76.8947 5.26701L78.0263 5.34049C77.6886 5.37431 77.4248 5.43045 77.1011 5.43701C75.073 5.35042 73.05 5.3742 71.0253 5.50822C69.6788 5.81588 70.1185 5.29502 68.8203 5.52795C68.9286 5.5028 68.9697 5.46236 69.0713 5.43017C67.6737 5.5575 66.9175 5.62334 65.5188 5.81956C65.6714 5.54729 64.6082 5.84749 64.7251 5.70537L64.6087 5.81993C64.2926 5.76464 63.5578 5.76203 63.6602 5.68161L63.0443 5.83327L62.9853 5.72169C62.1625 5.73779 60.4073 5.88471 59.9657 5.66811C57.9395 5.89858 54.7295 5.94413 52.1804 5.97685C51.6261 6.07475 51.0656 6.13117 50.4992 6.13232L49.874 6.01499C49.2924 6.13296 48.7048 6.19566 48.1115 6.19621C48.1117 6.18243 48.1389 6.16925 48.1727 6.16312C47.593 6.15708 47.0124 6.20615 46.4379 6.29671C45.777 6.30953 45.1372 6.2608 45.3347 6.13426C45.2773 6.35352 43.9388 6.15137 43.9388 6.15137C43.9388 6.15137 35.4953 6.3007 26.0171 6.65438C16.532 7.01479 6.02557 7.58674 1.92039 8.39798C1.60831 8.52196 0.763462 8.65473 1.11242 8.759C0.470523 8.84805 0.122428 8.68867 0.0194972 8.80353C0.916211 8.80286 -0.167117 9.09571 0.708299 9.16348L0.181301 9.23443C0.0923891 9.31514 0.877872 9.09835 0.781249 9.24092L0.892431 9.02976C1.17593 9.00851 1.45857 9.04239 1.73382 9.11744C2.2096 8.87306 2.74399 8.76093 3.28263 8.80741L3.02608 8.82925C3.77517 8.78394 3.48951 8.94297 3.65094 8.96724L3.48234 8.97037L4.12165 9.04666C3.64366 9.00154 2.8584 9.20456 3.27017 9.17239C4.16667 9.1855 3.03482 9.13268 3.70313 9.07868C4.12165 9.04666 4.00524 9.16122 3.99068 9.22982L4.73302 9.18435C4.71129 9.28035 4.24059 9.20093 4.54943 9.28363L5.48211 9.13904C5.66726 9.37059 6.49599 8.97558 6.93769 9.18529C6.2622 9.26671 7.0039 9.26258 6.89477 9.34284L8.54784 9.26256C8.70254 9.28669 8.11488 9.35628 8.36468 9.33428C8.59373 9.34629 8.82342 9.31695 9.04028 9.24598C9.18769 9.3044 10.275 9.19082 10.2387 9.35541C11.3637 9.41497 10.7006 9.1314 11.7516 9.18241C11.8917 9.27513 10.9214 9.2397 11.3921 9.31912L12.4857 9.23325C12.3085 9.35335 12.0919 9.41054 11.8764 9.39195C14.8159 9.3955 16.4202 9.85168 19.0937 9.62187C19.4764 9.72 18.8226 9.71231 18.5583 9.79601C20.4968 9.57047 21.3 9.94676 22.9531 9.86648L22.9815 9.77063C25.2975 9.98081 28.066 9.71176 30.6816 9.73565L30.3656 9.68036C30.812 9.58695 31.2714 9.52828 31.7237 9.49013C31.7905 9.53296 31.4237 9.70397 32.1731 9.63798C32.0118 9.60682 31.6953 9.58598 31.7905 9.53296C34.0398 9.69341 38.7626 9.48175 42.4439 9.48117C47.4166 9.24063 52.8234 9.26476 57.7079 9.05671C56.9658 9.08839 57.2731 8.84026 57.8321 8.88029C59.384 9.23193 60.4908 8.73285 62.0717 8.9542C64.9136 8.73503 67.4644 9.01937 70.1065 8.63724L70.1587 8.74867C70.4688 8.75559 70.7725 8.73479 71.0766 8.68645L71.0694 8.72074C72.0535 8.7358 73.2356 8.58988 73.8014 8.63007L73.8304 8.49978C74.4106 8.47137 74.1391 8.58936 74.7338 8.49925L74.7194 8.56096L75.4092 8.42473C75.3518 8.64398 77.0547 8.39941 77.5253 8.48572C78.2813 8.42678 79.706 8.29316 80.852 8.30494C81.6866 8.39248 82.5289 8.42505 83.3652 8.40925C85.1057 8.33781 87.5951 8.24172 89.8134 8.22919L89.7684 8.09035L90.3486 8.06883C90.3413 8.10313 90.4221 8.11182 90.3341 8.13053C90.7902 8.28543 91.6703 8.05008 92.1342 8.13623C91.8395 8.0125 91.7298 8.12721 91.3994 8.13362C90.9216 8.07472 91.3756 7.92634 92.0153 7.98196L92.0012 8.01611L92.4341 7.92928C92.4863 8.04071 92.8834 8.08403 92.9424 8.18872C94.8449 8.114 96.1428 7.89486 98.1047 7.89727C97.9072 8.02381 99.5149 7.83225 99.127 8.05791C100.309 7.95333 98.9274 7.88806 99.4627 7.72081C99.793 7.72129 100.138 7.65318 100.197 7.73031C100.041 7.78886 100.472 7.8536 100.202 7.88203L100.991 7.85139C101.065 7.86683 100.896 7.89751 100.808 7.91623C102.415 7.75911 103.659 8.00049 105.097 7.83962C105.2 7.7592 104.524 7.82684 104.627 7.74642C106.072 7.55814 105.913 7.85781 107.263 7.72254L106.985 7.83349C107.419 7.70533 107.878 7.66733 108.328 7.72563C108.461 7.85264 107.72 7.84299 107.375 7.91111C107.867 7.9083 109.115 7.84656 108.733 7.74154C109.111 7.71551 109.488 7.7446 109.864 7.82191C109.871 7.78762 109.312 7.74758 109.657 7.67946C110.466 7.73195 111.707 7.7045 112.691 7.6989C112.684 7.73319 112.751 7.77603 112.669 7.7949C113.468 7.61974 113.389 7.90744 114.482 7.84223Z" fill="#003383"/>
<path opacity="0.26" d="M166.951 6.11551L166.553 6.09846C166.553 6.12735 166.539 6.16312 166.35 6.19456L166.951 6.11551Z" fill="#003383"/>
<path opacity="0.26" d="M148.105 6.33353C148.058 6.33965 148.01 6.3531 147.963 6.37386C148.057 6.36161 148.085 6.34766 148.105 6.33353Z" fill="#003383"/>
<path opacity="0.26" d="M143.529 6.66402C143.853 6.62823 143.564 6.59887 143.403 6.56543C143.396 6.59459 143.402 6.6241 143.529 6.66402Z" fill="#003383"/>
<path opacity="0.26" d="M177.617 5.61127C177.549 5.62431 177.508 5.64542 177.515 5.66774C177.609 5.64801 177.63 5.62638 177.617 5.61127Z" fill="#003383"/>
<path opacity="0.26" d="M207.124 5.5912L207.01 5.56662C207.05 5.58212 207.084 5.5902 207.124 5.5912Z" fill="#003383"/>
<path opacity="0.26" d="M205.49 5.3751C205.375 5.37238 205.267 5.38396 205.159 5.39555C205.273 5.39826 205.381 5.39375 205.49 5.3751Z" fill="#003383"/>
<path opacity="0.26" d="M170.469 5.75424C170.367 5.75896 170.259 5.77072 170.158 5.79709C170.266 5.79975 170.367 5.7806 170.469 5.75424Z" fill="#003383"/>
<path opacity="0.26" d="M204.821 5.42956L204.41 5.41298C204.403 5.41983 204.403 5.42684 204.403 5.44086L204.821 5.42956Z" fill="#003383"/>
<path opacity="0.26" d="M207.643 5.60971C207.481 5.60609 207.266 5.60127 207.124 5.59121C207.299 5.6227 207.474 5.62662 207.643 5.60971Z" fill="#003383"/>
<path opacity="0.26" d="M188.447 5.36L188.4 5.36607C188.089 5.41631 188.285 5.39219 188.447 5.36Z" fill="#003383"/>
<path opacity="0.26" d="M203.018 5.65669L202.964 5.64809L202.842 5.68136L203.018 5.65669Z" fill="#003383"/>
<path opacity="0.26" d="M209.422 5.66563C209.355 5.66396 209.287 5.67676 209.22 5.68957L209.455 5.7099C209.428 5.68751 209.429 5.67304 209.422 5.66563Z" fill="#003383"/>
<path opacity="0.26" d="M194.627 5.51894C194.742 5.47017 194.783 5.43426 194.79 5.41226C194.655 5.41618 194.567 5.4361 194.627 5.51894Z" fill="#003383"/>
</g>
</g>
</g>
</g>
<path d="M35.5021 8.11257C35.4817 8.1269 35.4679 8.14885 35.4607 8.17841C35.4949 8.14957 35.5086 8.13506 35.5021 8.11257Z" fill="#003383"/>
<path d="M53.6716 8.03006L53.4622 8.06068C53.5363 8.06257 53.6038 8.05711 53.6716 8.03006Z" fill="#003383"/>
<path d="M24.6186 8.29721C24.6254 8.29064 24.6389 8.29095 24.6457 8.28438L23.8838 8.29394L24.6186 8.29721Z" fill="#003383"/>
<path d="M92.4181 7.8105L92.1754 7.81175C92.2563 7.81355 92.3372 7.81535 92.4181 7.8105Z" fill="#003383"/>
<path d="M69.4562 7.84566C69.5577 7.81946 69.6592 7.80045 69.767 7.80321C69.6594 7.78606 69.5512 7.80489 69.4562 7.84566Z" fill="#003383"/>
<path d="M18.8246 7.17734L19.1403 7.25804C19.1341 7.22161 19.02 7.1824 18.8246 7.17734Z" fill="#003383"/>
<path d="M7.79633 8.00859C7.80296 8.0161 7.81633 8.0238 7.82307 8.02397C7.8434 8.01717 7.83003 8.00948 7.79633 8.00859Z" fill="#003383"/>
<path d="M12.1216 8.1852C12.2162 8.17321 12.3244 8.15435 12.4325 8.13549C12.3044 8.13941 12.1357 8.1495 12.1216 8.1852Z" fill="#003383"/>
<path d="M12.5813 8.10729L12.4326 8.13235C12.5135 8.12721 12.581 8.12173 12.5813 8.10729Z" fill="#003383"/>
<path d="M233.153 7.82634C233.409 7.83283 233.665 7.80359 233.916 7.73846L233.153 7.82634Z" fill="#003383"/>
<path d="M127.504 7.59695L127.436 7.63199C127.504 7.61905 127.511 7.61186 127.504 7.59695Z" fill="#003383"/>
<path d="M233.549 7.06124L233.764 7.08772C233.69 7.07179 233.623 7.06308 233.549 7.06124Z" fill="#003383"/>
<path d="M24.6699 6.70587C24.9881 6.61443 25.6408 6.7018 25.6353 6.61644C25.2979 6.63639 24.8132 6.58874 24.6699 6.70587Z" fill="#003383"/>
<path d="M134.911 4.22902L135.12 4.22704C135.018 4.22476 134.958 4.22339 134.911 4.22902Z" fill="#003383"/>
<path d="M233.548 7.06927L233.3 7.03412C233.32 7.04903 233.346 7.0641 233.373 7.07918C233.434 7.06634 233.488 7.06772 233.548 7.06927Z" fill="#003383"/>
<path d="M164.036 7.62782L164.022 7.62748L163.948 7.63995L164.036 7.62782Z" fill="#003383"/>
<path d="M165.968 7.77819L165.556 7.8032C165.698 7.81371 165.833 7.81001 165.968 7.77819Z" fill="#003383"/>
<path d="M233.916 7.73063L234.362 7.67754C234.213 7.68094 234.064 7.70578 233.916 7.73063Z" fill="#003383"/>
<path d="M186.86 7.75952L186.671 7.76886C186.739 7.7705 186.799 7.77197 186.86 7.75952Z" fill="#003383"/>
<path d="M67.9803 7.82048L67.812 7.80186C67.7913 7.83001 67.8047 7.83751 67.9803 7.82048Z" fill="#003383"/>
<path d="M81.6156 5.34309C81.8785 5.34981 82.1352 5.31323 82.3859 5.23336C82.1229 5.23384 81.8662 5.27041 81.6156 5.34309Z" fill="#003383"/>
<path d="M84.0441 5.252L83.9498 5.24274C83.9834 5.25052 84.0104 5.25118 84.0441 5.252Z" fill="#003383"/>
<path d="M68.524 5.33322L68.5239 5.34064C68.5306 5.34082 68.5307 5.3334 68.5307 5.3334L68.524 5.33322Z" fill="#003383"/>
<path d="M71.5991 5.26409C71.6663 5.28005 71.7402 5.29618 71.8144 5.29805C71.7406 5.27479 71.6665 5.26579 71.5991 5.26409Z" fill="#003383"/>
<path d="M91.6873 4.91018C91.6808 4.91 91.6873 4.91018 91.6873 4.91018L91.7002 4.91782L91.6873 4.91018Z" fill="#003383"/>
<path d="M120.636 4.30816C117.73 4.34326 113.965 4.51248 111.08 4.47476C110.269 4.61659 109.445 4.6915 108.623 4.67981L108.525 4.46439L107.762 4.53399C107.453 4.46712 108.349 4.49378 107.797 4.41484L107.512 4.54841C107.453 4.47378 105.544 4.49783 106.828 4.34655L103.854 4.3535C103.194 4.34542 103.474 4.5316 102.747 4.48205C102.599 4.41879 103.01 4.44128 102.944 4.35984C100.755 4.20438 100.423 4.78337 98.3881 4.68466L98.5638 4.65526C98.2191 4.71421 97.5584 4.71279 97.5513 4.73929C97.8177 4.95847 97.9171 4.62084 98.5355 4.74792C98.4855 4.93339 97.7586 4.85054 97.8037 4.99148C97.413 4.96943 97.0217 4.98736 96.6298 5.04525C95.9235 4.9362 94.9041 5.02007 94.3668 4.88147C93.886 5.02401 93.3925 5.11295 92.8865 5.13498C92.3492 4.99638 93.0099 4.99779 92.2825 4.94824L92.1662 5.05893C91.5664 5.04555 91.6612 5.01435 91.6821 4.96817C91.2429 5.03167 90.7975 5.06171 90.3527 5.05178L90.7992 4.94846C90.2052 4.99518 89.9628 4.97645 89.1403 4.97142C89.1547 4.91177 89.485 4.91247 89.7342 4.93136C89.2848 4.77473 88.9713 5.00097 88.7288 4.98889C88.7955 5.03703 89.3684 5.04981 89.0903 5.15689C88.6793 5.14105 88.2184 5.30403 87.9303 5.18431L88.3768 5.08099C87.9034 5.17705 87.4242 5.213 86.9459 5.18234C87 5.17688 86.9734 5.14963 86.994 5.12344C86.2175 5.1994 85.4285 5.20845 84.6475 5.13772L84.8232 5.10832C84.4519 5.14668 84.2549 5.24224 84.0527 5.23773C84.5777 5.29609 84.4357 5.32624 84.4814 5.42721C83.7895 5.25185 83.4332 5.63705 82.302 5.53851C82.3164 5.47886 82.5872 5.40494 82.9031 5.4653C83.2302 5.2327 83.6167 5.08806 84.0151 5.04364C83.5897 5.08746 83.0836 5.11615 83.1927 5.03861L83.062 5.20896C82.8057 5.21656 82.5969 5.20524 82.4013 5.20754C82.2919 5.31172 82.9246 5.37915 82.3302 5.45251C81.6552 5.51075 81.9687 5.28452 81.8665 5.35554C80.935 5.42804 81.4862 5.5403 80.5902 5.48699C80.6985 5.46275 80.8133 5.45198 80.9277 5.4612C80.2814 5.40013 79.3495 5.49928 79.1569 5.30174C79.2592 5.22406 79.3879 5.18694 79.5156 5.20979L79.5084 5.24294C80.2118 5.09205 78.9212 5.28315 79.1397 5.10144C79.192 5.20923 78.2889 5.18908 77.8777 5.1799L78.0107 5.30282C76.6633 5.6859 78.0818 5.05784 76.7392 5.12118C75.8882 5.21547 77.0623 5.15504 76.5418 5.24338C76.0034 5.17806 75.4576 5.15922 74.9111 5.18034C74.6758 5.13511 74.1981 5.07114 74.1529 4.93686C73.5396 4.92317 72.9255 4.95611 72.3109 5.02903C73.1858 5.13518 73.1762 4.87508 74.1985 5.04449L73.9132 5.18473C73.2053 5.18226 72.3007 5.26203 71.8159 5.21789C71.9167 5.24013 71.9566 5.28101 71.8955 5.3063C71.1456 5.40951 70.3829 5.46579 69.6209 5.47544C69.4879 5.35253 70.0608 5.36531 70.4789 5.35465C69.9335 5.30916 69.3876 5.29698 68.841 5.32477C68.7887 5.21698 69.5017 5.32618 69.6113 5.21534L68.5251 5.25775C68.532 5.25123 68.5253 5.24442 68.5254 5.23776C68.3744 5.42098 67.6962 5.23259 67.0346 5.29112C66.1242 5.30413 65.2254 5.444 64.3585 5.70453C64.1232 5.6593 64.0565 5.61117 64.1516 5.56664C64.5415 5.64198 64.4683 5.58037 64.6039 5.53009C64.0709 5.55151 63.4399 5.36418 63.7377 5.29086C62.894 5.35199 64.0464 5.38437 63.5264 5.44607L62.3672 5.41354C62.5074 5.5033 62.9117 5.51898 62.3172 5.59901C61.8111 5.6277 61.5686 5.61562 60.9146 5.61436C61.0097 5.56983 60.7009 5.47631 61.1999 5.47412C60.8635 5.42663 60.5193 5.45227 60.1944 5.53165C60.9147 5.6077 59.0132 5.62524 59.5572 5.76399L58.8368 5.6946C58.9987 5.69155 59.0198 5.63205 59.2623 5.64413C59.0554 5.50623 58.6751 5.69099 58.4253 5.71208C58.1017 5.71152 57.7785 5.68432 57.4556 5.63047C57.1583 5.67714 56.8552 5.65705 56.5664 5.58397C56.2288 5.61642 56.538 5.67663 56.443 5.72115L55.2831 5.73525C55.2168 5.66047 55.1189 5.44505 55.2946 5.41565C54.862 5.49262 55.1428 5.64549 54.4888 5.65089C54.862 5.49262 53.6138 5.5514 54.1559 5.36359C53.4763 5.27512 52.7888 5.25978 52.1068 5.33119C51.7409 5.4563 52.7531 5.39226 52.7109 5.51126C51.0513 5.58085 50.9519 5.91848 49.7321 5.87794L50.0486 5.90499C49.6708 5.92321 49.2991 5.98156 48.9335 6.08002C49.1381 5.92466 48.0562 5.68727 46.8081 5.73939C46.7058 5.81707 47.514 5.87509 47.3099 5.99714L46.4868 6.03209C46.4263 6.02407 46.5144 5.99272 46.6225 5.97514C45.8799 6.03854 45.2296 5.79746 45.0178 5.97932L44.2524 5.76899L44.5545 5.85569C44.1893 5.92751 43.8177 5.97919 43.4466 5.99757C42.9059 6.08546 42.3466 6.06631 41.809 5.9477C41.9564 6.01096 42.332 6.14595 41.664 6.17769C41.6677 5.93121 40.256 6.10629 40.2712 5.98668C40.0014 5.99399 39.5169 5.92987 39.4884 6.03585L39.5311 5.88354C39.474 6.0955 38.4826 6.11336 37.7268 6.16314C37.893 5.86698 36.8969 6.20459 36.5501 5.95029C36.4122 6.15379 35.2067 6.06026 35.0828 6.23075C34.496 6.25097 34.5526 6.07231 34.4052 6.00905L34.1343 6.08964C33.8389 6.00308 32.7465 6.01868 32.0932 5.97079L31.4903 6.15725L31.2622 6.08552C31.1671 6.13004 30.6676 6.17221 30.9769 6.22576L30.6534 6.21854C30.6303 6.41127 30.194 6.28159 29.5385 6.38024C29.3839 6.35014 29.425 6.30441 29.567 6.28092C29.2433 6.28703 29.3796 6.18345 29.1985 6.1261C29.4338 6.17133 28.0333 6.49326 28.9156 6.55959C28.9819 6.63437 28.4684 6.70288 28.1452 6.67568L27.9454 6.51129L27.565 6.70271C27.1875 6.70095 26.8102 6.67921 26.4402 6.6243C26.8585 6.60698 27.3557 6.27156 26.2832 6.30094C26.6613 6.26939 27.0398 6.20454 27.4119 6.11955C27.1894 6.12125 27.075 6.10537 27.42 6.02644C26.5829 6.10105 27.1419 6.14018 26.312 6.18164C26.3547 6.02932 26.1194 5.98409 25.3918 5.94786L25.9364 6.04664C25.9024 6.06588 25.8684 6.08511 25.8346 6.09102C26.0435 6.10234 26.1038 6.12368 26.1501 6.18469C25.9883 6.18774 25.1896 6.39648 25.0493 6.30673C25.8956 6.52552 23.5965 6.52753 24.134 6.65281C23.8903 6.71401 23.641 6.70844 23.3991 6.64974C24.0888 6.51852 22.8688 6.4913 22.9784 6.38046C22.7215 6.42804 23.5297 6.47939 23.1782 6.54485C22.8545 6.55095 22.5382 6.51058 22.2224 6.43689L22.3915 6.40068L21.7518 6.34643C21.6495 6.42411 22.3772 6.45368 21.7898 6.51387C21.6351 6.48376 21.0409 6.5438 21.062 6.4843C21.3402 6.37056 21.1331 6.23933 21.6327 6.19717C21.2143 6.22115 19.892 6.27827 20.4295 6.40355L19.9304 6.4124C20.2465 6.4661 21.1217 6.55227 20.123 6.60995L20.1302 6.57679L19.4405 6.71467L19.1381 6.64795C19.151 6.68822 19.0425 6.72578 18.7862 6.73339C18.7194 6.69191 18.4701 6.67969 18.4912 6.62018C17.7424 6.65012 17.8087 6.7249 17.7136 6.77609C17.2952 6.80007 17.1405 6.77663 17.3308 6.67425C16.6764 6.69964 16.0224 6.69837 15.369 6.65714C14.6058 6.74672 15.5305 6.68073 15.0837 6.80403C14.4132 6.55584 12.549 6.78079 11.3073 6.85304C11.6546 7.07403 10.9696 6.89215 10.7507 7.10717C11.0148 7.02644 9.55939 6.9673 10.6464 6.86495L9.97826 6.91001C9.5147 6.79971 11.0792 6.78131 10.3803 6.62578C9.68389 6.75684 8.98145 6.84112 8.27306 6.87196C8.55882 6.69842 7.59767 6.95018 7.80949 6.76166C8.0327 6.71333 8.25562 6.68499 8.48488 6.68344L8.33025 6.65334C6.69185 6.65676 7.86192 6.86279 7.0103 7.00371C6.01169 7.05473 6.21628 6.89937 6.15671 6.82474C5.84023 6.79768 5.5298 6.81741 5.22551 6.87726C5.82735 6.75741 6.35722 6.9425 6.07909 7.05624C5.49391 6.96321 4.89336 6.99646 4.32442 7.17035C5.75824 7.32229 5.31589 7.14583 6.66169 7.32246C6.84467 7.2599 6.80671 7.09246 7.60847 7.13035C7.10802 7.23246 7.64751 7.22451 7.78876 7.24765C7.62829 7.15744 8.34252 7.18671 8.58596 7.13883C8.81412 7.21056 8.11712 7.38159 8.93276 7.39313L9.07777 7.16313C9.40109 7.18367 8.94713 7.33347 9.62916 7.26206C9.26986 7.39399 9.7478 7.44463 8.82987 7.51078C9.93323 7.66867 10.5043 7.35489 11.3555 7.24061C11.2676 7.25864 11.2604 7.28514 11.1725 7.30317C11.4228 7.24878 11.6795 7.21452 11.9358 7.20692C12.5017 7.23953 11.4958 7.32371 11.6433 7.38031L12.554 7.34732C12.5741 7.35443 12.574 7.3611 12.574 7.3611C12.7501 7.31171 12.9457 7.30275 13.1271 7.34678C12.8629 7.42752 12.7539 7.50505 12.5776 7.57442L13.5243 7.38896C13.422 7.46665 14.3183 7.49331 13.6429 7.57153L15.0531 7.49638L15.179 7.64579C15.5167 7.60668 15.5238 7.58019 15.1194 7.57116C15.6046 7.58865 17.2483 7.23217 17.0076 7.54666C18.1157 7.3848 18.513 7.42032 19.8564 7.30369C18.829 7.48068 21.0477 7.44356 19.954 7.54577C20.3855 7.54207 20.8111 7.48493 21.2307 7.38101C21.7086 7.43165 21.5041 7.58702 20.9905 7.66219L21.5919 7.57565L21.5846 7.60881L22.1053 7.50714C22.6638 7.57958 22.2244 7.6564 22.7973 7.66919L22.914 7.53185L23.304 7.60053C23.1565 7.54393 23.4942 7.50482 23.9058 7.48734L23.8985 7.5205L24.4047 7.48515C23.9044 7.58061 24.8697 7.50219 24.6388 7.61032C25.0704 7.60663 25.0771 7.60678 25.8598 7.56427L25.7196 7.47451C26.7325 7.3705 25.7648 7.60879 26.5875 7.6005L26.5351 7.49271C27.7262 7.6459 28.5465 7.34434 29.4216 7.43717C28.9222 7.47267 29.0484 7.59544 29.0624 7.56243C29.8184 7.506 31.0455 7.50672 31.823 7.35748C32.1776 7.54531 32.5875 7.63443 32.9858 7.60333C33.5726 7.58311 33.6538 7.56493 33.844 7.46922C34.3973 7.44158 34.95 7.45391 35.502 7.51287C35.6314 7.42247 36.0143 7.51764 36.3189 7.43781L36.3857 7.47928L36.3334 7.3715C37.3415 7.58724 38.0215 7.19593 39.0368 7.38518L38.868 7.4014L39.2935 7.35092C39.3602 7.39906 39.1912 7.4286 39.1701 7.48811L41.1459 7.46556L40.7559 7.39022C41.1412 7.32552 41.5325 7.30759 41.9301 7.32313C41.1454 7.49887 42.5842 7.31773 42.7172 7.44065L42.2917 7.49113C42.8718 7.47075 42.8718 7.47075 42.8195 7.36296C43.5686 7.31304 43.3424 7.56122 44.0321 7.43L43.5398 7.43235C43.3925 7.36909 43.7444 7.27698 44.0748 7.27769C44.1555 7.29282 44.3908 7.33805 44.1344 7.35232C44.7285 7.29894 45.6177 7.34544 45.8747 7.29786C46.1979 7.32507 46.0956 7.40275 45.9198 7.43215C47.1823 7.32038 46.4927 7.44493 47.762 7.32665L47.7409 7.38615L48.1736 7.30918L48.7988 7.42975L48.5775 7.35151C48.9623 7.31345 49.3536 7.30219 49.7377 7.31076L49.5408 7.40633C50.7149 7.33923 50.9008 7.53663 52.0153 7.39491C52.0893 7.40988 51.9203 7.43943 51.8324 7.45746C52.8663 7.30061 52.619 7.60829 53.6533 7.41813C53.5922 7.45008 53.7063 7.48595 53.6654 7.51169L54.1383 7.44894L54.1097 7.56159L54.49 7.37683L54.7849 7.49669L54.9678 7.43413C55.4769 7.65873 56.1876 7.47468 56.8863 7.63687L56.7672 7.48761C58.5052 7.13324 60.7636 7.60345 62.8696 7.4372L62.8341 7.55636L63.7059 7.42254C64.1765 7.51301 63.4279 7.52962 63.5752 7.59288C64.5068 7.51372 63.9623 7.40827 65.0418 7.35906C65.6002 7.43816 64.8516 7.45477 64.588 7.49554C65.6614 7.4062 66.7407 7.37031 67.8189 7.40104C67.8326 7.38802 67.8802 7.36242 67.8399 7.35486C68.5149 7.29662 69.4111 7.33661 70.1529 7.32651C70.1317 7.38601 69.9496 7.39527 69.7674 7.40453C70.0569 7.43099 70.3469 7.42413 70.6307 7.38382L70.3527 7.4909C70.9534 7.44433 71.5601 7.4512 72.1592 7.51788C72.0925 7.46974 72.1141 7.37693 72.6129 7.3814C72.8866 7.56743 73.956 7.29142 74.7502 7.38245C74.6551 7.42697 74.0751 7.44068 74.2369 7.44429C74.6074 7.46589 74.9788 7.42753 75.3375 7.33558L75.2352 7.41326L77.0844 7.28793C77.3648 7.47411 78.8246 7.24013 78.7012 7.37732C79.3619 7.37874 78.1495 7.29837 78.9792 7.27024C79.2006 7.34848 79.735 7.22713 79.6994 7.35295L79.6116 7.36432L80.1916 7.3506L79.8258 7.46905C80.3251 7.44021 80.6977 7.32191 80.7193 7.2291C81.1777 7.23267 81.6357 7.26954 82.0931 7.33972L81.9173 7.36912C83.2531 7.3123 84.1375 7.68521 85.1857 7.47537C85.2664 7.4905 85.2524 7.52351 85.0907 7.5199L85.9199 7.52507L85.723 7.61397L87.0872 7.46449L87.0728 7.52414C87.976 7.5443 89.3857 7.50245 90.5457 7.48169L90.3699 7.51109C91.6389 7.41279 91.5962 7.56511 92.521 7.49245C92.4938 7.50517 92.4599 7.51774 92.4262 7.51699L93.2624 7.50899L93.0794 7.57155C93.545 7.54196 94.0033 7.55884 94.4675 7.62251C94.8254 7.58385 95.1771 7.51174 95.5224 7.41282C96.4328 7.39982 95.7437 7.49106 96.3094 7.537C96.9701 7.53842 97.0796 7.43424 97.9756 7.48089L97.9612 7.54054C98.3794 7.52988 98.6363 7.48231 99.2162 7.47526L99.0405 7.50465C99.9864 7.37249 100.224 7.68434 100.963 7.41429C101.36 7.46313 102.116 7.42668 102.081 7.54584C103.262 7.46557 104.179 7.42607 105.353 7.37896C105.546 7.57651 105.603 7.36454 106.316 7.48041L106.263 7.37262C107.922 7.35633 109.826 7.61872 111.654 7.57288L111.706 7.68067L112.072 7.56222C114.04 7.6128 116.588 7.643 118.159 7.6514C118.855 7.54698 119.564 7.49616 120.272 7.51195L120.184 7.52998C121.607 7.46845 123.105 7.42856 124.654 7.49646C124.559 7.54098 124.714 7.57109 124.538 7.60049C124.95 7.53639 125.368 7.53905 125.779 7.60151L125.389 7.51952C125.821 7.4492 126.266 7.47245 126.689 7.59517L127.385 7.47743C127.432 7.48515 127.499 7.50664 127.513 7.52026L127.635 7.46301L128.003 7.60452C128.469 7.58158 128.935 7.51869 129.389 7.40885C129.455 7.45699 130.109 7.49156 129.603 7.52025L132.15 7.57044L131.753 7.5216C131.701 7.41381 132.471 7.35102 132.861 7.39971C132.34 7.48805 132.818 7.55202 133.039 7.63026C133.384 7.57132 132.737 7.53689 132.92 7.47434C133.447 7.39947 133.98 7.37805 134.506 7.41642L134.249 7.45734C134.843 7.41728 135.116 7.60997 135.696 7.59626C136.217 7.50792 136.607 7.59658 136.495 7.4075C137.25 7.37105 136.79 7.53402 137.032 7.55276C137.546 7.47759 138.071 7.50264 138.582 7.62066C138.997 7.35005 140.616 7.72603 140.775 7.503L141.393 7.63674C141.414 7.57724 141.537 7.44006 142.037 7.41788C142.508 7.48836 142.398 7.59254 142.546 7.6558L142.866 7.42971C145.599 7.69062 149.202 7.54444 152.199 7.75792C153.534 7.71442 155.221 7.62545 156.778 7.67352L156.602 7.70292L158.152 7.77748L157.028 7.66576C157.365 7.63997 157.629 7.59921 157.959 7.60658C159.979 7.76494 162.008 7.81021 164.032 7.74875C165.39 7.49919 164.931 7.98873 166.235 7.80459C166.127 7.82883 166.079 7.86775 165.985 7.89229C167.388 7.81698 168.144 7.78054 169.548 7.63862C169.389 7.89496 170.459 7.63894 170.335 7.77612L170.451 7.6721C170.76 7.73897 171.495 7.76868 171.393 7.84637L172.015 7.72031L172.067 7.8281C172.889 7.84645 174.65 7.77912 175.078 8.00191C177.11 7.86066 180.318 7.94557 182.865 8.01574C183.426 7.94163 183.986 7.91414 184.552 7.92677L185.17 8.06052C185.758 7.96702 186.345 7.94013 186.938 7.96669C186.938 7.98001 186.911 7.99273 186.87 7.99849C187.45 8.02475 188.03 8.01104 188.604 7.94389C189.264 7.95862 189.904 8.03953 189.7 8.15492C189.764 7.94311 191.095 8.20604 191.095 8.20604C191.095 8.20604 199.545 8.47458 209.03 8.61291C218.514 8.75124 229.031 8.79934 233.157 8.35165C233.394 8.25699 234.076 8.21222 233.835 8.08024C234.031 8.07128 234.233 8.08911 234.421 8.13996C234.475 8.15448 234.529 8.16235 234.582 8.17021C234.603 8.17066 234.623 8.17111 234.643 8.1649C234.65 8.16505 234.663 8.15869 234.67 8.15884L234.684 8.15248L234.691 8.14597C234.761 7.91432 234.826 7.68252 234.897 7.44421C234.833 7.65603 234.769 7.8745 234.712 8.08647C234.69 8.16596 234.698 8.1328 234.697 8.13946L234.684 8.13916L234.67 8.13886L234.643 8.13826L234.59 8.13039C234.563 8.12313 234.536 8.12253 234.509 8.1086C234.469 8.09438 234.449 8.0806 234.436 8.06698C234.416 8.03322 234.457 8.00082 234.491 7.96826C234.566 7.89664 234.655 7.81866 234.292 7.74392L234.778 7.73476C234.893 7.66404 234.103 7.793 234.253 7.66974L234.081 7.85916C233.832 7.84694 233.59 7.79489 233.362 7.69652C232.874 7.89886 232.34 7.96025 231.816 7.88191L232.072 7.8743C231.324 7.86427 231.615 7.7375 231.461 7.70074L231.629 7.7045L231.004 7.59059C231.482 7.66788 232.273 7.53226 231.861 7.52975C230.973 7.44994 232.09 7.58149 231.422 7.59325C231.004 7.59059 231.127 7.49337 231.141 7.42706L230.393 7.41702C230.422 7.32436 230.885 7.43466 230.583 7.33464L229.638 7.40684C229.466 7.16978 228.612 7.49057 228.191 7.26126C228.866 7.22301 228.131 7.17997 228.24 7.1091L226.582 7.08542C226.428 7.04866 227.021 7.02192 226.765 7.02953C226.536 7.00443 226.307 7.0193 226.083 7.06763C225.943 7.00452 224.85 7.04677 224.893 6.89446C223.769 6.76942 224.418 7.07711 223.368 6.96705C223.234 6.87078 224.197 6.9589 223.734 6.85527L222.648 6.86436C222.832 6.75517 223.055 6.71351 223.27 6.74497C220.333 6.55949 218.756 6.04451 216.065 6.11773C215.689 6.00273 216.336 6.05047 216.607 5.98321C214.656 6.09296 213.874 5.689 212.215 5.67199L212.187 5.76465C209.879 5.43994 207.099 5.57116 204.493 5.40637L204.802 5.47324C204.349 5.53644 203.89 5.57951 203.431 5.58926C203.365 5.54113 203.744 5.39634 202.989 5.42612C203.143 5.46289 203.466 5.50342 203.371 5.54128C201.13 5.26471 196.398 5.25905 192.719 5.09699C187.736 5.09243 182.333 4.85857 177.438 4.86263C178.186 4.866 177.866 5.08542 177.3 5.02616C175.762 4.62533 174.637 5.06001 173.063 4.785C170.21 4.8746 167.667 4.52464 165.013 4.79861L164.96 4.69083C164.651 4.67059 164.347 4.67714 164.043 4.717L164.05 4.68385C163.067 4.63524 161.879 4.73534 161.313 4.67608L161.278 4.79523C160.691 4.80213 160.976 4.70186 160.375 4.76176L160.389 4.7021L159.693 4.81318C159.764 4.60152 158.048 4.78315 157.578 4.67936C156.822 4.70914 155.392 4.7905 154.246 4.73829C153.412 4.62638 152.577 4.56776 151.734 4.56229C149.988 4.58329 147.499 4.60107 145.282 4.55159L145.32 4.69238L144.74 4.69943C144.748 4.66627 144.674 4.6513 144.755 4.63978C144.305 4.48315 143.419 4.68328 142.949 4.57949C143.244 4.70601 143.353 4.60183 143.683 4.6092C144.161 4.67983 143.707 4.80965 143.061 4.73526L143.075 4.70225L142.636 4.77241C142.59 4.66478 142.187 4.60912 142.141 4.50148C140.233 4.51888 138.935 4.69651 136.968 4.63261C137.172 4.51055 135.552 4.65432 135.946 4.44987C134.765 4.52347 136.139 4.62077 135.604 4.76876C135.273 4.76139 134.929 4.82034 134.869 4.74571C135.025 4.69588 134.601 4.61979 134.871 4.59916L134.082 4.61487C134.008 4.59989 134.184 4.57049 134.265 4.55897C132.659 4.67639 131.409 4.41527 129.971 4.53645C129.862 4.61398 130.543 4.56255 130.441 4.63358C128.989 4.7811 129.156 4.49827 127.806 4.60142L128.083 4.501C127.644 4.61113 127.185 4.64087 126.734 4.5775C126.608 4.45474 127.342 4.47779 127.687 4.41885C127.195 4.41453 125.94 4.43985 126.323 4.55501C125.945 4.57323 125.568 4.53816 125.192 4.4498C125.185 4.48296 125.743 4.53541 125.399 4.58769C124.591 4.51635 123.35 4.51533 122.366 4.50669C122.373 4.47353 122.306 4.43206 122.394 4.41403C121.603 4.5763 121.688 4.29832 120.595 4.32725" fill="#003383"/>
<path d="M68.1265 5.31454L68.524 5.33189C68.5245 5.30314 68.5385 5.26754 68.721 5.23625L68.1265 5.31454Z" fill="#003383"/>
<path d="M86.9856 5.10455C87.0329 5.09849 87.0803 5.08512 87.1278 5.06446C87.0264 5.07641 86.9993 5.09031 86.9856 5.10455Z" fill="#003383"/>
<path d="M91.5608 4.81167C91.2367 4.83975 91.5261 4.87662 91.6874 4.91013C91.6946 4.88104 91.6884 4.84429 91.5608 4.81167Z" fill="#003383"/>
<path d="M57.4526 5.89372C57.5203 5.88075 57.561 5.85968 57.5547 5.82997C57.4599 5.85699 57.4395 5.87122 57.4526 5.89372Z" fill="#003383"/>
<path d="M27.9343 6.60895L28.0554 6.62618C28.0151 6.61807 27.9748 6.60996 27.9343 6.60895Z" fill="#003383"/>
<path d="M29.5767 6.77248C29.6914 6.76826 29.7993 6.76388 29.9074 6.74534C29.7929 6.74249 29.6848 6.75395 29.5767 6.77248Z" fill="#003383"/>
<path d="M64.6084 5.69093C64.7097 5.68633 64.8177 5.67473 64.9192 5.64859C64.8114 5.64584 64.7101 5.65762 64.6084 5.69093Z" fill="#003383"/>
<path d="M30.2452 6.70248L30.6564 6.70555C30.6565 6.69855 30.6634 6.69171 30.6636 6.67771L30.2452 6.70248Z" fill="#003383"/>
<path d="M27.4084 6.61155C27.5703 6.60851 27.786 6.60675 27.9274 6.61693C27.7594 6.58558 27.5841 6.58145 27.4084 6.61155Z" fill="#003383"/>
<path d="M46.6192 6.33171L46.6664 6.32568C46.9843 6.2614 46.7816 6.29241 46.6192 6.33171Z" fill="#003383"/>
<path d="M32.0429 6.40853L32.0969 6.40993L32.2188 6.3695L32.0429 6.40853Z" fill="#003383"/>
<path d="M25.6354 6.61656C25.7029 6.61108 25.7704 6.60561 25.8381 6.58572L25.6023 6.57246C25.6222 6.5946 25.6288 6.60198 25.6354 6.61656Z" fill="#003383"/>
<path d="M40.4382 6.27029C40.3227 6.32632 40.2817 6.36217 40.2746 6.38414C40.4096 6.38034 40.4977 6.35313 40.4382 6.27029Z" fill="#003383"/>
<g opacity="0.26">
<g opacity="0.26">
<g opacity="0.26">
<g opacity="0.26">
<path opacity="0.26" d="M35.5043 8.11404C35.4838 8.12843 35.47 8.15042 35.4628 8.18004C35.497 8.1511 35.504 8.12893 35.5043 8.11404Z" fill="#003383"/>
<path opacity="0.26" d="M53.667 8.03116L53.4575 8.06239C53.5317 8.06418 53.606 8.05146 53.667 8.03116Z" fill="#003383"/>
<path opacity="0.26" d="M24.6139 8.29832C24.6208 8.29158 24.6342 8.29188 24.6411 8.28514L23.8792 8.29597L24.6139 8.29832Z" fill="#003383"/>
<path opacity="0.26" d="M92.4203 7.81184L92.1776 7.81344C92.2584 7.81518 92.3393 7.81693 92.4203 7.81184Z" fill="#003383"/>
<path opacity="0.26" d="M69.4515 7.84753C69.5531 7.82092 69.6545 7.80158 69.7623 7.80418C69.6547 7.78706 69.5534 7.79914 69.4515 7.84753Z" fill="#003383"/>
<path opacity="0.26" d="M18.8267 7.17886L19.1424 7.25956C19.1295 7.22273 19.0222 7.18361 18.8267 7.17886Z" fill="#003383"/>
<path opacity="0.26" d="M7.79858 8.00265C7.80521 8.01019 7.81858 8.01789 7.82532 8.01806C7.84554 8.01856 7.82543 8.01069 7.79858 8.00265Z" fill="#003383"/>
<path opacity="0.26" d="M12.1238 8.18719C12.2183 8.17494 12.3265 8.15574 12.4346 8.13654C12.2997 8.14055 12.1378 8.15118 12.1238 8.18719Z" fill="#003383"/>
<path opacity="0.26" d="M12.5834 8.1086L12.4347 8.13411C12.5157 8.1288 12.5832 8.12315 12.5834 8.1086Z" fill="#003383"/>
<path opacity="0.26" d="M233.155 7.82895C233.411 7.83507 233.667 7.8051 233.918 7.73889L233.155 7.82895Z" fill="#003383"/>
<path opacity="0.26" d="M127.499 7.59823L127.431 7.6335C127.499 7.6204 127.513 7.60596 127.499 7.59823Z" fill="#003383"/>
<path opacity="0.26" d="M233.551 7.06278L233.766 7.08926C233.692 7.07324 233.618 7.06436 233.551 7.06278Z" fill="#003383"/>
<path opacity="0.26" d="M24.6653 6.70859C24.9835 6.61556 25.6361 6.70286 25.6307 6.61653C25.2933 6.63727 24.8154 6.59003 24.6653 6.70859Z" fill="#003383"/>
<path opacity="0.26" d="M134.913 4.2306L135.122 4.22833C135.021 4.21911 134.96 4.22471 134.913 4.2306Z" fill="#003383"/>
<path opacity="0.26" d="M233.551 7.06321L233.302 7.02818C233.322 7.04318 233.349 7.05834 233.375 7.0735C233.429 7.06754 233.49 7.06175 233.551 7.06321Z" fill="#003383"/>
<path opacity="0.26" d="M164.038 7.62923L164.024 7.62891L163.95 7.64162L164.038 7.62923Z" fill="#003383"/>
<path opacity="0.26" d="M165.97 7.7792L165.558 7.80521C165.693 7.81549 165.835 7.81167 165.97 7.7792Z" fill="#003383"/>
<path opacity="0.26" d="M233.918 7.73281L234.364 7.67844C234.215 7.68212 234.067 7.70024 233.918 7.73281Z" fill="#003383"/>
<path opacity="0.26" d="M186.862 7.76082L186.673 7.77061C186.734 7.77201 186.801 7.77356 186.862 7.76082Z" fill="#003383"/>
<path opacity="0.26" d="M67.9823 7.82185L67.814 7.80339C67.7935 7.82456 67.8068 7.83932 67.9823 7.82185Z" fill="#003383"/>
<path opacity="0.26" d="M81.6177 5.34577C81.8806 5.3521 82.1373 5.31476 82.388 5.23376C82.1251 5.22743 81.8684 5.26477 81.6177 5.34577Z" fill="#003383"/>
<path opacity="0.26" d="M84.0394 5.25341L83.9519 5.24429C83.9788 5.252 84.0124 5.25278 84.0394 5.25341Z" fill="#003383"/>
<path opacity="0.26" d="M68.5262 5.32727L68.5261 5.3347C68.5328 5.33487 68.5329 5.32743 68.5329 5.32743L68.5262 5.32727Z" fill="#003383"/>
<path opacity="0.26" d="M71.6013 5.25816C71.6685 5.27417 71.7424 5.29035 71.8165 5.29211C71.7426 5.27594 71.6686 5.26697 71.6013 5.25816Z" fill="#003383"/>
<path opacity="0.26" d="M91.6896 4.90424C91.6828 4.90407 91.6827 4.91144 91.6896 4.90424L91.7029 4.91194L91.6896 4.90424Z" fill="#003383"/>
<path opacity="0.26" d="M120.64 4.24542C117.733 4.2852 113.969 4.46365 111.084 4.42871C110.272 4.57522 109.449 4.65313 108.626 4.64221L108.529 4.42139L107.766 4.49377C107.456 4.42559 108.353 4.45177 107.801 4.37152L107.516 4.50889C107.456 4.43242 105.548 4.45957 106.831 4.30274L103.858 4.31373C103.197 4.30631 103.478 4.49689 102.75 4.44702C102.603 4.38233 103.014 4.40487 102.948 4.32142C100.759 4.16482 100.426 4.75908 98.3916 4.66049L98.5674 4.63011C98.2226 4.69101 97.5619 4.69042 97.5547 4.7176C97.821 4.94206 97.9207 4.59564 98.539 4.72518C98.4889 4.91546 97.762 4.83143 97.807 4.97593C97.4163 4.95382 97.025 4.97271 96.633 5.0326C95.9268 4.92167 94.9074 5.00902 94.3702 4.86756C93.8893 5.01438 93.3957 5.10624 92.8897 5.12949C92.3525 4.98804 93.0132 4.98863 92.2859 4.93876L92.1695 5.05243C91.5697 5.03948 91.6645 5.00736 91.6855 4.95997C91.2463 5.02567 90.8008 5.05706 90.356 5.04746L90.8026 4.94091C90.2085 4.9896 89.9661 4.9707 89.1436 4.96661C89.1581 4.90541 89.4884 4.90571 89.7376 4.92476C89.2883 4.7647 88.9746 4.99714 88.7321 4.98507C88.7988 5.03435 89.3717 5.04671 89.0936 5.1569C88.6825 5.14119 88.2215 5.30894 87.9335 5.18653L88.3801 5.07999C87.9066 5.17912 87.4274 5.21661 86.9492 5.18579C87.0032 5.18012 86.9766 5.15221 86.9973 5.12532C86.2207 5.20424 85.4318 5.21454 84.6508 5.14301L84.8265 5.11263C84.4551 5.15245 84.2581 5.25072 84.0559 5.24635C84.5809 5.30553 84.4388 5.33664 84.4844 5.44014C83.7927 5.26118 83.4361 5.65672 82.305 5.55712C82.3194 5.49592 82.5903 5.41975 82.9062 5.48125C83.2334 5.24227 83.62 5.09342 84.0185 5.04734C83.593 5.09284 83.0869 5.12292 83.196 5.04326L83.0653 5.21813C82.8089 5.22627 82.6001 5.21493 82.4045 5.21754C82.295 5.32453 82.9278 5.39287 82.3333 5.46888C81.6582 5.52949 81.9718 5.29705 81.8696 5.37002C80.9381 5.4456 81.4892 5.56001 80.5933 5.5065C80.7015 5.4815 80.8163 5.47031 80.9308 5.47962C80.2845 5.41782 79.3525 5.52073 79.1601 5.31837C79.2624 5.23856 79.3911 5.20033 79.5189 5.2236L79.4851 5.2297C80.1886 5.07402 78.8979 5.2717 79.1164 5.08505C79.1687 5.19553 78.2656 5.17604 77.8544 5.16716L77.9874 5.29305C76.6397 5.68771 78.0586 5.04171 76.7159 5.10841C75.8649 5.20623 77.039 5.14273 76.5185 5.23401C75.9801 5.16771 75.4343 5.14909 74.8879 5.17147C74.6526 5.12538 74.1749 5.0604 74.1298 4.92273C73.5165 4.90949 72.9024 4.94408 72.2878 5.01966C73.1626 5.12739 73.1532 4.86064 74.1753 5.03307L73.89 5.17727C73.1821 5.17565 72.2774 5.25864 71.7926 5.21401C71.8934 5.23669 71.9332 5.27855 71.8722 5.30457C71.1222 5.41141 70.3594 5.47012 69.5974 5.48101C69.4645 5.35512 70.0374 5.36748 70.4556 5.35601C69.9102 5.31006 69.3642 5.29828 68.8177 5.32749C68.7654 5.21701 69.4784 5.32808 69.588 5.21426L68.5018 5.25916C68.5087 5.25247 68.5021 5.24549 68.5022 5.23866C68.351 5.42676 67.673 5.23443 67.0113 5.29533C66.128 5.3036 65.2223 5.44808 64.362 5.71656C64.1268 5.67047 64.0601 5.62119 64.1552 5.5754C64.545 5.65216 64.4718 5.58907 64.6075 5.53732C64.0745 5.55999 63.4437 5.36867 63.7415 5.29309C62.8977 5.35689 64.0501 5.3886 63.53 5.45255L62.3771 5.455C62.5173 5.54688 62.9216 5.56244 62.327 5.64529C61.8209 5.67537 61.5784 5.6633 60.9244 5.66286C61.0195 5.61707 60.7108 5.52155 61.2098 5.51865C60.8734 5.47039 60.5292 5.49713 60.2043 5.57896C60.9245 5.65602 59.023 5.67649 59.5669 5.81808L58.8331 5.74757C58.995 5.74423 59.0161 5.68317 59.2586 5.69524C59.0518 5.55409 58.6713 5.74408 58.4216 5.76602C58.0979 5.76587 57.7747 5.73839 57.4519 5.68358C57.1546 5.73184 56.8515 5.71163 56.5627 5.63705C56.2251 5.67077 56.5343 5.73212 56.4392 5.77791L55.2862 5.78719C55.2199 5.71058 55.1222 5.48976 55.2979 5.45938C54.8652 5.53889 55.146 5.69531 54.4919 5.7017C54.8652 5.53889 53.617 5.6008 54.1593 5.40747C53.4797 5.31762 52.7923 5.30278 52.1102 5.3769C51.7442 5.50569 52.7565 5.43869 52.7142 5.5608C51.0478 5.63419 50.9481 5.9806 49.7284 5.9406L50.0449 5.96793C49.667 5.98712 49.2953 6.04744 48.9297 6.1489C49.1344 5.98929 48.0526 5.74723 46.8045 5.8023C46.7021 5.88211 47.5103 5.94056 47.3061 6.06601L46.483 6.10292C46.4225 6.09478 46.5106 6.06251 46.6188 6.04434C45.8761 6.11032 45.2259 5.86391 45.0141 6.0507L44.2487 5.83598L44.5508 5.92452C44.1856 5.99865 43.814 6.05214 43.4429 6.07146C42.9021 6.16231 42.3428 6.1434 41.8053 6.02244C41.9526 6.08714 42.3281 6.2251 41.6601 6.25852C41.664 6.00572 40.2521 6.18712 40.2675 6.06443C39.9977 6.07227 39.5132 6.00714 39.4846 6.11587L39.5274 5.9596C39.4702 6.17707 38.4788 6.19668 37.7229 6.24871C37.8894 5.94475 36.893 6.29231 36.5464 6.03194C36.4083 6.24084 35.203 6.14647 35.0789 6.32149C34.4921 6.343 34.5488 6.15969 34.4014 6.095L34.1305 6.178C33.8352 6.08961 32.7427 6.10703 32.0895 6.05876L31.4865 6.25078L31.2584 6.17751C31.1633 6.2233 30.6637 6.26719 30.973 6.32171L30.6494 6.32156C30.6262 6.51926 30.19 6.38682 29.5345 6.48886C29.3799 6.45818 29.421 6.41123 29.563 6.38695C29.2392 6.39364 29.3757 6.28723 29.1946 6.22864C29.4298 6.27473 28.0292 6.60672 28.9114 6.67361C28.9776 6.75022 28.4642 6.82115 28.141 6.79367L27.9413 6.62533L27.5607 6.82215C27.1832 6.82084 26.806 6.79902 26.436 6.7432C26.8543 6.72489 27.3517 6.38023 26.2792 6.41175C26.6573 6.37891 27.0358 6.3119 27.408 6.22425C27.1855 6.22628 27.0711 6.21014 27.4162 6.12874C26.579 6.20635 27.138 6.24576 26.308 6.28935C26.3509 6.13308 26.1156 6.087 25.388 6.05079L25.9326 6.15139C25.8986 6.17116 25.8646 6.19093 25.8308 6.19704C26.0396 6.20838 26.0999 6.23018 26.1462 6.29269C25.9843 6.29603 25.1855 6.51117 25.0453 6.41929C25.8914 6.64259 23.5923 6.64764 24.1297 6.77543C23.8861 6.83851 23.6367 6.83313 23.3949 6.77323C24.0846 6.63776 22.8647 6.61143 22.9743 6.49761C22.7174 6.54674 23.5256 6.59836 23.174 6.66595C22.8503 6.67263 22.5341 6.63163 22.2183 6.55647L22.3874 6.51911L21.7478 6.46429C21.6454 6.5441 22.3731 6.57348 21.7856 6.63598C21.631 6.6053 21.0368 6.66765 21.0579 6.6066C21.3361 6.48958 21.1292 6.35526 21.6287 6.31136C21.2104 6.33651 19.888 6.39681 20.4254 6.5246L19.9264 6.53433C20.2424 6.58899 21.1175 6.67623 20.1188 6.73669L20.1261 6.70267L19.443 6.84512L19.1406 6.77708C19.1535 6.81837 19.045 6.85703 18.7887 6.86517C18.7219 6.82272 18.4726 6.8105 18.4938 6.74945C17.7449 6.78113 17.8112 6.85774 17.716 6.91036C17.2976 6.9355 17.1429 6.91166 17.3333 6.80641C16.6789 6.83329 16.0249 6.83285 15.3716 6.7914C14.6083 6.88428 15.533 6.81539 15.0861 6.94244C14.4158 6.68876 12.5514 6.92189 11.3098 6.99761C11.6569 7.22381 10.972 7.03816 10.7462 7.25883C11.0106 7.16202 9.54848 7.10312 10.6423 6.99687L9.97413 7.04396C9.51738 6.93158 11.0751 6.91053 10.3763 6.75192C9.67986 6.88725 8.97736 6.9746 8.26895 7.00715C8.55483 6.82879 7.59352 7.08825 7.80546 6.89463C8.02871 6.84477 8.25164 6.81541 8.4809 6.81352L8.31956 6.7827C6.68116 6.78834 7.85782 6.99827 7.00611 7.14392C6.00748 7.19754 6.21217 7.03793 6.14591 6.96132C5.84272 6.94794 5.53227 6.96858 5.22794 7.03035C5.8366 6.9068 6.35961 7.09579 6.08141 7.21281C5.49629 7.11816 4.90246 7.15318 4.33341 7.33227C5.76712 7.48624 5.32478 7.31266 6.67057 7.48524C6.85358 7.42084 6.81574 7.24916 7.61746 7.28697C7.11695 7.39236 7.65645 7.3835 7.79767 7.40705C7.64401 7.31488 8.35822 7.34397 8.60169 7.29455C8.8298 7.36782 8.13269 7.54414 8.94831 7.55491L9.09348 7.31883C9.40331 7.33919 8.95599 7.49356 9.63142 7.41246C9.27203 7.54823 9.74994 7.59955 8.83871 7.66873C9.94196 7.82924 10.5132 7.50668 11.3645 7.38836C11.2766 7.40697 11.2694 7.43415 11.1815 7.45276C11.4318 7.39665 11.6885 7.36118 11.9448 7.35305C12.5107 7.38577 11.5048 7.47341 11.6522 7.53126L12.5629 7.49625C12.583 7.50352 12.5829 7.51035 12.5829 7.51035C12.759 7.45947 12.9547 7.45003 13.136 7.49495C12.8718 7.5781 12.7627 7.65776 12.5864 7.72913L13.5332 7.53769C13.4308 7.6175 14.3271 7.64368 13.6517 7.72479L15.062 7.64588L15.1877 7.79895C15.5254 7.7584 15.5326 7.73122 15.1282 7.72249C15.6134 7.73979 17.2573 7.37204 17.0164 7.6949C18.1246 7.52746 18.5219 7.56337 19.8654 7.44201C18.8378 7.62487 21.0566 7.58391 19.9627 7.69016C20.3943 7.6858 20.8199 7.62665 21.2396 7.51952C21.7175 7.57084 21.5128 7.73045 20.9992 7.80822L21.6006 7.71868L21.5934 7.75269L22.1141 7.64775C22.6726 7.72131 22.2331 7.80068 22.806 7.81304L22.9228 7.67204L23.3127 7.74197C23.1653 7.68411 23.503 7.64356 23.9146 7.6251L23.9073 7.65912L24.4135 7.6222C23.9131 7.72076 24.8785 7.63908 24.6475 7.75028C25.0791 7.74593 25.0858 7.74607 25.8686 7.70146L25.7284 7.60958C26.7413 7.50159 25.7735 7.74725 26.5962 7.73767L26.5439 7.62719C27.7349 7.78275 28.5554 7.4724 29.4304 7.56647C28.931 7.60353 29.0571 7.72928 29.0711 7.69541C29.8271 7.63655 31.0542 7.6357 31.8319 7.48162C32.1863 7.67381 32.5962 7.76467 32.9944 7.73226C33.5813 7.71075 33.6625 7.692 33.8528 7.59359C34.4061 7.56453 34.9587 7.57646 35.5107 7.63621C35.6402 7.54333 36.023 7.64044 36.3276 7.55817L36.3944 7.60062L36.3422 7.49013C37.3501 7.71009 38.0304 7.30787 39.0456 7.50065L38.8697 7.53786L39.2952 7.48553C39.3619 7.53482 39.1929 7.56534 39.1717 7.6264L41.1476 7.6007L40.7577 7.52394C41.143 7.45708 41.5343 7.43819 41.9319 7.4536C41.147 7.63486 42.5859 7.44722 42.7189 7.57311L42.2933 7.62543C42.8735 7.60378 42.8735 7.60378 42.8212 7.4933C43.5704 7.44113 43.344 7.69596 44.0338 7.56049L43.5415 7.56353C43.3942 7.49884 43.7462 7.40392 44.0766 7.40421C44.1573 7.41963 44.3925 7.46571 44.1361 7.48068C44.7302 7.42516 45.6195 7.47169 45.8764 7.42256C46.1996 7.45004 46.0973 7.52985 45.9215 7.56023C47.184 7.44396 46.4944 7.5726 47.7638 7.44964L47.7426 7.51069L48.1753 7.43118L48.8005 7.55403L48.5792 7.47407C48.9641 7.43454 49.3553 7.42248 49.7395 7.43077L49.5425 7.52904C50.7166 7.4587 50.9024 7.66091 52.017 7.51411C52.091 7.52938 51.9219 7.5599 51.834 7.57851C52.868 7.41629 52.6205 7.73217 53.655 7.5358C53.5938 7.56865 53.7079 7.60529 53.667 7.63174L54.14 7.56677L54.1043 7.69586L54.4847 7.50587L54.7795 7.62842L54.9625 7.56403C55.4714 7.79372 56.1822 7.60402 56.8809 7.76947L56.7619 7.61654C58.5001 7.25082 60.7581 7.73014 62.8643 7.5569L62.8287 7.67915L63.7006 7.54078C64.1711 7.63295 63.4225 7.65096 63.5698 7.71566C64.5015 7.63325 63.957 7.52581 65.0365 7.47393C65.5949 7.55433 64.8462 7.57235 64.5826 7.6145C65.656 7.52148 66.7353 7.48327 67.8136 7.51338C67.8273 7.5 67.8749 7.47369 67.8346 7.46599C68.5097 7.40538 69.4058 7.44523 70.1476 7.4339C70.1264 7.49496 69.9442 7.5047 69.762 7.51443C70.0515 7.54118 70.3416 7.53378 70.6254 7.49206L70.3473 7.60224C70.948 7.5537 71.5547 7.55996 72.1537 7.62757C72.0871 7.57829 72.1087 7.48307 72.6076 7.48701C72.8811 7.67745 73.9507 7.39298 74.7448 7.4853C74.6498 7.53109 74.0697 7.54591 74.2315 7.5494C74.602 7.57107 74.9734 7.53124 75.3321 7.43647L75.2298 7.51627L77.0791 7.38533C77.3594 7.57591 78.8193 7.33405 78.6958 7.47491C79.3565 7.4755 78.1442 7.39465 78.9739 7.36472C79.1952 7.44468 79.7297 7.31953 79.694 7.44861L79.6062 7.46039L80.1863 7.44557L79.8203 7.56753C80.3197 7.5373 80.6924 7.41549 80.714 7.32027C81.1725 7.32333 81.6304 7.36055 82.0877 7.43194L81.912 7.46232C83.2478 7.4023 84.132 7.78362 85.1803 7.56704C85.2609 7.58245 85.2469 7.61632 85.0852 7.61283L85.9144 7.61706L85.7175 7.7085L87.0817 7.55341L87.0673 7.61461C87.9704 7.63411 89.3802 7.58936 90.5402 7.56656L90.3644 7.59694C91.6335 7.49447 91.5907 7.65074 92.5155 7.57502C92.4883 7.58811 92.4544 7.60104 92.4207 7.60032L93.2568 7.59103L93.0738 7.65542C93.5395 7.62447 93.9977 7.64119 94.4619 7.70589C94.8199 7.66578 95.1716 7.59135 95.517 7.48946C96.4274 7.47494 95.7382 7.56941 96.3039 7.6158C96.9646 7.61639 97.0741 7.5094 97.9701 7.55608L97.9556 7.61728C98.3738 7.6058 98.6308 7.55667 99.2107 7.54869L99.0349 7.57907C99.9809 7.44229 100.219 7.76182 100.958 7.48388C101.355 7.53346 102.111 7.4951 102.075 7.61735C103.256 7.5335 104.174 7.49179 105.348 7.44195C105.54 7.64431 105.597 7.42684 106.31 7.54474L106.258 7.43426C107.917 7.4154 109.821 7.68204 111.648 7.63264L111.701 7.74312L112.067 7.62117C114.035 7.67048 116.583 7.69815 118.153 7.70472C118.85 7.59672 119.558 7.54368 120.266 7.55895L120.178 7.57756C121.602 7.5126 123.099 7.46975 124.649 7.53737C124.553 7.58316 124.708 7.61384 124.532 7.64421C124.945 7.57793 125.363 7.58012 125.773 7.64366L125.383 7.56006C125.816 7.48738 126.26 7.51065 126.683 7.63597L127.379 7.51431C127.426 7.52216 127.494 7.54411 127.507 7.55806L127.629 7.49919L127.998 7.64384C128.463 7.61972 128.929 7.5546 129.383 7.44137C129.45 7.49065 130.103 7.52526 129.597 7.55534L132.145 7.6035L131.748 7.55392C131.695 7.44344 132.465 7.37804 132.855 7.42747C132.335 7.51876 132.812 7.58374 133.034 7.6637C133.378 7.6028 132.732 7.56833 132.915 7.50394C133.442 7.42647 133.975 7.4038 134.5 7.44248L134.243 7.48477C134.837 7.44292 135.111 7.64019 135.691 7.62537C136.211 7.53409 136.601 7.62452 136.489 7.43074C137.245 7.39237 136.784 7.56012 137.026 7.57902C137.54 7.50126 138.065 7.52627 138.576 7.64665C138.991 7.36856 140.61 7.75208 140.769 7.52312L141.387 7.65949C141.408 7.59844 141.532 7.45758 142.031 7.43418C142.502 7.50586 142.392 7.61285 142.54 7.67754L142.86 7.44524C145.593 7.70928 149.196 7.55468 152.193 7.76973C153.529 7.72338 155.216 7.62994 156.772 7.67721L156.596 7.70759L158.146 7.78205L157.022 7.66893C157.359 7.64204 157.623 7.59989 157.953 7.60702C159.973 7.76682 162.002 7.81061 164.026 7.74494C165.385 7.48723 164.925 7.9899 166.229 7.79935C166.121 7.82435 166.073 7.86432 165.979 7.88962C167.382 7.81056 168.138 7.7722 169.542 7.62482C169.383 7.88793 170.453 7.62396 170.329 7.76482L170.445 7.65798C170.754 7.72616 171.489 7.75569 171.387 7.83549L172.009 7.7054L172.061 7.81588C172.883 7.83363 174.644 7.76228 175.072 7.99023C177.104 7.84272 180.312 7.92564 182.859 7.9943C183.42 7.91755 183.98 7.88863 184.546 7.90085L185.164 8.03722C185.752 7.94056 186.339 7.91222 186.932 7.93869C186.932 7.95236 186.905 7.96544 186.864 7.9714C187.444 7.99758 188.024 7.98276 188.598 7.91314C189.258 7.9274 189.897 8.00954 189.693 8.12816C189.757 7.91083 191.088 8.17877 191.088 8.17877C191.088 8.17877 199.539 8.40904 209.023 8.53859C218.507 8.66814 229.024 8.7038 233.151 8.23928C233.388 8.14188 234.07 8.09509 233.829 7.96003C234.025 7.95059 234.227 7.96862 234.415 8.02052C234.469 8.03535 234.522 8.04334 234.576 8.05134C234.596 8.05178 234.617 8.05221 234.637 8.04582C234.644 8.04596 234.657 8.03942 234.664 8.03957L234.678 8.03302L234.685 8.02634C234.756 7.78866 234.82 7.55084 234.891 7.30633C234.827 7.52366 234.763 7.74781 234.706 7.96528C234.684 8.04683 234.691 8.01282 234.691 8.01965L234.678 8.01936L234.664 8.01907L234.637 8.01849L234.584 8.01049C234.557 8.00308 234.53 8.00249 234.503 7.98825C234.463 7.97371 234.443 7.95961 234.43 7.94565C234.41 7.91106 234.451 7.87777 234.485 7.84433C234.56 7.77078 234.649 7.69068 234.286 7.6145L234.772 7.60448C234.888 7.5318 234.097 7.66509 234.247 7.53847L234.075 7.73297C233.826 7.72076 233.584 7.66769 233.357 7.56709C232.868 7.77525 232.334 7.83892 231.81 7.75924L232.066 7.75111C231.318 7.74179 231.61 7.6114 231.455 7.57389L231.624 7.57753L230.998 7.46151C231.476 7.54017 232.267 7.40005 231.856 7.398C230.967 7.31731 232.084 7.45078 231.416 7.4637C230.998 7.46151 231.121 7.36165 231.136 7.29362L230.388 7.2843C230.416 7.18923 230.88 7.30175 230.578 7.19955L229.633 7.27484C229.461 7.03192 228.607 7.36204 228.185 7.12741C228.86 7.0873 228.126 7.04411 228.235 6.97128L226.577 6.94915C226.422 6.91165 227.016 6.88346 226.76 6.89159C226.531 6.86615 226.301 6.8817 226.078 6.93156C225.938 6.86701 224.845 6.91176 224.887 6.75549C223.763 6.62871 224.413 6.94345 223.363 6.83193C223.229 6.73337 224.192 6.8225 223.728 6.7168L222.643 6.72754C222.827 6.61532 223.05 6.5723 223.265 6.60428C220.328 6.41786 218.752 5.89175 216.061 5.97034C215.685 5.85288 216.331 5.90101 216.602 5.83167C214.652 5.94677 213.869 5.53347 212.211 5.51818L212.183 5.61325C209.875 5.28322 207.095 5.42141 204.489 5.25579L204.798 5.32398C204.345 5.38938 203.886 5.43415 203.427 5.44475C203.361 5.39547 203.74 5.24647 202.985 5.27801C203.139 5.31551 203.462 5.35666 203.367 5.39562C201.127 5.11487 196.394 5.11522 192.715 4.95379C187.733 4.95559 182.329 4.72276 177.434 4.73329C178.182 4.73577 177.862 4.96123 177.297 4.90118C175.759 4.49209 174.633 4.93937 173.06 4.65936C170.206 4.75496 167.663 4.39934 165.016 4.68393L164.964 4.57345C164.654 4.55309 164.35 4.56021 164.046 4.60149L164.054 4.56747C163.07 4.5189 161.882 4.62311 161.316 4.56306L161.281 4.68531C160.694 4.69315 160.979 4.58995 160.378 4.65215L160.392 4.59095L159.696 4.70578C159.767 4.4886 158.052 4.67711 157.581 4.57128C156.826 4.60281 155.395 4.68811 154.25 4.63605C153.415 4.52236 152.58 4.46332 151.738 4.4588C149.991 4.48261 147.503 4.50408 145.286 4.45622L145.324 4.60057L144.744 4.60855C144.751 4.57454 144.677 4.55927 144.758 4.54735C144.309 4.38729 143.423 4.5937 142.952 4.48786C143.247 4.61725 143.357 4.51026 143.687 4.51739C144.164 4.58921 143.711 4.72294 143.065 4.64748L143.078 4.61361L142.639 4.68614C142.594 4.57581 142.19 4.51925 142.144 4.40891C140.236 4.42923 138.939 4.6131 136.971 4.55012C137.175 4.42467 135.555 4.57422 135.949 4.36403C134.768 4.44105 136.142 4.53906 135.607 4.69154C135.277 4.68441 134.932 4.74531 134.873 4.66885C135.028 4.61753 134.605 4.54005 134.875 4.51854L134.086 4.53568C134.012 4.52041 134.188 4.49003 134.269 4.47811C132.662 4.60063 131.412 4.33444 129.974 4.46059C129.865 4.54025 130.547 4.48662 130.445 4.5596C128.993 4.71279 129.159 4.42249 127.809 4.53004L128.087 4.42669C127.647 4.54021 127.188 4.57131 126.737 4.50691C126.611 4.38116 127.346 4.40385 127.691 4.34295C127.198 4.33916 125.944 4.36676 126.327 4.48437C125.949 4.50355 125.572 4.46807 125.195 4.37794C125.188 4.41195 125.747 4.46502 125.402 4.51909C124.594 4.44697 123.354 4.44753 122.37 4.43996C122.377 4.40594 122.31 4.36349 122.398 4.34489C121.607 4.51234 121.692 4.22713 120.599 4.25821" fill="#003383"/>
<path opacity="0.26" d="M68.1286 5.31688L68.5261 5.3337C68.5265 5.3047 68.5406 5.26876 68.7231 5.23689L68.1286 5.31688Z" fill="#003383"/>
<path opacity="0.26" d="M86.981 5.10619C87.0283 5.10001 87.0757 5.08649 87.1232 5.06563C87.0286 5.07799 86.9947 5.09184 86.981 5.10619Z" fill="#003383"/>
<path opacity="0.26" d="M91.563 4.80547C91.2389 4.83427 91.5283 4.8708 91.6896 4.90418C91.6967 4.88229 91.6905 4.84537 91.563 4.80547Z" fill="#003383"/>
<path opacity="0.26" d="M57.4549 5.88796C57.5225 5.87483 57.5633 5.85363 57.557 5.82385C57.462 5.85852 57.4416 5.87282 57.4549 5.88796Z" fill="#003383"/>
<path opacity="0.26" d="M27.9364 6.61048L28.0575 6.62771C28.0104 6.61941 27.9768 6.61144 27.9364 6.61048Z" fill="#003383"/>
<path opacity="0.26" d="M29.572 6.77432C29.6867 6.76986 29.7946 6.76525 29.9028 6.74631C29.795 6.74377 29.6869 6.75554 29.572 6.77432Z" fill="#003383"/>
<path opacity="0.26" d="M64.6105 5.69291C64.7117 5.6881 64.8197 5.6762 64.9213 5.64966C64.8134 5.64707 64.7121 5.65912 64.6105 5.69291Z" fill="#003383"/>
<path opacity="0.26" d="M30.2474 6.69706L30.6586 6.69952C30.6587 6.69241 30.6655 6.68547 30.6657 6.67126L30.2474 6.69706Z" fill="#003383"/>
<path opacity="0.26" d="M27.4106 6.60632C27.5725 6.60298 27.7882 6.60085 27.9296 6.61091C27.7615 6.58641 27.5863 6.58252 27.4106 6.60632Z" fill="#003383"/>
<path opacity="0.26" d="M46.6214 6.32611L46.6687 6.31996C46.9864 6.26206 46.7838 6.2863 46.6214 6.32611Z" fill="#003383"/>
<path opacity="0.26" d="M32.0383 6.41023L32.0922 6.41154L32.2142 6.37064L32.0383 6.41023Z" fill="#003383"/>
<path opacity="0.26" d="M25.6308 6.61079C25.6983 6.60516 25.7658 6.59952 25.8335 6.57935L25.5978 6.56639C25.6244 6.58884 25.6309 6.60353 25.6308 6.61079Z" fill="#003383"/>
<path opacity="0.26" d="M40.4336 6.2714C40.3181 6.32778 40.2771 6.3638 40.27 6.38584C40.4117 6.38195 40.4997 6.35452 40.4336 6.2714Z" fill="#003383"/>
</g>
</g>
</g>
</g>
</g>
<defs>
<clipPath id="clip0_1_904">
<rect width="235" height="15" fill="white"/>
</clipPath>
</defs>
</svg>
