<svg width="255" height="24" viewBox="0 0 255 24" fill="none" xmlns="http://www.w3.org/2000/svg">
<g clip-path="url(#clip0_1_912)">
<path d="M216.588 6.14481C216.611 6.12333 216.625 6.08959 216.633 6.05524C216.596 6.08716 216.588 6.12151 216.588 6.14481Z" fill="#F2304B"/>
<path d="M196.864 5.6486L197.091 5.61544C197.018 5.61013 196.937 5.62414 196.864 5.6486Z" fill="#F2304B"/>
<path d="M228.407 6.41643C228.399 6.42139 228.385 6.42075 228.377 6.42572L229.211 6.46224L228.407 6.41643Z" fill="#F2304B"/>
<path d="M154.792 5.8565L155.056 5.85662C154.968 5.85917 154.88 5.85394 154.792 5.8565Z" fill="#F2304B"/>
<path d="M179.724 5.73574C179.614 5.76761 179.504 5.77955 179.387 5.78099C179.504 5.80945 179.621 5.78808 179.724 5.73574Z" fill="#F2304B"/>
<path d="M234.647 8.61089L234.309 8.45806C234.309 8.52159 234.434 8.58405 234.647 8.61089Z" fill="#F2304B"/>
<path d="M246.625 8.20229C246.618 8.19036 246.603 8.17784 246.596 8.16592C246.581 8.1874 246.596 8.19992 246.625 8.20229Z" fill="#F2304B"/>
<path d="M241.95 7.57233C241.847 7.57468 241.73 7.58557 241.613 7.60602C241.752 7.60624 241.935 7.61912 241.95 7.57233Z" fill="#F2304B"/>
<path d="M241.451 7.64484L241.613 7.62732C241.525 7.6211 241.452 7.62555 241.451 7.64484Z" fill="#F2304B"/>
<path d="M2.07746 14.5998C1.71804 14.6243 1.35852 14.7 1.01361 14.8179L2.07746 14.5998Z" fill="#F2304B"/>
<path d="M116.71 7.15887L116.784 7.10901C116.711 7.11431 116.696 7.13542 116.71 7.15887Z" fill="#F2304B"/>
<path d="M1.67633 15.8605L1.42028 15.8539C1.50075 15.858 1.58852 15.8624 1.67633 15.8605Z" fill="#F2304B"/>
<path d="M228.3 8.98795C227.955 9.07862 227.246 8.91931 227.253 9.02416C227.611 9.02142 228.131 9.12485 228.3 8.98795Z" fill="#F2304B"/>
<path d="M108.744 12.846L108.517 12.8482C108.627 12.8469 108.692 12.8509 108.744 12.846Z" fill="#F2304B"/>
<path d="M1.67632 15.8417L1.97677 15.8534C1.94749 15.8318 1.91822 15.8101 1.8816 15.7977C1.80827 15.8218 1.74229 15.8366 1.67632 15.8417Z" fill="#F2304B"/>
<path d="M77.0579 8.96255L77.0726 8.96365L77.1534 8.93843L77.0579 8.96255Z" fill="#F2304B"/>
<path d="M74.9525 8.81839L75.3994 8.78387C75.2456 8.77327 75.0991 8.78184 74.9525 8.81839Z" fill="#F2304B"/>
<path d="M1.01354 14.8954L0.419148 15.0264C0.617249 14.9999 0.815384 14.9528 1.01354 14.8954Z" fill="#F2304B"/>
<path d="M52.2894 10.2918L52.4945 10.2782C52.4286 10.2737 52.3554 10.2779 52.2894 10.2918Z" fill="#F2304B"/>
<path d="M181.325 5.76161L181.508 5.79375C181.53 5.76647 181.516 5.74622 181.325 5.76161Z" fill="#F2304B"/>
<path d="M166.523 9.72134C166.237 9.70054 165.958 9.74013 165.687 9.85009C165.973 9.86091 166.259 9.82185 166.523 9.72134Z" fill="#F2304B"/>
<path d="M163.895 9.86185L163.997 9.87666C163.96 9.87435 163.931 9.86416 163.895 9.86185Z" fill="#F2304B"/>
<path d="M180.721 9.75543L180.721 9.74388C180.713 9.74328 180.713 9.75483 180.713 9.75483L180.721 9.75543Z" fill="#F2304B"/>
<path d="M177.392 9.8423C177.319 9.81821 177.238 9.7936 177.157 9.78797C177.238 9.82207 177.311 9.83667 177.392 9.8423Z" fill="#F2304B"/>
<path d="M155.607 10.5046L155.593 10.4923L155.607 10.5046Z" fill="#F2304B"/>
<path d="M124.233 12.1737C127.38 12.1637 131.457 12.0714 134.589 12.1728C135.46 12.0382 136.353 11.9819 137.246 12.0028L137.362 12.2335L138.189 12.1736C138.526 12.2481 137.552 12.2018 138.152 12.2978L138.46 12.1604C138.526 12.2411 140.597 12.2493 139.206 12.3905L142.433 12.448C143.15 12.4662 142.844 12.2671 143.634 12.3384C143.794 12.4103 143.355 12.3793 143.421 12.46C145.799 12.6673 146.145 12.0693 148.355 12.2113L148.164 12.2359C148.538 12.1793 149.255 12.2045 149.262 12.1698C148.97 11.9365 148.867 12.2814 148.194 12.1394C148.246 11.946 149.028 12.0519 148.978 11.9019C149.402 11.9392 149.827 11.9273 150.251 11.8805C151.026 12.0211 152.124 11.955 152.709 12.1202C153.229 11.9874 153.764 11.9115 154.306 11.8991C154.89 12.0643 154.173 12.0391 154.963 12.1174L155.088 12.0121C155.732 12.0403 155.637 12.0702 155.615 12.125C156.091 12.0669 156.574 12.0513 157.057 12.0778L156.573 12.1775C157.217 12.1497 157.474 12.1707 158.374 12.2059C158.359 12.2682 158 12.2556 157.737 12.2342C158.226 12.4082 158.564 12.1813 158.827 12.2027C158.754 12.1497 158.132 12.1156 158.433 12.0129C158.879 12.0443 159.37 11.8819 159.692 12.0187L159.208 12.1184C159.713 12.0269 160.241 12.0067 160.76 12.0562C160.701 12.06 160.731 12.0896 160.708 12.1164C161.55 12.0574 162.407 12.0762 163.255 12.1717L163.065 12.1963C163.467 12.1693 163.68 12.0758 163.899 12.0878C163.329 12.0075 163.483 11.9809 163.432 11.8729C164.185 12.0754 164.567 11.6827 165.796 11.8201C165.781 11.8824 165.488 11.9575 165.144 11.8826C164.792 12.1157 164.382 12.2614 163.943 12.2935C164.404 12.2626 164.953 12.2436 164.835 12.3213L164.975 12.1467C165.253 12.1479 165.48 12.1673 165.692 12.1649C165.81 12.0592 165.122 11.9725 165.766 11.9096C166.498 11.8655 166.161 12.0994 166.271 12.0213C167.281 11.9715 166.681 11.8405 167.654 11.9218C167.537 11.9434 167.413 11.9507 167.288 11.9438C167.983 12.031 169.001 11.9465 169.205 12.1679C169.095 12.246 168.956 12.2805 168.824 12.2522L168.832 12.2176C168.07 12.3582 169.468 12.1894 169.234 12.3798C169.175 12.2645 170.156 12.3181 170.595 12.3492L170.449 12.215C171.907 11.8672 170.375 12.4703 171.824 12.4585C172.746 12.3968 171.473 12.4113 172.037 12.337C172.622 12.4251 173.214 12.4715 173.807 12.4689C174.063 12.525 174.583 12.6095 174.633 12.7595C175.299 12.796 175.965 12.7904 176.631 12.7357C175.68 12.5855 175.694 12.8667 174.582 12.6446L174.89 12.5142C175.659 12.5422 176.632 12.4974 177.166 12.5617C177.056 12.5276 177.013 12.4902 177.079 12.4658C177.891 12.3911 178.718 12.3592 179.545 12.3765C179.691 12.5106 179.069 12.4696 178.616 12.4728C179.208 12.5403 179.801 12.5727 180.394 12.5701C180.452 12.6855 179.676 12.5449 179.559 12.6506L180.737 12.645C180.73 12.6516 180.737 12.659 180.737 12.666C180.906 12.479 181.637 12.7083 182.355 12.6704C183.342 12.6895 184.316 12.5815 185.254 12.3384C185.51 12.3945 185.583 12.4476 185.48 12.491C185.063 12.3981 185.136 12.4652 184.99 12.5062C185.568 12.5028 186.255 12.7297 185.933 12.7962C186.848 12.7622 185.604 12.6871 186.16 12.6404L187.412 12.6879C187.258 12.5884 186.819 12.5503 187.463 12.4944C188.012 12.4824 188.276 12.5109 188.986 12.5357C188.883 12.5792 189.212 12.6883 188.678 12.6661C189.043 12.7282 189.417 12.7205 189.768 12.6416C188.986 12.5287 191.049 12.5926 190.464 12.4274L191.247 12.5403C191.071 12.5307 191.049 12.5996 190.786 12.5712C191.012 12.7238 191.423 12.5499 191.693 12.5437C192.045 12.563 192.396 12.6102 192.747 12.6785C193.069 12.6471 193.398 12.6791 193.712 12.7734C194.078 12.7584 193.742 12.6769 193.845 12.6335L195.096 12.6879C195.161 12.7756 195.27 12.9989 195.087 13.024C195.556 12.9655 195.249 12.7875 195.966 12.8197C195.563 12.9659 196.91 12.9695 196.324 13.1407C197.063 13.2723 197.809 13.3202 198.541 13.2831C198.936 13.1716 197.846 13.189 197.883 13.0648C199.691 13.0797 199.794 12.7278 201.119 12.8283L200.775 12.7815C201.185 12.7829 201.595 12.7422 201.99 12.6587C201.763 12.8075 202.94 13.1173 204.294 13.1283C204.404 13.0502 203.533 12.9535 203.753 12.8324L204.653 12.8396C204.719 12.8572 204.617 12.8796 204.507 12.8946C205.312 12.8616 206.013 13.1524 206.248 12.9689L207.074 13.2315L206.745 13.1223C207.141 13.0599 207.543 13.0328 207.953 13.0272C208.539 12.9681 209.139 13.015 209.724 13.1662C209.563 13.0943 209.161 12.9321 209.886 12.9297C209.885 13.189 211.415 13.0765 211.392 13.2085C211.685 13.2175 212.212 13.3164 212.241 13.2129L212.197 13.3717C212.263 13.151 213.332 13.2025 214.151 13.1913C213.967 13.4896 215.052 13.2055 215.424 13.4923C215.578 13.2904 216.88 13.4668 217.02 13.2992C217.649 13.3126 217.59 13.5057 217.751 13.5776L218.044 13.5095C218.365 13.6182 219.551 13.6761 220.26 13.771L220.912 13.6104L221.153 13.7007C221.256 13.6573 221.805 13.6523 221.461 13.5704L221.812 13.5966C221.842 13.402 222.31 13.5608 223.02 13.5015C223.189 13.5387 223.144 13.5854 222.991 13.605C223.342 13.6243 223.195 13.7144 223.393 13.7883C223.137 13.7252 224.667 13.4795 223.709 13.3499C223.643 13.2692 224.2 13.2296 224.551 13.2768L224.762 13.4637L225.18 13.2902C225.59 13.3127 225.999 13.3701 226.402 13.4482C225.948 13.4444 225.398 13.7508 226.569 13.7939C226.152 13.8061 225.742 13.8397 225.339 13.9088C225.58 13.9291 225.705 13.9499 225.324 14.0062C226.239 13.9861 225.632 13.9108 226.532 13.9181C226.48 14.0765 226.736 14.1395 227.526 14.2248L226.934 14.0873C226.97 14.0682 227.007 14.0562 227.044 14.0442C226.817 14.0178 226.758 13.9865 226.707 13.9277C226.883 13.9373 227.754 13.7677 227.9 13.8738C226.987 13.5854 229.482 13.743 228.904 13.5712C229.168 13.5226 229.446 13.5448 229.702 13.6289C228.947 13.7208 230.272 13.8354 230.147 13.9407C230.425 13.9069 229.555 13.7961 229.928 13.7535C230.279 13.7727 230.623 13.8266 230.959 13.9291L230.769 13.9537L231.464 14.0548C231.574 13.9767 230.791 13.8848 231.428 13.8776C231.596 13.9219 232.24 13.9081 232.218 13.9699C231.91 14.0653 232.137 14.2249 231.588 14.2229C232.041 14.2337 233.483 14.2846 232.898 14.1053L233.44 14.135C233.103 14.0535 232.152 13.8822 233.235 13.9135L233.228 13.9551L233.982 13.8702L234.311 13.9724C234.304 13.9299 234.421 13.9013 234.699 13.9165C234.772 13.9696 235.035 13.998 235.013 14.0599C235.826 14.0903 235.76 14.0026 235.863 13.9662C236.316 13.977 236.484 14.0142 236.272 14.1007C236.982 14.1256 237.691 14.1925 238.401 14.2874C239.235 14.2559 238.233 14.2431 238.716 14.1574C239.432 14.47 241.46 14.3987 242.813 14.4238C242.441 14.158 243.187 14.4162 243.429 14.1981C243.136 14.2592 244.716 14.4508 243.531 14.463L244.255 14.4746C244.752 14.6351 243.055 14.5211 243.808 14.7376C244.569 14.6601 245.338 14.6321 246.106 14.6601C245.783 14.8177 246.845 14.6375 246.603 14.8135C246.361 14.8493 246.12 14.8571 245.871 14.8365L246.039 14.8808C247.817 15.0132 246.552 14.6985 247.489 14.6237C248.572 14.6549 248.345 14.8037 248.41 14.8844C248.747 14.9238 249.076 14.9278 249.413 14.8902C248.754 14.9663 248.191 14.7252 248.492 14.6295C249.121 14.7831 249.772 14.7907 250.395 14.6565C248.844 14.3753 249.319 14.5976 247.871 14.301C247.673 14.3533 247.702 14.5301 246.831 14.4194C247.38 14.3583 246.795 14.3193 246.642 14.2828C246.809 14.3901 246.034 14.2986 245.77 14.3263C245.529 14.2289 246.291 14.1164 245.406 14.0329L245.236 14.269C244.893 14.2151 245.383 14.1018 244.644 14.1244C245.04 14.0199 244.52 13.9213 245.523 13.9342C244.331 13.6726 243.701 13.9606 242.771 14.0008C242.866 13.992 242.874 13.9574 242.969 13.9486C242.698 13.9898 242.42 14.0026 242.142 13.9804C241.535 13.8981 242.625 13.8947 242.464 13.8228L241.477 13.7827C241.455 13.7745 241.455 13.7675 241.455 13.7675C241.257 13.8058 241.052 13.7946 240.855 13.7347C241.148 13.6736 241.265 13.5959 241.463 13.5436L240.43 13.6624C240.54 13.5913 239.575 13.4824 240.314 13.4597L238.777 13.4177L238.646 13.2492C238.28 13.2643 238.265 13.2915 238.712 13.33C238.185 13.2661 236.384 13.504 236.663 13.1968C235.455 13.2709 235.024 13.1982 233.567 13.2096C234.687 13.1167 232.28 12.9568 233.466 12.9446C232.998 12.912 232.529 12.9284 232.075 13.0087C231.563 12.9176 231.791 12.7688 232.347 12.7362L231.695 12.7776L231.71 12.7434L231.146 12.8107C230.547 12.7007 231.023 12.6426 230.401 12.5946L230.268 12.7346L229.844 12.6342C230.005 12.7061 229.632 12.7207 229.185 12.7173L229.193 12.6827L228.644 12.6877C229.186 12.6192 228.146 12.6394 228.388 12.5405C227.92 12.5149 227.913 12.5145 227.064 12.51L227.21 12.6162C226.104 12.6608 227.159 12.4662 226.266 12.4243L226.324 12.5397C225.037 12.301 224.143 12.5605 223.185 12.4029C223.734 12.3979 223.588 12.2637 223.581 12.2914C222.761 12.3026 221.422 12.2152 220.58 12.3234C220.193 12.0989 219.754 11.9837 219.323 11.9881C218.693 11.9747 218.598 11.9835 218.393 12.0704C217.793 12.0656 217.193 12.0118 216.593 11.9158C216.454 12.0064 216.037 11.8714 215.707 11.9445L215.635 11.8914L215.693 12.0068C214.603 11.7088 213.855 12.0744 212.751 11.8177L212.942 11.7931L212.48 11.8169C212.407 11.7638 212.591 11.7388 212.613 11.6769L210.461 11.5732L210.886 11.6735C210.468 11.7208 210.036 11.7182 209.612 11.6809C210.469 11.5385 208.895 11.6487 208.756 11.5149L209.218 11.484C208.588 11.4706 208.588 11.4706 208.639 11.5856C207.819 11.5968 208.076 11.3515 207.322 11.4504L207.864 11.473C208.025 11.5449 207.636 11.6218 207.278 11.6092C207.19 11.5904 206.941 11.5277 207.212 11.5215C206.568 11.5423 205.602 11.4544 205.317 11.4878C204.966 11.4406 205.083 11.3629 205.266 11.3378C203.89 11.3957 204.644 11.2968 203.268 11.3476L203.29 11.2858L202.8 11.3711L202.12 11.2147L202.361 11.305C201.944 11.3242 201.519 11.315 201.102 11.2852L201.315 11.1986C200.041 11.2131 199.837 10.9916 198.629 11.0867C198.549 11.0683 198.732 11.0432 198.827 11.0274C197.707 11.1414 197.972 10.8264 196.851 10.9753C196.917 10.9439 196.793 10.902 196.837 10.8764L196.325 10.9185L196.362 10.7943L195.944 10.9677L195.622 10.831L195.424 10.8832C194.877 10.6219 194.1 10.7827 193.347 10.5732L193.478 10.7416C191.589 11.0098 189.14 10.413 186.849 10.5119L186.886 10.3877L185.941 10.5113C185.429 10.3991 186.242 10.4086 186.081 10.3367C185.071 10.3795 185.663 10.5171 184.492 10.5231C183.892 10.4202 184.697 10.4362 184.983 10.3957C183.819 10.4512 182.648 10.4432 181.477 10.3651C181.463 10.3783 181.411 10.4035 181.455 10.4129C180.723 10.45 179.75 10.3687 178.938 10.3523C178.953 10.297 179.158 10.2872 179.355 10.284C179.041 10.2457 178.726 10.2425 178.419 10.2677L178.719 10.165C178.068 10.1924 177.409 10.1564 176.758 10.0577C176.831 10.1107 176.809 10.2077 176.267 10.185C175.968 9.97937 174.803 10.2311 173.94 10.0997C174.043 10.0563 174.672 10.0627 174.497 10.0531C174.094 10.017 173.692 10.044 173.296 10.1205L173.414 10.0428L171.408 10.1013C171.109 9.89564 169.513 10.0817 169.645 9.94169C168.928 9.91645 170.252 10.045 169.344 10.0444C169.103 9.9541 168.525 10.0696 168.562 9.93848L168.657 9.92266L168.02 9.91585L168.416 9.7973C167.874 9.80971 167.471 9.92786 167.449 10.0248C166.951 10.0046 166.454 9.95629 165.957 9.86597L166.147 9.84134C164.698 9.86016 163.733 9.44282 162.598 9.63306C162.511 9.61424 162.525 9.57999 162.701 9.58961L161.801 9.56837L162.013 9.47486L160.535 9.5902L160.55 9.52792C159.569 9.48125 158.039 9.48165 156.773 9.47543L156.964 9.4508C155.588 9.52269 155.632 9.36388 154.629 9.40713C154.659 9.39472 154.695 9.3827 154.732 9.38471L153.824 9.37008L154.022 9.31081C153.517 9.32522 153.02 9.29098 152.515 9.21428C152.127 9.24211 151.746 9.30539 151.38 9.40452C150.392 9.3925 151.139 9.3142 150.524 9.25252C149.924 9.28275 149.324 9.28495 148.717 9.25872L148.731 9.19644C148.278 9.19964 147.999 9.24049 147.37 9.23408L147.56 9.20945C146.535 9.3286 146.273 8.99877 145.474 9.26351C145.043 9.20483 144.223 9.23006 144.26 9.09889C142.979 9.16197 141.984 9.17758 140.718 9.21342C140.506 8.99854 140.447 9.21963 139.672 9.08605L139.73 9.2014C137.929 9.18697 135.852 8.86996 133.869 8.88056L133.811 8.76521L133.415 8.88376C131.278 8.79484 128.512 8.69951 126.807 8.66926C126.053 8.76818 125.292 8.81063 124.523 8.7896L124.619 8.77378C123.081 8.81583 121.449 8.84566 119.766 8.75353C119.869 8.71008 119.701 8.67283 119.884 8.64079C119.437 8.70046 118.984 8.69666 118.537 8.62316L118.962 8.71648C118.493 8.78897 118.01 8.75553 117.549 8.61815L116.795 8.73109C116.744 8.72128 116.664 8.70285 116.656 8.68143L116.524 8.7373L116.115 8.5817C115.61 8.59611 115.112 8.65999 114.621 8.77334C114.548 8.72027 113.839 8.67441 114.388 8.65538L111.622 8.57407L112.053 8.63274C112.111 8.74809 111.284 8.80796 110.853 8.74929C111.409 8.66758 110.89 8.59008 110.649 8.49977C110.275 8.55644 110.977 8.6019 110.787 8.66157C110.223 8.73587 109.645 8.74628 109.067 8.70062L109.345 8.65977C108.708 8.69501 108.402 8.48894 107.772 8.48954C107.209 8.57084 106.784 8.48453 106.908 8.68058C106.088 8.71282 106.587 8.5438 106.323 8.52237C105.767 8.59707 105.196 8.56583 104.64 8.43726C104.2 8.72162 102.423 8.30888 102.269 8.54579L101.589 8.4034C101.574 8.46568 101.441 8.61267 100.9 8.63209C100.381 8.55459 100.498 8.44184 100.345 8.37736L100.007 8.61126C97.0295 8.32207 93.1283 8.45202 89.8651 8.20329C88.4159 8.23612 86.5933 8.33264 84.9029 8.28217L85.086 8.25013L83.403 8.17202L84.6321 8.28837C84.2661 8.3104 83.9805 8.35786 83.6292 8.35265C81.427 8.19003 79.2316 8.13996 77.0358 8.20203C75.5785 8.46576 76.0487 7.9517 74.6429 8.14114C74.7601 8.11951 74.8041 8.07986 74.914 8.05082C73.3988 8.12912 72.579 8.16836 71.0635 8.31675C71.2255 8.0452 70.0756 8.31174 70.2005 8.17136L70.0757 8.2837C69.7319 8.21581 68.9343 8.18617 69.0444 8.10807L68.3779 8.23984L68.3125 8.12409C67.4197 8.11027 65.5166 8.19537 65.0344 7.95866C62.8383 8.11886 59.3549 8.04735 56.5888 7.98706C55.9884 8.06636 55.3808 8.1032 54.7661 8.08357L54.086 7.94119C53.4563 8.03991 52.8194 8.08216 52.1755 8.06093C52.1755 8.04691 52.2048 8.0345 52.2414 8.02949C51.6122 8.00205 50.9827 8.03069 50.3603 8.10178C49.6432 8.09056 48.9482 8.01746 49.1608 7.89591C49.1015 8.11699 47.646 7.86206 47.646 7.86206C47.646 7.86206 38.4839 7.70401 28.2014 7.71598C17.9115 7.73455 6.51594 7.93095 2.07117 8.606C1.73411 8.72074 0.818922 8.82487 1.19905 8.94383C0.503554 9.01091 0.123626 8.83588 0.0134396 8.94903C0.986681 8.98127 -0.185211 9.2396 0.765825 9.34073L0.194792 9.3936C0.0993661 9.4725 0.949004 9.28066 0.846033 9.42224L0.963892 9.21137C1.27131 9.20015 1.57852 9.24501 1.87827 9.33152C2.3914 9.10023 2.9699 9.00571 3.55514 9.0728L3.27699 9.08562C4.08941 9.067 3.78148 9.21839 3.95701 9.24903L3.77406 9.24602L4.46895 9.34716C3.94957 9.28367 3.09998 9.4615 3.54647 9.44388C4.51966 9.49014 3.2905 9.39481 4.01514 9.36438C4.46895 9.34716 4.34413 9.4595 4.32924 9.52879L5.13435 9.50977C5.11204 9.60669 4.6001 9.50856 4.93641 9.60409L5.94676 9.49115C6.1508 9.73366 7.045 9.36199 7.52719 9.59168C6.79513 9.64976 7.60008 9.67279 7.48271 9.75049L9.27581 9.72947C9.44403 9.75971 8.80714 9.80897 9.07797 9.79575C9.32672 9.81638 9.57563 9.79495 9.81005 9.73067C9.97083 9.79556 11.1494 9.71987 11.1122 9.88608C12.334 9.98802 11.6106 9.67501 12.752 9.76553C12.9053 9.86506 11.8517 9.79336 12.3636 9.89149L13.5494 9.84424C13.3587 9.95998 13.1243 10.0102 12.8902 9.98341C16.0807 10.095 17.8279 10.6182 20.7265 10.4825C21.1432 10.5964 20.4335 10.5646 20.1478 10.6401C22.2488 10.4817 23.1255 10.8942 24.9186 10.8732L24.9482 10.7767C27.4647 11.0757 30.4659 10.9035 33.305 11.0238L32.9613 10.956C33.4446 10.8773 33.9424 10.8344 34.4328 10.8122C34.5058 10.8582 34.1101 11.0188 34.9226 10.9792C34.7471 10.9415 34.4032 10.9087 34.5058 10.8582C36.9493 11.1042 42.0724 11.0621 46.0678 11.1967C51.4618 11.1345 57.3304 11.3576 62.6291 11.3252C61.824 11.3302 62.1542 11.0889 62.7614 11.1501C64.4505 11.5651 65.6451 11.0977 67.3639 11.3811C70.4454 11.2623 73.2178 11.6454 76.0803 11.3535L76.1385 11.4688C76.475 11.4872 76.8044 11.4772 77.1339 11.4392L77.1264 11.4738C78.1948 11.5253 79.4759 11.4202 80.0904 11.4818L80.1202 11.3503C80.7496 11.3427 80.4564 11.4528 81.1007 11.3829L81.0858 11.4452L81.8327 11.3319C81.7734 11.5529 83.6183 11.3665 84.1302 11.4717C84.95 11.4394 86.4945 11.3557 87.7385 11.4098C88.6455 11.5295 89.5601 11.5936 90.4675 11.6083C92.3557 11.5995 95.0563 11.5931 97.4638 11.6618L97.4131 11.5188L98.0425 11.5182C98.0351 11.5528 98.1228 11.5646 98.0276 11.5805C98.5247 11.7549 99.4768 11.5476 99.9814 11.6524C99.6599 11.5156 99.5424 11.6283 99.1838 11.6227C98.6645 11.5452 99.1553 11.4108 99.8503 11.4909L99.8355 11.5252L100.304 11.4527C100.362 11.5681 100.794 11.6267 100.859 11.7355C102.923 11.7293 104.329 11.5539 106.458 11.6284C106.246 11.7499 107.988 11.6139 107.57 11.8294C108.851 11.7663 107.351 11.6492 107.93 11.4986C108.288 11.5112 108.662 11.4545 108.727 11.5352C108.559 11.5891 109.027 11.6708 108.734 11.6898L109.59 11.6876C109.671 11.7061 109.488 11.7311 109.393 11.7469C111.135 11.646 112.488 11.9374 114.047 11.8264C114.157 11.7483 113.425 11.7924 113.535 11.7143C115.102 11.5757 114.932 11.8749 116.396 11.7868L116.096 11.8895C116.565 11.775 117.062 11.7532 117.552 11.8291C117.698 11.9632 116.893 11.9262 116.52 11.9829C117.054 11.9981 118.408 11.9811 117.991 11.8601C118.401 11.8475 118.811 11.8909 119.22 11.9835C119.228 11.9488 118.621 11.8875 118.994 11.8309C119.872 11.914 121.219 11.9316 122.287 11.9621C122.28 11.9967 122.353 12.0428 122.265 12.059C123.129 11.91 123.047 12.2 124.233 12.1737Z" fill="#F2304B"/>
<path d="M181.159 9.80653L180.727 9.76542C180.727 9.80496 180.712 9.85332 180.507 9.88792L181.159 9.80653Z" fill="#F2304B"/>
<path d="M160.71 10.1398C160.658 10.1465 160.607 10.1639 160.555 10.1921C160.658 10.1786 160.688 10.1595 160.71 10.1398Z" fill="#F2304B"/>
<path d="M155.745 10.656C156.098 10.6185 155.782 10.5616 155.606 10.5048C155.598 10.5474 155.606 10.5912 155.745 10.656Z" fill="#F2304B"/>
<path d="M192.733 8.98273C192.659 8.99926 192.615 9.02935 192.622 9.06355C192.726 9.03816 192.748 9.00631 192.733 8.98273Z" fill="#F2304B"/>
<path d="M224.752 8.94593L224.628 8.9066C224.672 8.92995 224.708 8.9427 224.752 8.94593Z" fill="#F2304B"/>
<path d="M222.978 8.61085C222.854 8.60279 222.736 8.61249 222.619 8.62218C222.744 8.63024 222.861 8.62918 222.978 8.61085Z" fill="#F2304B"/>
<path d="M184.977 9.21878C184.867 9.22071 184.749 9.23193 184.639 9.26335C184.757 9.27178 184.867 9.2502 184.977 9.21878Z" fill="#F2304B"/>
<path d="M222.253 8.69658L221.807 8.66096C221.799 8.66863 221.799 8.67675 221.799 8.69299L222.253 8.69658Z" fill="#F2304B"/>
<path d="M225.315 8.98403C225.14 8.97436 224.905 8.96147 224.752 8.94595C224.942 8.98466 225.132 8.99513 225.315 8.98403Z" fill="#F2304B"/>
<path d="M204.485 8.58443L204.434 8.59074C204.097 8.64657 204.309 8.62188 204.485 8.58443Z" fill="#F2304B"/>
<path d="M220.296 9.0564L220.237 9.04187L220.105 9.08305L220.296 9.0564Z" fill="#F2304B"/>
<path d="M227.245 9.07304C227.172 9.06768 227.099 9.08237 227.025 9.09706L227.282 9.13583C227.252 9.10363 227.253 9.08359 227.245 9.07304Z" fill="#F2304B"/>
<path d="M211.191 8.8228C211.316 8.754 211.361 8.70123 211.368 8.66803C211.221 8.66749 211.125 8.69361 211.191 8.8228Z" fill="#F2304B"/>
<g opacity="0.26">
<g opacity="0.26">
<g opacity="0.26">
<g opacity="0.26">
<path opacity="0.26" d="M216.588 6.14473C216.611 6.12331 216.625 6.08963 216.633 6.05533C216.596 6.08714 216.588 6.12145 216.588 6.14473Z" fill="#F2304B"/>
<path opacity="0.26" d="M196.864 5.64831L197.091 5.61574C197.018 5.61033 196.937 5.62412 196.864 5.64831Z" fill="#F2304B"/>
<path opacity="0.26" d="M228.406 6.41644C228.399 6.4213 228.385 6.42066 228.377 6.42552L229.211 6.46223L228.406 6.41644Z" fill="#F2304B"/>
<path opacity="0.26" d="M154.792 5.85631L155.056 5.8568C154.968 5.8592 154.88 5.85391 154.792 5.85631Z" fill="#F2304B"/>
<path opacity="0.26" d="M179.724 5.73619C179.614 5.76768 179.504 5.77936 179.387 5.78059C179.504 5.80908 179.621 5.78804 179.724 5.73619Z" fill="#F2304B"/>
<path opacity="0.26" d="M234.647 8.61089L234.309 8.45806C234.309 8.52133 234.434 8.58377 234.647 8.61089Z" fill="#F2304B"/>
<path opacity="0.26" d="M246.625 8.20229C246.618 8.19037 246.603 8.17785 246.596 8.16593C246.581 8.18734 246.596 8.19987 246.625 8.20229Z" fill="#F2304B"/>
<path opacity="0.26" d="M241.95 7.57273C241.847 7.57489 241.73 7.58551 241.613 7.60562C241.752 7.60608 241.935 7.61917 241.95 7.57273Z" fill="#F2304B"/>
<path opacity="0.26" d="M241.451 7.64464L241.613 7.62751C241.525 7.62118 241.451 7.62548 241.451 7.64464Z" fill="#F2304B"/>
<path opacity="0.26" d="M2.07742 14.6013C1.71801 14.625 1.35849 14.6998 1.01357 14.8164L2.07742 14.6013Z" fill="#F2304B"/>
<path opacity="0.26" d="M116.71 7.15874L116.784 7.10915C116.711 7.11429 116.696 7.13532 116.71 7.15874Z" fill="#F2304B"/>
<path opacity="0.26" d="M1.6763 15.8606L1.42025 15.8538C1.50071 15.8579 1.58849 15.8623 1.6763 15.8606Z" fill="#F2304B"/>
<path opacity="0.26" d="M228.3 8.98894C227.955 9.07821 227.245 8.9193 227.253 9.02317C227.611 9.02102 228.131 9.12428 228.3 8.98894Z" fill="#F2304B"/>
<path opacity="0.26" d="M108.744 12.8461L108.517 12.8481C108.627 12.8469 108.692 12.851 108.744 12.8461Z" fill="#F2304B"/>
<path opacity="0.26" d="M1.67633 15.8413L1.97676 15.8534C1.9475 15.8319 1.91823 15.8104 1.88161 15.798C1.80828 15.8218 1.74229 15.8364 1.67633 15.8413Z" fill="#F2304B"/>
<path opacity="0.26" d="M77.0579 8.96241L77.0726 8.96354L77.1533 8.93857L77.0579 8.96241Z" fill="#F2304B"/>
<path opacity="0.26" d="M74.9525 8.81789L75.3994 8.78438C75.2456 8.7736 75.0991 8.78186 74.9525 8.81789Z" fill="#F2304B"/>
<path opacity="0.26" d="M1.01352 14.8963L0.41913 15.0255C0.617227 14.9995 0.815363 14.953 1.01352 14.8963Z" fill="#F2304B"/>
<path opacity="0.26" d="M52.2894 10.2916L52.4946 10.2784C52.4287 10.2739 52.3554 10.2779 52.2894 10.2916Z" fill="#F2304B"/>
<path opacity="0.26" d="M181.325 5.76151L181.508 5.79374C181.53 5.76669 181.516 5.74655 181.325 5.76151Z" fill="#F2304B"/>
<path opacity="0.26" d="M166.523 9.72244C166.237 9.70127 165.958 9.74014 165.687 9.84898C165.973 9.86024 166.258 9.82191 166.523 9.72244Z" fill="#F2304B"/>
<path opacity="0.26" d="M163.895 9.86185L163.997 9.87666C163.96 9.87432 163.931 9.86419 163.895 9.86185Z" fill="#F2304B"/>
<path opacity="0.26" d="M180.721 9.75543L180.721 9.74389C180.713 9.74328 180.713 9.75482 180.713 9.75482L180.721 9.75543Z" fill="#F2304B"/>
<path opacity="0.26" d="M177.392 9.8423C177.319 9.81825 177.238 9.79369 177.157 9.78797C177.238 9.82195 177.311 9.83657 177.392 9.8423Z" fill="#F2304B"/>
<path opacity="0.26" d="M155.607 10.5046L155.593 10.4923L155.607 10.5046Z" fill="#F2304B"/>
<path opacity="0.26" d="M124.233 12.1645C127.38 12.1588 131.457 12.0731 134.589 12.1772C135.46 12.0456 136.353 11.9913 137.246 12.013L137.362 12.2406L138.189 12.1827C138.526 12.2566 137.552 12.2097 138.152 12.305L138.46 12.17C138.526 12.2497 140.597 12.2605 139.206 12.3978L142.433 12.4587C143.15 12.4776 142.843 12.281 143.634 12.3523C143.794 12.4234 143.355 12.3922 143.421 12.4719C145.799 12.6794 146.145 12.0903 148.355 12.2331L148.164 12.2572C148.538 12.2018 149.255 12.2276 149.262 12.1935C148.97 11.9631 148.867 12.3029 148.194 12.1621C148.246 11.9714 149.028 12.0769 148.978 11.9289C149.402 11.9662 149.827 11.9551 150.251 11.9095C151.026 12.0491 152.124 11.9854 152.709 12.149C153.229 12.0188 153.764 11.9447 154.306 11.9332C154.89 12.0968 154.173 12.071 154.963 12.1492L155.088 12.0455C155.732 12.0742 155.637 12.1035 155.615 12.1576C156.091 12.101 156.574 12.0862 157.057 12.1129L156.573 12.2106C157.217 12.184 157.474 12.205 158.374 12.241C158.359 12.3024 158 12.2895 157.737 12.268C158.226 12.4402 158.564 12.2169 158.827 12.2384C158.754 12.186 158.132 12.1516 158.433 12.0507C158.879 12.0823 159.37 11.9228 159.692 12.0581L159.208 12.1558C159.714 12.0662 160.241 12.047 160.76 12.0964C160.701 12.1001 160.731 12.1294 160.708 12.1558C161.55 12.0987 162.407 12.1183 163.255 12.2136L163.065 12.2377C163.467 12.2115 163.68 12.1196 163.899 12.1317C163.329 12.0518 163.483 12.0258 163.432 11.9193C164.185 12.1199 164.567 11.7332 165.796 11.8703C165.781 11.9316 165.488 12.0053 165.144 11.931C164.792 12.1604 164.382 12.3036 163.943 12.3346C164.404 12.3048 164.953 12.2867 164.835 12.3632L164.975 12.1912C165.253 12.1928 165.48 12.2122 165.692 12.2101C165.81 12.106 165.122 12.0196 165.766 11.9585C166.498 11.916 166.161 12.1462 166.271 12.0693C167.281 12.0215 166.681 11.8916 167.654 11.973C167.537 11.9942 167.413 12.0011 167.288 11.9942C167.983 12.081 169.001 11.9991 169.205 12.2177C169.095 12.2945 168.956 12.3283 168.824 12.3003L168.832 12.2662C168.07 12.4038 169.468 12.2392 169.234 12.4266C169.175 12.3128 170.156 12.367 170.595 12.3982L170.449 12.2657C171.907 11.9247 170.375 12.5174 171.824 12.5076C172.746 12.448 171.473 12.4606 172.037 12.388C172.622 12.4757 173.214 12.5223 173.807 12.5205C174.063 12.5761 174.582 12.6601 174.633 12.808C175.299 12.8449 175.965 12.8402 176.631 12.7872C175.68 12.6379 175.694 12.9151 174.582 12.6947L174.89 12.5665C175.659 12.5952 176.632 12.5522 177.166 12.6163C177.056 12.5826 177.013 12.5456 177.079 12.5216C177.891 12.449 178.718 12.4187 179.545 12.4368C179.691 12.5693 179.069 12.528 178.616 12.5305C179.208 12.5979 179.801 12.6306 180.394 12.6288C180.452 12.7426 179.676 12.603 179.559 12.7071L180.737 12.7031C180.73 12.7096 180.737 12.717 180.737 12.7239C180.906 12.5397 181.637 12.7667 182.355 12.7303C183.342 12.7504 184.316 12.6452 185.254 12.4068C185.51 12.4624 185.583 12.5148 185.48 12.5575C185.063 12.4654 185.136 12.5316 184.99 12.5719C185.568 12.5693 186.255 12.7939 185.933 12.859C186.848 12.8267 185.604 12.751 186.16 12.7057L187.412 12.7541C187.258 12.6558 186.819 12.6177 187.463 12.5635C188.012 12.5524 188.276 12.5808 188.986 12.6062C188.883 12.6489 189.212 12.7569 188.678 12.7343C189.043 12.796 189.417 12.789 189.768 12.7116C188.986 12.5993 191.049 12.6649 190.464 12.5013L191.247 12.6137C191.071 12.604 191.049 12.6719 190.786 12.6435C191.012 12.7942 191.423 12.6234 191.693 12.6176C192.045 12.637 192.396 12.6841 192.747 12.7519C193.069 12.7213 193.398 12.7533 193.712 12.8467C194.078 12.8324 193.742 12.7516 193.845 12.7089L195.096 12.7642C195.161 12.8508 195.27 13.0711 195.087 13.0955C195.556 13.0385 195.249 12.8626 195.966 12.8953C195.563 13.0389 196.91 13.0442 196.324 13.2123C197.062 13.3429 197.809 13.3911 198.541 13.3555C198.936 13.2461 197.846 13.2618 197.883 13.1395C199.69 13.1565 199.794 12.8097 201.119 12.9106L200.775 12.8639C201.185 12.8658 201.595 12.8263 201.99 12.7445C201.763 12.8909 202.94 13.1978 204.294 13.2105C204.404 13.1336 203.533 13.0371 203.753 12.918L204.653 12.9263C204.719 12.9437 204.617 12.9657 204.507 12.9804C205.312 12.9488 206.013 13.2364 206.248 13.0559L207.074 13.3158L206.745 13.2078C207.141 13.1467 207.543 13.1206 207.953 13.1156C208.539 13.0581 209.139 13.1051 209.724 13.2549C209.563 13.1838 209.161 13.0234 209.886 13.022C209.885 13.2777 211.415 13.1687 211.392 13.2988C211.685 13.3081 212.212 13.4063 212.241 13.3042L212.197 13.4608C212.263 13.2433 213.332 13.2954 214.151 13.2854C213.967 13.5794 215.052 13.3006 215.424 13.5838C215.578 13.385 216.88 13.5607 217.02 13.3956C217.649 13.4097 217.59 13.5999 217.751 13.671L218.044 13.6043C218.365 13.7119 219.551 13.7705 220.26 13.865L220.912 13.7075L221.153 13.7969C221.256 13.7542 221.805 13.75 221.461 13.6688L221.812 13.6951C221.842 13.5032 222.31 13.6604 223.02 13.6029C223.188 13.6399 223.144 13.6858 222.991 13.7049C223.342 13.7244 223.195 13.813 223.392 13.8861C223.137 13.8236 224.667 13.5834 223.709 13.4544C223.643 13.3747 224.2 13.3363 224.551 13.3834L224.762 13.5679L225.18 13.3974C225.59 13.4201 225.999 13.4773 226.402 13.5548C225.948 13.5505 225.398 13.8518 226.569 13.8958C226.151 13.9073 225.741 13.94 225.339 14.0075C225.58 14.0278 225.704 14.0485 225.324 14.1035C226.239 14.0849 225.631 14.0099 226.532 14.0182C226.48 14.1743 226.736 14.2368 227.526 14.322L226.933 14.1855C226.97 14.1668 227.007 14.155 227.043 14.1432C226.817 14.1169 226.758 14.086 226.707 14.0279C226.883 14.0376 227.754 13.8715 227.9 13.9764C226.987 13.6908 229.482 13.8495 228.904 13.6793C229.168 13.6317 229.446 13.654 229.702 13.7373C228.947 13.8269 230.272 13.9416 230.147 14.0452C230.425 14.0122 229.555 13.9019 229.928 13.8604C230.279 13.8798 230.623 13.9333 230.959 14.0349L230.769 14.0589L231.464 14.1595C231.574 14.0827 230.791 13.991 231.428 13.9847C231.596 14.0286 232.24 14.0158 232.218 14.0768C231.91 14.1704 232.136 14.328 231.587 14.3253C232.041 14.3366 233.483 14.3886 232.898 14.2112L233.439 14.2411C233.103 14.1603 232.152 13.9902 233.235 14.0225L233.228 14.0635L233.982 13.9808L234.311 14.0819C234.304 14.04 234.421 14.012 234.699 14.0273C234.772 14.0798 235.035 14.1081 235.013 14.1691C235.825 14.2002 235.76 14.1136 235.862 14.0778C236.316 14.0891 236.484 14.126 236.272 14.211C236.982 14.2365 237.691 14.3033 238.401 14.3979C239.235 14.3679 238.233 14.354 238.716 14.2701C239.432 14.5793 241.459 14.5116 242.813 14.5381C242.441 14.2756 243.187 14.5311 243.429 14.3164C243.136 14.3762 244.716 14.5673 243.53 14.5777L244.255 14.5901C244.752 14.7489 243.054 14.6344 243.807 14.8488C244.569 14.7734 245.337 14.7467 246.106 14.7754C245.783 14.9304 246.845 14.7541 246.603 14.9273C246.361 14.9623 246.12 14.9697 245.871 14.949L246.039 14.9929C247.817 15.1257 246.552 14.8139 247.489 14.7413C248.572 14.7735 248.345 14.9199 248.41 14.9996C248.747 15.0389 249.076 15.0433 249.413 15.0066C248.754 15.0808 248.191 14.8423 248.492 14.7483C249.12 14.9006 249.772 14.9089 250.394 14.7775C248.844 14.4982 249.319 14.718 247.871 14.4237C247.673 14.475 247.702 14.6494 246.831 14.539C247.38 14.4795 246.795 14.4403 246.641 14.4041C246.809 14.5102 246.034 14.4189 245.77 14.4458C245.529 14.3496 246.291 14.2396 245.406 14.1561L245.236 14.3887C244.893 14.3351 245.383 14.224 244.644 14.2453C245.04 14.1428 244.52 14.045 245.523 14.0589C244.331 13.7995 243.701 14.0826 242.771 14.1211C242.866 14.1125 242.874 14.0783 242.969 14.0698C242.698 14.1101 242.42 14.1224 242.142 14.1001C241.535 14.0181 242.625 14.0162 242.464 13.9451L241.476 13.9044C241.455 13.8962 241.455 13.8893 241.455 13.8893C241.257 13.9268 241.052 13.9154 240.855 13.8561C241.148 13.7963 241.265 13.7199 241.463 13.6686L240.43 13.7843C240.54 13.7144 239.575 13.6057 240.314 13.5844L238.777 13.5409L238.646 13.3747C238.28 13.389 238.266 13.4158 238.712 13.4543C238.185 13.3906 236.384 13.6228 236.663 13.3203C235.455 13.3918 235.024 13.3196 233.567 13.3289C234.687 13.2388 232.28 13.078 233.466 13.0676C232.998 13.0348 232.529 13.0503 232.075 13.1289C231.563 13.0384 231.791 12.892 232.347 12.8606L231.695 12.9006L231.71 12.8668L231.146 12.9324C230.547 12.8232 231.023 12.7666 230.401 12.7184L230.269 12.8562L229.844 12.7568C230.005 12.8279 229.632 12.8418 229.185 12.8378L229.193 12.8037L228.644 12.8079C229.186 12.7411 228.146 12.7597 228.388 12.6625C227.92 12.6366 227.913 12.6362 227.064 12.6307L227.21 12.7355C226.105 12.7781 227.159 12.5876 226.266 12.5452L226.325 12.659C225.037 12.4219 224.144 12.6766 223.185 12.52C223.734 12.5158 223.588 12.3833 223.581 12.4105C222.761 12.4205 221.422 12.3327 220.58 12.4382C220.193 12.2164 219.755 12.1022 219.323 12.106C218.694 12.092 218.598 12.1005 218.393 12.186C217.793 12.1804 217.193 12.1265 216.593 12.0312C216.454 12.1202 216.037 11.9866 215.708 12.0582L215.635 12.0058L215.693 12.1196C214.603 11.8244 213.856 12.1839 212.751 11.9294L212.942 11.9053L212.481 11.9282C212.408 11.8758 212.591 11.8514 212.613 11.7904L210.462 11.6853L210.886 11.7848C210.468 11.8308 210.037 11.8277 209.612 11.7904C210.469 11.6512 208.895 11.7577 208.757 11.6256L209.218 11.5958C208.589 11.5818 208.589 11.5818 208.639 11.6951C207.82 11.7051 208.077 11.4636 207.323 11.5601L207.864 11.5832C208.025 11.6543 207.637 11.7296 207.278 11.7167C207.19 11.698 206.942 11.6359 207.213 11.6301C206.568 11.6498 205.603 11.5618 205.317 11.5944C204.966 11.5474 205.083 11.4709 205.266 11.4465C203.89 11.5017 204.645 11.4052 203.268 11.4535L203.291 11.3926L202.8 11.476L202.12 11.3209L202.361 11.4103C201.944 11.4287 201.519 11.4191 201.102 11.3891L201.315 11.3041C200.042 11.3166 199.837 11.098 198.63 11.1902C198.549 11.1719 198.732 11.1475 198.827 11.132C197.707 11.2429 197.972 10.9327 196.852 11.0781C196.918 11.0472 196.793 11.0057 196.837 10.9805L196.325 11.0213L196.362 10.8989L195.944 11.0694L195.623 10.9341L195.425 10.9854C194.877 10.727 194.101 10.8845 193.348 10.677L193.479 10.8432C191.589 11.1051 189.14 10.5135 186.849 10.6081L186.886 10.4857L185.941 10.6063C185.43 10.495 186.242 10.5054 186.081 10.4343C185.071 10.4752 185.663 10.6116 184.492 10.616C183.893 10.5138 184.698 10.5306 184.983 10.4911C183.819 10.5443 182.648 10.5348 181.478 10.4563C181.463 10.4693 181.412 10.4941 181.456 10.5035C180.724 10.539 179.751 10.4576 178.938 10.4403C178.953 10.3858 179.158 10.3764 179.356 10.3735C179.041 10.3354 178.726 10.3318 178.419 10.3563L178.719 10.2554C178.068 10.2816 177.409 10.2452 176.758 10.147C176.831 10.1994 176.809 10.295 176.268 10.272C175.968 10.0688 174.804 10.3154 173.941 10.1848C174.043 10.1421 174.673 10.1492 174.497 10.1395C174.095 10.1035 173.692 10.1296 173.297 10.2045L173.414 10.128L171.408 10.183C171.109 9.97988 169.513 10.1612 169.645 10.0234C168.928 9.99755 170.252 10.126 169.345 10.1243C169.104 10.0349 168.525 10.1481 168.562 10.0188L168.657 10.0033L168.021 9.99577L168.416 9.8794C167.875 9.89093 167.472 10.0069 167.449 10.1024C166.952 10.0818 166.454 10.0336 165.957 9.9439L166.147 9.91986C164.698 9.93652 163.734 9.52379 162.599 9.70987C162.511 9.69119 162.526 9.65745 162.701 9.66716L161.801 9.64505L162.014 9.55312L160.535 9.6649L160.55 9.60352C159.569 9.55623 158.04 9.55462 156.774 9.54683L156.964 9.5228C155.588 9.59187 155.633 9.43536 154.63 9.47669C154.659 9.46449 154.696 9.45269 154.732 9.45471L153.825 9.43911L154.023 9.38093C153.518 9.39448 153.02 9.36006 152.515 9.28378C152.127 9.31072 151.747 9.37261 151.38 9.46986C150.392 9.45671 151.139 9.3805 150.525 9.31888C149.924 9.3479 149.324 9.34929 148.717 9.32262L148.732 9.26124C148.278 9.2638 148 9.30371 147.37 9.29657L147.561 9.27254C146.536 9.38866 146.274 9.06314 145.475 9.3231C145.043 9.26469 144.224 9.28849 144.261 9.15922C142.98 9.21973 141.984 9.23382 140.718 9.2675C140.507 9.05537 140.447 9.27326 139.672 9.14055L139.73 9.25435C137.93 9.23777 135.853 8.9225 133.869 8.93036L133.811 8.81656L133.415 8.93292C131.279 8.84246 128.513 8.74484 126.808 8.71279C126.053 8.80933 125.292 8.85019 124.524 8.82845L124.619 8.81298C123.082 8.85242 121.45 8.8797 119.767 8.78666C119.87 8.74396 119.701 8.70701 119.884 8.67566C119.438 8.73391 118.984 8.72956 118.538 8.65652L118.962 8.74908C118.493 8.81994 118.01 8.78633 117.55 8.65028L116.796 8.76065C116.745 8.75091 116.664 8.73264 116.657 8.7115L116.525 8.76641L116.116 8.61247C115.611 8.62602 115.113 8.68835 114.622 8.79945C114.549 8.74704 113.839 8.70089 114.388 8.68286L111.622 8.59906L112.054 8.65748C112.112 8.77128 111.285 8.82922 110.853 8.77081C111.41 8.69099 110.89 8.6139 110.649 8.52454C110.276 8.57992 110.978 8.62566 110.787 8.68425C110.224 8.75675 109.645 8.76626 109.067 8.72049L109.346 8.68058C108.709 8.71449 108.402 8.51092 107.773 8.51069C107.209 8.59011 106.785 8.50445 106.909 8.69791C106.089 8.72862 106.587 8.56264 106.324 8.54116C105.767 8.61408 105.197 8.58253 104.641 8.45504C104.201 8.73483 102.424 8.32557 102.269 8.55894L101.589 8.41767C101.574 8.47905 101.442 8.6238 100.9 8.64224C100.381 8.56515 100.498 8.45414 100.345 8.39037L100.008 8.62053C97.03 8.33152 93.1287 8.45453 89.8656 8.20503C88.4164 8.23551 86.5938 8.32828 84.9034 8.2763L85.0865 8.24495L83.4035 8.16574L84.6326 8.28207C84.2666 8.3033 83.981 8.34972 83.6297 8.34413C81.4274 8.18092 79.2321 8.12867 77.0363 8.18699C75.5789 8.4451 76.0492 7.9389 74.6434 8.12383C74.7605 8.10266 74.8046 8.06363 74.9145 8.03514C73.3993 8.11035 72.5795 8.14797 71.064 8.29228C71.226 8.02477 70.076 8.28605 70.2009 8.14781L70.0761 8.25841C69.7324 8.19102 68.9348 8.16076 69.0448 8.0839L68.3784 8.21294L68.3129 8.09873C67.4201 8.08394 65.517 8.16535 65.0349 7.93135C62.8387 8.08641 59.3554 8.01135 56.5892 7.94829C55.9888 8.02568 55.3812 8.06122 54.7665 8.04106L54.0865 7.89979C53.4567 7.9963 52.8198 8.03712 52.1759 8.01535C52.1759 8.00152 52.2052 7.98932 52.2419 7.98444C51.6126 7.95656 50.9831 7.98397 50.3607 8.05324C49.6436 8.04124 48.9486 7.96826 49.1613 7.8487C49.1019 8.06659 47.6465 7.81334 47.6465 7.81334C47.6465 7.81334 38.4843 7.64553 28.2018 7.64387C17.9119 7.64872 6.51623 7.82743 2.07133 8.48715C1.73425 8.59984 0.819037 8.70131 1.19915 8.81908C0.503634 8.88431 0.123738 8.71125 0.0135299 8.82266C0.986768 8.85572 -0.185174 9.10888 0.765846 9.20983L0.194802 9.2612C0.0993618 9.33887 0.949037 9.15084 0.84604 9.29029L0.963938 9.08255C1.27136 9.0719 1.57856 9.11652 1.87829 9.20221C2.39147 8.97485 2.96999 8.88242 3.55521 8.94933L3.27706 8.9616C4.08949 8.9443 3.78153 9.09316 3.95706 9.1236L3.77411 9.1204L4.46898 9.22101C3.94961 9.15774 3.09999 9.33195 3.54649 9.31516C4.51967 9.36205 3.29052 9.26646 4.01517 9.2374C4.46898 9.22101 4.34414 9.33161 4.32924 9.3999L5.13435 9.38221C5.11203 9.47774 4.6001 9.38032 4.93639 9.47494L5.94677 9.36491C6.15077 9.60427 7.04504 9.23901 7.52719 9.4661C6.79512 9.52239 7.60007 9.54616 7.48267 9.62261L9.27579 9.60423C9.444 9.63427 8.8071 9.682 9.07794 9.66933C9.32669 9.68999 9.5756 9.66919 9.81003 9.60612C9.97079 9.6703 11.1494 9.59722 11.1121 9.76104C12.3339 9.86314 11.6106 9.5536 12.7519 9.64434C12.9052 9.74266 11.8517 9.6706 12.3636 9.76801L13.5494 9.72298C13.3586 9.83684 13.1243 9.88609 12.8902 9.85933C16.0806 9.97349 17.8277 10.4917 20.7264 10.3616C21.1431 10.4745 20.4333 10.4422 20.1476 10.5163C22.2486 10.3628 23.1253 10.7707 24.9184 10.7523L24.948 10.6572C27.4645 10.9553 30.4657 10.7894 33.3048 10.9118L32.9611 10.8444C33.4444 10.7675 33.9423 10.7259 34.4327 10.7046C34.5057 10.7501 34.1099 10.9079 34.9224 10.8699C34.7469 10.8326 34.403 10.7997 34.5057 10.7501C36.9491 10.9958 42.0722 10.9611 46.0676 11.099C51.4616 11.0447 57.3302 11.2723 62.6289 11.2473C61.8239 11.2512 62.1541 11.0137 62.7613 11.0749C64.4503 11.4862 65.645 11.027 67.3638 11.3086C70.4453 11.1956 73.2176 11.5769 76.0802 11.2928L76.1383 11.4066C76.4749 11.4252 76.8043 11.4158 77.1338 11.3787L77.1263 11.4128C78.1946 11.465 79.4758 11.363 80.0903 11.4246L80.1201 11.2949C80.7495 11.2883 80.4563 11.3965 81.1006 11.3284L81.0857 11.3898L81.8326 11.279C81.7733 11.4969 83.6182 11.3155 84.1301 11.4199C84.9499 11.3891 86.4944 11.3086 87.7384 11.3636C88.6454 11.4828 89.56 11.5472 90.4674 11.5628C92.3556 11.5566 95.0562 11.5539 97.4637 11.6247L97.413 11.4837L98.0424 11.4839C98.035 11.5181 98.1227 11.5298 98.0276 11.5453C98.5245 11.7179 99.4767 11.5148 99.9813 11.6188C99.6598 11.4835 99.5423 11.5945 99.1837 11.5885C98.6644 11.5114 99.1552 11.3796 99.8502 11.4595L99.8354 11.4932L100.304 11.4223C100.362 11.5361 100.794 11.5946 100.859 11.7019C102.923 11.6984 104.329 11.5273 106.458 11.6036C106.246 11.7231 107.988 11.5914 107.57 11.8033C108.851 11.7428 107.351 11.6253 107.93 11.4776C108.288 11.4905 108.662 11.4351 108.727 11.5148C108.559 11.5676 109.027 11.6488 108.734 11.6672L109.59 11.6661C109.671 11.6844 109.488 11.7088 109.393 11.7243C111.135 11.6271 112.488 11.9161 114.047 11.8088C114.157 11.732 113.425 11.7744 113.535 11.6976C115.102 11.563 114.932 11.8578 116.396 11.7728L116.096 11.8737C116.565 11.7614 117.062 11.7405 117.552 11.816C117.698 11.9485 116.893 11.9109 116.52 11.9663C117.054 11.982 118.408 11.967 117.991 11.8472C118.401 11.8353 118.811 11.8786 119.22 11.9704C119.228 11.9362 118.621 11.875 118.994 11.8197C119.872 11.9027 121.219 11.9219 122.287 11.9533C122.279 11.9874 122.352 12.033 122.265 12.0488C123.129 11.9031 123.047 12.1888 124.233 12.1645Z" fill="#F2304B"/>
<path opacity="0.26" d="M181.159 9.80731L180.727 9.7657C180.727 9.805 180.712 9.85304 180.507 9.88708L181.159 9.80731Z" fill="#F2304B"/>
<path opacity="0.26" d="M160.71 10.14C160.658 10.1466 160.607 10.1639 160.555 10.1918C160.658 10.1786 160.688 10.1596 160.71 10.14Z" fill="#F2304B"/>
<path opacity="0.26" d="M155.745 10.6557C156.098 10.6191 155.782 10.5618 155.606 10.5048C155.598 10.5472 155.606 10.5909 155.745 10.6557Z" fill="#F2304B"/>
<path opacity="0.26" d="M192.733 8.98292C192.659 8.99928 192.615 9.02921 192.622 9.06335C192.726 9.03822 192.748 9.00648 192.733 8.98292Z" fill="#F2304B"/>
<path opacity="0.26" d="M224.752 8.94593L224.628 8.9066C224.672 8.9299 224.708 8.94264 224.752 8.94593Z" fill="#F2304B"/>
<path opacity="0.26" d="M222.978 8.61119C222.854 8.60301 222.736 8.61243 222.619 8.62185C222.744 8.63002 222.861 8.62916 222.978 8.61119Z" fill="#F2304B"/>
<path opacity="0.26" d="M184.977 9.21921C184.867 9.22093 184.749 9.23189 184.639 9.26292C184.757 9.2715 184.867 9.25024 184.977 9.21921Z" fill="#F2304B"/>
<path opacity="0.26" d="M222.253 8.69685L221.807 8.66097C221.799 8.66854 221.799 8.67657 221.799 8.69263L222.253 8.69685Z" fill="#F2304B"/>
<path opacity="0.26" d="M225.315 8.98424C225.139 8.97447 224.905 8.96145 224.752 8.94595C224.942 8.98437 225.132 8.99495 225.315 8.98424Z" fill="#F2304B"/>
<path opacity="0.26" d="M204.485 8.58474L204.434 8.59092C204.097 8.64585 204.309 8.62167 204.485 8.58474Z" fill="#F2304B"/>
<path opacity="0.26" d="M220.296 9.05661L220.237 9.04205L220.105 9.08279L220.296 9.05661Z" fill="#F2304B"/>
<path opacity="0.26" d="M227.245 9.07333C227.172 9.06788 227.099 9.08236 227.025 9.09683L227.282 9.13583C227.252 9.10376 227.252 9.08384 227.245 9.07333Z" fill="#F2304B"/>
<path opacity="0.26" d="M211.191 8.8225C211.316 8.75407 211.361 8.70149 211.368 8.66838C211.221 8.66756 211.125 8.69344 211.191 8.8225Z" fill="#F2304B"/>
</g>
</g>
</g>
</g>
<path d="M38.5236 12.982C38.5011 13.0036 38.4862 13.0374 38.4786 13.0835C38.516 13.0398 38.531 13.0177 38.5236 12.982Z" fill="#F2304B"/>
<path d="M58.2395 12.856L58.0122 12.8892C58.0928 12.895 58.1661 12.8904 58.2395 12.856Z" fill="#F2304B"/>
<path d="M26.7139 13.283C26.7213 13.2767 26.7359 13.2774 26.7432 13.2711L25.9165 13.2542L26.7139 13.283Z" fill="#F2304B"/>
<path d="M100.284 12.5012L100.02 12.4944C100.108 12.4987 100.196 12.5031 100.284 12.5012Z" fill="#F2304B"/>
<path d="M75.3674 12.5412C75.4774 12.5094 75.5874 12.4875 75.7047 12.496C75.5874 12.4675 75.4701 12.4889 75.3674 12.5412Z" fill="#F2304B"/>
<path d="M20.4257 11.4837L20.7703 11.6129C20.763 11.5607 20.6384 11.4997 20.4257 11.4837Z" fill="#F2304B"/>
<path d="M8.45966 12.8137C8.467 12.8253 8.48169 12.8374 8.48904 12.8379C8.51111 12.8287 8.49642 12.8166 8.45966 12.8137Z" fill="#F2304B"/>
<path d="M13.1533 13.0844C13.2559 13.0718 13.3733 13.0503 13.4906 13.0287C13.3513 13.0286 13.168 13.0353 13.1533 13.0844Z" fill="#F2304B"/>
<path d="M13.652 12.9774L13.4907 13.006C13.5787 13.0024 13.652 12.9976 13.652 12.9774Z" fill="#F2304B"/>
<path d="M252.995 12.4946C253.274 12.5143 253.552 12.4859 253.823 12.409L252.995 12.4946Z" fill="#F2304B"/>
<path d="M138.355 12.1581L138.282 12.2081C138.355 12.1916 138.363 12.181 138.355 12.1581Z" fill="#F2304B"/>
<path d="M253.425 11.298L253.659 11.3404C253.579 11.3171 253.505 11.3033 253.425 11.298Z" fill="#F2304B"/>
<path d="M26.7695 10.6962C27.1139 10.5899 27.8242 10.7314 27.8171 10.6195C27.4508 10.6315 26.9236 10.5489 26.7695 10.6962Z" fill="#F2304B"/>
<path d="M146.392 6.76226L146.619 6.76746C146.509 6.76178 146.444 6.75838 146.392 6.76226Z" fill="#F2304B"/>
<path d="M253.425 11.314L253.154 11.2546C253.176 11.2761 253.206 11.298 253.235 11.32C253.301 11.305 253.359 11.3092 253.425 11.314Z" fill="#F2304B"/>
<path d="M177.996 12.2078L177.981 12.2067L177.901 12.2206L177.996 12.2078Z" fill="#F2304B"/>
<path d="M180.093 12.4582L179.646 12.4729C179.8 12.4918 179.946 12.4926 180.093 12.4582Z" fill="#F2304B"/>
<path d="M253.824 12.3528L254.307 12.3003C254.146 12.2985 253.985 12.3257 253.824 12.3528Z" fill="#F2304B"/>
<path d="M202.763 12.4208L202.558 12.4246C202.631 12.4292 202.697 12.4334 202.763 12.4208Z" fill="#F2304B"/>
<path d="M73.766 12.5158L73.5829 12.4832C73.5608 12.5206 73.5755 12.5314 73.766 12.5158Z" fill="#F2304B"/>
<path d="M88.5617 8.52C88.8475 8.54065 89.1261 8.50143 89.3975 8.40234C89.1116 8.39158 88.833 8.4308 88.5617 8.52Z" fill="#F2304B"/>
<path d="M91.1969 8.40319L91.0944 8.38839C91.131 8.39905 91.1603 8.40089 91.1969 8.40319Z" fill="#F2304B"/>
<path d="M74.3557 8.53315L74.3557 8.5447C74.3631 8.54531 74.3631 8.53375 74.3631 8.53375L74.3557 8.53315Z" fill="#F2304B"/>
<path d="M77.6923 8.42255C77.7655 8.44664 77.846 8.47125 77.9266 8.47688C77.8461 8.44278 77.7655 8.42766 77.6923 8.42255Z" fill="#F2304B"/>
<path d="M99.4904 7.85641C99.4833 7.85585 99.4904 7.85641 99.4904 7.85641L99.5046 7.86851L99.4904 7.85641Z" fill="#F2304B"/>
<path d="M130.874 8.52726C127.72 8.4633 123.637 8.49701 120.506 8.36516C119.627 8.47167 118.734 8.51474 117.842 8.47628L117.733 8.27008L116.906 8.31018C116.57 8.23687 117.542 8.29191 116.943 8.19912L116.635 8.31543C116.569 8.24314 114.499 8.20208 115.89 8.10242L112.663 8.0097C111.946 7.98003 112.253 8.16477 111.463 8.09381C111.302 8.0293 111.748 8.06421 111.675 7.98528C109.298 7.76576 108.944 8.30007 106.735 8.13916L106.926 8.11733C106.552 8.16135 105.835 8.13796 105.828 8.16268C106.12 8.37804 106.223 8.06331 106.896 8.20367C106.844 8.37671 106.054 8.27439 106.105 8.40866C105.68 8.37485 105.256 8.37867 104.831 8.42012C104.064 8.29381 102.959 8.33879 102.374 8.19029C101.854 8.30851 101.319 8.37582 100.77 8.37967C100.186 8.23118 100.903 8.25457 100.113 8.18361L99.9879 8.28399C99.3368 8.25136 99.4393 8.22513 99.4615 8.18233C98.9856 8.22748 98.5026 8.24091 98.0198 8.21671L98.5031 8.13429C97.859 8.15847 97.5957 8.13273 96.7032 8.10053C96.718 8.04482 97.0765 8.05652 97.3472 8.08263C96.8576 7.92008 96.5201 8.12273 96.2568 8.10325C96.3297 8.15082 96.9516 8.18199 96.6512 8.27358C96.2049 8.24494 95.7067 8.38307 95.3926 8.26068L95.8759 8.17826C95.3634 8.25294 94.8438 8.27081 94.3244 8.22596C94.383 8.22262 94.3538 8.19607 94.3759 8.17208C93.5342 8.21771 92.6781 8.1999 91.8297 8.10719L92.02 8.08536C91.6175 8.1091 91.4049 8.19254 91.1854 8.18154C91.7559 8.25404 91.6021 8.2777 91.6529 8.37434C90.9 8.18605 90.518 8.53702 89.2892 8.40643C89.3041 8.35071 89.597 8.29012 89.9407 8.35753C90.2928 8.14935 90.7105 8.026 91.1423 7.99746C90.6812 8.02453 90.1323 8.03466 90.2497 7.96527L90.11 8.12137C89.832 8.11997 89.6052 8.10234 89.393 8.09797C89.2755 8.19245 89.963 8.2771 89.3188 8.32636C88.5869 8.35868 88.9244 8.15604 88.8144 8.21953C87.8044 8.25673 88.4039 8.38087 87.431 8.30074C87.5482 8.28152 87.6726 8.27521 87.797 8.28772C87.0948 8.20862 86.0847 8.2709 85.8734 8.07839C85.9834 8.00863 86.1226 7.97797 86.2615 8.00375L86.2541 8.03474C87.0156 7.91608 85.6174 8.05301 85.8523 7.88914C85.9103 7.99242 84.93 7.94328 84.4838 7.92092L84.6296 8.04114C83.172 8.35701 84.7037 7.81275 83.2475 7.82759C82.3252 7.888 83.5986 7.87027 83.0348 7.93611C82.4498 7.85661 81.8572 7.82063 81.2645 7.82229C81.0086 7.77183 80.4894 7.69562 80.4387 7.56762C79.773 7.53425 79.1071 7.54478 78.441 7.59294C79.3917 7.72215 79.3781 7.47682 80.4895 7.67053L80.1816 7.79311C79.4134 7.76715 78.4327 7.81209 77.9061 7.75433C78.0157 7.77864 78.0595 7.81847 77.9935 7.84026C77.1809 7.91245 76.354 7.94 75.5271 7.92365C75.3813 7.80343 76.0032 7.8346 76.4568 7.83852C75.8644 7.77746 75.2718 7.74775 74.6791 7.75568C74.621 7.6524 75.3961 7.77907 75.5136 7.67832L74.3355 7.682C74.3428 7.6761 74.3355 7.66946 74.3355 7.66319C74.1738 7.83073 73.4356 7.63063 72.7184 7.66368C71.7306 7.64554 70.7569 7.74729 69.8193 7.96377C69.5634 7.9133 69.4905 7.86573 69.5931 7.82696C70.0171 7.91095 69.9369 7.85047 70.0835 7.80763C69.5054 7.81002 68.8184 7.61249 69.1406 7.55336C68.2258 7.58279 69.4768 7.65176 68.9132 7.69252L67.6549 7.62317C67.8081 7.71241 68.2471 7.74068 67.6029 7.79621C67.054 7.80634 66.7907 7.78687 66.081 7.76385C66.1836 7.72508 65.8474 7.62668 66.3888 7.64127C66.0232 7.5853 65.65 7.59796 65.2985 7.66189C66.081 7.75757 64.0177 7.71061 64.6097 7.85948L63.8272 7.77007C64.0028 7.7726 64.025 7.71725 64.2883 7.73672C64.0621 7.59992 63.6516 7.76127 63.3808 7.77279C63.0296 7.76146 62.6785 7.72504 62.3276 7.66354C62.0054 7.69758 61.6763 7.66853 61.362 7.59005C60.996 7.60935 61.3323 7.67639 61.2297 7.71516L59.9712 7.68972C59.8984 7.61706 59.7895 7.41086 59.9799 7.38904C59.5113 7.4471 59.8179 7.60048 59.1082 7.58373C59.5113 7.4471 58.1575 7.4608 58.7436 7.30198C58.005 7.19596 57.2588 7.15856 56.5195 7.20305C56.1239 7.30869 57.2216 7.28216 57.1772 7.39285C55.3771 7.40299 55.2733 7.71771 53.9491 7.6388L54.2929 7.67485C53.8831 7.6794 53.4805 7.72195 53.085 7.8025C53.3051 7.66298 52.1281 7.40325 50.7744 7.41067C50.6643 7.48043 51.542 7.56206 51.322 7.67022L50.4293 7.67566C50.3635 7.66609 50.4587 7.6395 50.5758 7.62655C49.7708 7.66147 49.0621 7.41267 48.8345 7.57691L48.0013 7.35323L48.3302 7.44499C47.9348 7.50045 47.5322 7.53672 47.1297 7.54164C46.544 7.60638 45.9368 7.56968 45.352 7.44C45.5127 7.50451 45.9218 7.64421 45.1974 7.65181C45.1984 7.41975 43.6685 7.53754 43.6837 7.42538C43.391 7.42326 42.8645 7.34668 42.8347 7.44556L42.8793 7.30351C42.8199 7.50127 41.7443 7.485 40.9246 7.50665C41.1014 7.23322 40.0245 7.51799 39.6451 7.26687C39.4979 7.45396 38.1887 7.32561 38.0563 7.48207C37.4197 7.48153 37.4789 7.31512 37.3182 7.25061L37.0252 7.31748C36.7037 7.22608 35.5183 7.20431 34.8088 7.13738L34.1569 7.2929L33.9084 7.21771C33.8058 7.25648 33.2642 7.27952 33.6006 7.34029L33.2494 7.32269C33.2266 7.50347 32.7516 7.36674 32.0415 7.43779C31.8733 7.40427 31.9174 7.36257 32.0712 7.34518C31.72 7.34013 31.8667 7.24711 31.6694 7.18704C31.9253 7.2375 30.4095 7.494 31.3676 7.58594C31.4405 7.65859 30.8842 7.70599 30.5331 7.66957L30.3143 7.50805L29.9038 7.67566C29.494 7.6614 29.0844 7.62832 28.6822 7.56425C29.1359 7.5619 29.6714 7.26254 28.508 7.25441C28.9178 7.23732 29.3278 7.18886 29.7306 7.12122C29.4891 7.1154 29.3648 7.09662 29.7383 7.03379C28.8307 7.07612 29.4378 7.13164 28.5377 7.14299C28.5823 7.00094 28.3264 6.95047 27.5363 6.89206L28.1286 7.00329C28.0919 7.02027 28.0552 7.03725 28.0186 7.04169C28.2454 7.05933 28.3112 7.08145 28.3621 7.14046C28.1865 7.13793 27.3223 7.3079 27.169 7.21867C28.09 7.45302 25.5951 7.37815 26.1799 7.51411C25.9162 7.56362 25.6455 7.55006 25.3824 7.48668C26.1292 7.38611 24.805 7.31974 24.9226 7.21898C24.6443 7.25522 25.5221 7.33058 25.1414 7.38051C24.7901 7.37545 24.4464 7.32686 24.1029 7.2469L24.2859 7.21844L23.5911 7.14597C23.481 7.21573 24.2711 7.26788 23.6343 7.30497C23.4661 7.27145 22.822 7.30817 22.8442 7.25282C23.1447 7.15497 22.9184 7.02444 23.46 7.0014C23.0063 7.01002 21.572 7.01968 22.1568 7.15564L21.6154 7.14732C21.959 7.20845 22.9098 7.31884 21.8267 7.33983L21.8342 7.30884L21.0873 7.41569L20.7584 7.34274C20.7728 7.3811 20.6556 7.41287 20.3776 7.41148C20.3046 7.37018 20.0339 7.35034 20.0561 7.29499C19.2438 7.29819 19.3167 7.37085 19.2141 7.41589C18.7603 7.42451 18.5921 7.39726 18.7974 7.30718C18.0876 7.30925 17.3779 7.28622 16.6684 7.22557C15.8413 7.28448 16.8439 7.25318 16.3605 7.35441C15.6299 7.09824 13.6096 7.2479 12.2631 7.2745C12.6426 7.49427 11.8971 7.30007 11.6621 7.4953C11.9477 7.42807 10.3676 7.32378 11.546 7.26365L10.8215 7.2838C10.3171 7.16442 12.0146 7.19932 11.2543 7.02948C10.5002 7.12969 9.73893 7.18563 8.97057 7.19103C9.27858 7.03709 8.2386 7.24216 8.46619 7.07165C8.70783 7.03358 8.9494 7.01432 9.19816 7.02051L9.03001 6.98699C7.25209 6.93552 8.5243 7.16866 7.60184 7.27298C6.51879 7.2877 6.73893 7.14818 6.67339 7.07589C6.32963 7.03984 5.99299 7.04806 5.6635 7.09427C6.31516 7.00147 6.8924 7.19351 6.59195 7.29136C5.9558 7.1842 5.30449 7.19547 4.68919 7.34027C6.24697 7.53127 5.76481 7.35027 7.22738 7.56159C7.42518 7.50877 7.38198 7.34978 8.25248 7.41223C7.71064 7.49172 8.29599 7.50224 8.44954 7.52875C8.27432 7.43842 9.04975 7.48983 9.31334 7.45286C9.5618 7.52804 8.8075 7.66588 9.69274 7.70398L9.84734 7.49217C10.1984 7.52231 9.70762 7.64827 10.4469 7.60377C10.0586 7.71604 10.5778 7.77971 9.58251 7.81137C10.7818 7.99694 11.3976 7.72043 12.32 7.6412C12.2248 7.65524 12.2174 7.67996 12.1222 7.69401C12.3931 7.65113 12.6713 7.62744 12.9494 7.62883C13.5638 7.67845 12.4733 7.72416 12.634 7.7824L13.6219 7.78173C13.6438 7.7891 13.6438 7.79537 13.6438 7.79537C13.8342 7.75473 14.0464 7.75282 14.2438 7.80035C13.9581 7.86758 13.8407 7.93698 13.6502 7.99643L14.6753 7.85334C14.5652 7.92311 15.5382 7.97815 14.8062 8.02928L16.3357 8.00557L16.4741 8.15052C16.8401 8.12495 16.8475 8.10023 16.4085 8.07823C16.9353 8.1109 18.7146 7.82997 18.4573 8.11818C19.6578 8.00271 20.0894 8.04943 21.5458 7.98443C20.433 8.11684 22.8403 8.15595 21.6546 8.21571C22.1228 8.22663 22.584 8.18702 23.0381 8.10313C23.5573 8.1668 23.3372 8.30632 22.7808 8.35998L23.4324 8.29854L23.4249 8.32953L23.9887 8.25115C24.5957 8.33803 24.1198 8.39573 24.7416 8.4269L24.8666 8.30142L25.2906 8.37914C25.1299 8.3209 25.4959 8.29533 25.9423 8.29261L25.9348 8.3236L26.4837 8.3072C25.9419 8.38041 26.9885 8.33877 26.7393 8.43293C27.2075 8.44385 27.2149 8.44422 28.0637 8.43031L27.9105 8.34107C29.0084 8.27692 27.9611 8.46908 28.8538 8.48872L28.7957 8.38544C30.0901 8.56951 30.9766 8.31284 31.9274 8.4295C31.3858 8.44626 31.5243 8.56612 31.5391 8.5355C32.3588 8.50758 33.6904 8.54923 34.5324 8.4346C34.9194 8.62337 35.3653 8.721 35.7971 8.70501C36.4337 8.70555 36.5216 8.69113 36.7269 8.60733C37.3269 8.59976 37.9268 8.62983 38.5265 8.7038C38.6659 8.62296 39.0826 8.7254 39.4121 8.66037L39.4851 8.70166L39.427 8.59838C40.5236 8.83527 41.2569 8.48936 42.3609 8.70152L42.1779 8.71117L42.6391 8.67783C42.712 8.7254 42.529 8.74759 42.5068 8.80293L44.6506 8.84766L44.2266 8.76367C44.6439 8.71558 45.0683 8.71176 45.4999 8.73967C44.6505 8.87901 46.2097 8.75642 46.3555 8.87665L45.8943 8.90999C46.5236 8.91017 46.5236 8.91017 46.4655 8.80689C47.2779 8.78487 47.0354 9.0111 47.7822 8.91052L47.2481 8.8963C47.0874 8.83178 47.4683 8.75678 47.8268 8.76847C47.9145 8.78542 48.1704 8.83588 47.8923 8.84076C48.5364 8.81031 49.502 8.8838 49.7802 8.84756C50.1313 8.88398 50.0212 8.95374 49.8308 8.97556C51.1995 8.91243 50.4527 9.00673 51.8287 8.93769L51.8065 8.99304L52.2751 8.93497L52.955 9.06942L52.7139 8.98833C53.1311 8.96533 53.5555 8.96778 53.9725 8.98869L53.7599 9.07213C55.0333 9.04813 55.2373 9.24027 56.4451 9.14398C56.5255 9.16056 56.3425 9.18275 56.2473 9.1968C57.3674 9.08357 57.1027 9.36514 58.2229 9.22055C58.1569 9.2486 58.2812 9.2862 58.2372 9.30908L58.7496 9.26576L58.7198 9.37092L59.1303 9.20957L59.4518 9.33232L59.6496 9.27951C60.2047 9.50807 60.9737 9.35842 61.7339 9.53453L61.6028 9.38996C63.4847 9.11416 65.941 9.63249 68.2245 9.5462L68.1874 9.65726L69.1318 9.56031C69.6436 9.66124 68.8314 9.6519 68.9921 9.71641C70.0021 9.67294 69.4099 9.55543 70.5807 9.54511C71.1877 9.63826 70.3754 9.62892 70.0899 9.65852C71.2536 9.6102 72.4244 9.61243 73.5949 9.67737C73.6096 9.66556 73.6609 9.64304 73.6171 9.63457C74.349 9.60225 75.3219 9.66983 76.1267 9.68508C76.1045 9.74043 75.907 9.74307 75.7094 9.74571C76.0239 9.7803 76.3385 9.78352 76.646 9.75502L76.3456 9.8466C76.9969 9.82279 77.6554 9.84952 78.3063 9.93233C78.2333 9.88476 78.2556 9.79806 78.797 9.81892C79.0962 10.0033 80.2534 9.779 81.1164 9.89126C81.0137 9.93003 80.3845 9.92358 80.5601 9.93238C80.9624 9.96509 81.3649 9.94136 81.7531 9.86672L81.643 9.93648L83.6483 9.88016C83.9548 10.0649 85.5361 9.89323 85.4038 10.0183C86.1208 10.0417 84.8042 9.92555 85.7043 9.92675C85.9454 10.0078 86.5239 9.91137 86.4868 10.0287L86.3916 10.0365L87.0209 10.0429L86.6253 10.1423C87.1668 10.1318 87.5698 10.0328 87.5921 9.9461C88.0896 9.96476 88.587 10.0148 89.0842 10.0962L88.8938 10.118C90.3427 10.1091 91.307 10.4899 92.4419 10.3272C92.5296 10.3441 92.5149 10.3748 92.3393 10.366L93.2392 10.3985L93.0266 10.4757L94.5052 10.3804L94.4903 10.4361C95.4706 10.4853 97 10.4929 98.2585 10.5121L98.0681 10.5339C99.444 10.4837 99.3995 10.6257 100.402 10.5882C100.373 10.5992 100.336 10.61 100.3 10.6081L101.207 10.6285L101.009 10.6813C101.514 10.669 102.012 10.7002 102.516 10.7757C102.904 10.7512 103.285 10.695 103.658 10.6134C104.646 10.6315 103.899 10.6945 104.514 10.7566C105.231 10.78 105.348 10.6855 106.321 10.7594L106.306 10.8151C106.76 10.819 107.038 10.7828 107.668 10.7955L107.477 10.8173C108.502 10.7244 108.764 11.0261 109.563 10.7964C109.994 10.8557 110.814 10.8465 110.777 10.9576C112.057 10.9214 113.053 10.9149 114.326 10.9097C114.537 11.1022 114.597 10.9044 115.372 11.0374L115.314 10.9341C117.114 10.9741 119.183 11.2849 121.166 11.3027L121.224 11.406L121.62 11.3066C123.756 11.42 126.521 11.5335 128.226 11.5938C128.98 11.5187 129.749 11.4945 130.517 11.533L130.422 11.547C131.966 11.5366 133.59 11.549 135.273 11.6647C135.17 11.7035 135.338 11.737 135.148 11.7588C135.594 11.7122 136.048 11.7287 136.494 11.8012L136.07 11.711C136.538 11.6592 137.021 11.6959 137.482 11.8256L138.236 11.738C138.287 11.7468 138.36 11.7693 138.375 11.7826L138.507 11.7327L138.908 11.8783C139.413 11.8723 139.918 11.8286 140.409 11.7403C140.482 11.7878 141.192 11.8422 140.643 11.8523L143.408 11.9847L142.977 11.9254C142.919 11.8221 143.753 11.7887 144.177 11.8476C143.613 11.9134 144.133 11.9896 144.374 12.0707C144.747 12.0267 144.045 11.9727 144.243 11.9199C144.814 11.8669 145.392 11.8645 145.962 11.9182L145.684 11.9482C146.328 11.9303 146.627 12.1209 147.257 12.1274C147.82 12.0615 148.244 12.1581 148.121 11.9762C148.94 11.9671 148.442 12.1053 148.705 12.131C149.262 12.0773 149.832 12.1185 150.388 12.2467C150.835 12.0056 152.597 12.4139 152.766 12.2091L153.439 12.3557C153.461 12.3004 153.593 12.1752 154.135 12.171C154.647 12.2531 154.529 12.3476 154.69 12.4121L155.035 12.2099C158.004 12.5469 161.912 12.5295 165.167 12.8306C166.615 12.8342 168.445 12.8067 170.135 12.904L169.945 12.9258L171.627 13.0478L170.406 12.905C170.772 12.892 171.057 12.8624 171.416 12.8803C173.61 13.097 175.812 13.2073 178.007 13.217C179.479 13.0273 178.987 13.4731 180.399 13.3432C180.282 13.3624 180.231 13.3975 180.128 13.4174C181.65 13.3933 182.47 13.3842 183.992 13.2974C183.823 13.5336 184.98 13.3281 184.848 13.4532L184.973 13.3591C185.309 13.4324 186.106 13.4849 185.996 13.5547L186.67 13.4567L186.728 13.56C187.621 13.6048 189.53 13.6001 189.998 13.8243C192.201 13.759 195.683 13.9461 198.448 14.0973C199.056 14.0462 199.663 14.039 200.278 14.0698L200.95 14.2164C201.587 14.148 202.224 14.1422 202.868 14.1871C202.868 14.1996 202.838 14.2107 202.794 14.2147C203.423 14.2588 204.053 14.2653 204.675 14.2212C205.392 14.2571 206.087 14.3547 205.867 14.4566C205.933 14.2592 207.381 14.5513 207.381 14.5513C207.381 14.5513 216.555 15.0864 226.848 15.5333C237.142 15.9802 248.556 16.3767 253.028 16.0927C253.284 16.0115 254.024 15.9921 253.761 15.8597C253.973 15.8578 254.192 15.8813 254.397 15.9355C254.455 15.951 254.514 15.9602 254.572 15.9694C254.594 15.9705 254.616 15.9716 254.638 15.9664C254.646 15.9668 254.66 15.9612 254.668 15.9616L254.682 15.9561L254.69 15.9502C254.764 15.7343 254.831 15.5181 254.905 15.296C254.838 15.4934 254.771 15.6971 254.712 15.8948C254.689 15.969 254.697 15.938 254.697 15.9443L254.682 15.9435L254.668 15.9428L254.638 15.9413L254.58 15.9321C254.551 15.9244 254.521 15.9229 254.492 15.9089C254.448 15.8942 254.426 15.8805 254.412 15.8672C254.39 15.8348 254.434 15.8056 254.471 15.7761C254.552 15.7111 254.647 15.6406 254.252 15.5581L254.779 15.5657C254.904 15.503 254.047 15.598 254.209 15.4869L254.025 15.6597C253.754 15.6398 253.491 15.5827 253.243 15.4824C252.715 15.6567 252.137 15.6968 251.567 15.6054L251.845 15.6068C251.032 15.5724 251.348 15.4627 251.18 15.4229L251.362 15.4321L250.682 15.3039C251.202 15.3927 252.058 15.2913 251.612 15.2752C250.646 15.1704 251.86 15.3316 251.136 15.3204C250.682 15.3039 250.815 15.2165 250.829 15.1545L250.017 15.12C250.047 15.0337 250.551 15.1531 250.223 15.0488L249.198 15.0852C249.009 14.8562 248.086 15.1299 247.626 14.8998C248.357 14.8863 247.56 14.8212 247.677 14.7581L245.878 14.6804C245.709 14.6406 246.353 14.6353 246.075 14.6339C245.827 14.6026 245.578 14.609 245.336 14.647C245.183 14.5829 243.997 14.5862 244.042 14.4441C242.821 14.2888 243.529 14.6004 242.388 14.4616C242.242 14.3665 243.288 14.4816 242.784 14.3685L241.606 14.3409C241.804 14.2441 242.045 14.2123 242.279 14.2492C239.09 13.9764 237.373 13.4387 234.453 13.4178C234.044 13.2969 234.746 13.3635 235.039 13.3091C232.924 13.3474 232.07 12.9408 230.27 12.8694L230.24 12.9557C227.732 12.5728 224.717 12.6036 221.886 12.3613L222.223 12.4346C221.732 12.4791 221.235 12.5043 220.737 12.4982C220.664 12.4506 221.074 12.3269 220.255 12.3297C220.423 12.3695 220.774 12.4185 220.671 12.451C218.236 12.1156 213.1 11.9523 209.106 11.6768C203.699 11.5062 197.832 11.1055 192.52 10.9459C193.332 10.9741 192.988 11.1701 192.373 11.0954C190.7 10.6664 189.483 11.0383 187.772 10.7267C184.677 10.7159 181.913 10.3013 179.036 10.4708L178.978 10.3675C178.642 10.3381 178.312 10.3341 177.983 10.3615L177.991 10.3305C176.923 10.2519 175.634 10.3066 175.02 10.2318L174.983 10.3429C174.346 10.3298 174.654 10.2449 174.003 10.2812L174.018 10.2255L173.264 10.3069C173.338 10.1099 171.478 10.2237 170.967 10.1102C170.147 10.1131 168.596 10.1419 167.352 10.0545C166.445 9.92125 165.538 9.83815 164.624 9.80486C162.729 9.76633 160.029 9.70001 157.622 9.57937L157.665 9.71328L157.036 9.70056C157.043 9.66957 156.963 9.65299 157.051 9.64485C156.561 9.4823 155.602 9.64123 155.09 9.52776C155.412 9.65679 155.529 9.56231 155.888 9.58027C156.407 9.66275 155.916 9.76989 155.214 9.67824L155.229 9.64762L154.753 9.69904C154.702 9.59613 154.263 9.53023 154.213 9.42731C152.142 9.37999 150.737 9.504 148.6 9.37812C148.82 9.26995 147.064 9.35129 147.489 9.17186C146.208 9.20176 147.701 9.33929 147.122 9.46084C146.763 9.44287 146.39 9.48689 146.325 9.4146C146.493 9.37286 146.032 9.28704 146.325 9.27662L145.469 9.26508C145.389 9.2485 145.579 9.22668 145.667 9.21853C143.925 9.27551 142.565 8.98779 141.006 9.05394C140.889 9.12333 141.628 9.09765 141.518 9.16114C139.944 9.25164 140.121 8.99076 138.657 9.04285L138.958 8.95754C138.482 9.0466 137.984 9.05929 137.494 8.98455C137.356 8.86469 138.153 8.91093 138.526 8.86692C137.992 8.84642 136.631 8.82839 137.048 8.94964C136.638 8.95419 136.229 8.90857 135.819 8.81277C135.812 8.84377 136.419 8.91183 136.045 8.94958C135.168 8.8554 133.822 8.81302 132.753 8.77202C132.761 8.74103 132.688 8.69973 132.783 8.68569C131.926 8.81212 132.015 8.55311 130.83 8.54388" fill="#F2304B"/>
<path d="M73.9244 8.48247L74.3568 8.52365C74.3568 8.48404 74.3716 8.43558 74.5696 8.40038L73.9244 8.48247Z" fill="#F2304B"/>
<path d="M94.3886 8.16136C94.44 8.15462 94.4915 8.13719 94.5429 8.10907C94.4327 8.12198 94.4033 8.1411 94.3886 8.16136Z" fill="#F2304B"/>
<path d="M99.3526 7.7049C98.9999 7.73156 99.3157 7.79926 99.4919 7.85613C99.4993 7.8135 99.4921 7.75892 99.3526 7.7049Z" fill="#F2304B"/>
<path d="M62.3423 9.42536C62.416 9.40871 62.4603 9.37841 62.453 9.33269C62.3497 9.36954 62.3276 9.39033 62.3423 9.42536Z" fill="#F2304B"/>
<path d="M30.3115 10.5743L30.4433 10.6019C30.3994 10.5896 30.3555 10.5773 30.3115 10.5743Z" fill="#F2304B"/>
<path d="M32.0939 10.8249C32.2184 10.8242 32.3356 10.823 32.4528 10.8036C32.3283 10.7952 32.2111 10.8055 32.0939 10.8249Z" fill="#F2304B"/>
<path d="M70.1071 9.09391C70.217 9.09198 70.3343 9.08075 70.4443 9.04934C70.327 9.04091 70.2171 9.05266 70.1071 9.09391Z" fill="#F2304B"/>
<path d="M32.8193 10.711L33.2658 10.7313C33.2659 10.7226 33.2732 10.7145 33.2732 10.6973L32.8193 10.711Z" fill="#F2304B"/>
<path d="M29.7411 10.5653C29.9167 10.5679 30.1509 10.574 30.3045 10.5905C30.1217 10.5496 29.9314 10.5386 29.7411 10.5653Z" fill="#F2304B"/>
<path d="M50.5867 10.1222L50.6381 10.1157C50.983 10.0383 50.7629 10.0734 50.5867 10.1222Z" fill="#F2304B"/>
<path d="M34.77 10.2465L34.8287 10.251L34.9609 10.1983L34.77 10.2465Z" fill="#F2304B"/>
<path d="M27.8172 10.5787C27.8905 10.5741 27.9638 10.5694 28.0372 10.5447L27.7806 10.5159C27.8026 10.5476 27.8099 10.5582 27.8172 10.5787Z" fill="#F2304B"/>
<path d="M43.8796 10.0398C43.754 10.1201 43.7097 10.1731 43.7023 10.2064C43.8498 10.207 43.9458 10.1694 43.8796 10.0398Z" fill="#F2304B"/>
<g opacity="0.26">
<g opacity="0.26">
<g opacity="0.26">
<g opacity="0.26">
<path opacity="0.26" d="M38.5258 12.984C38.5034 13.0059 38.4884 13.0401 38.4809 13.0865C38.5182 13.0422 38.5258 13.0075 38.5258 12.984Z" fill="#F2304B"/>
<path opacity="0.26" d="M58.2343 12.8564L58.007 12.8933C58.0876 12.8985 58.1683 12.883 58.2343 12.8564Z" fill="#F2304B"/>
<path opacity="0.26" d="M26.7088 13.2838C26.7161 13.2767 26.7308 13.2774 26.7381 13.2703L25.9114 13.2595L26.7088 13.2838Z" fill="#F2304B"/>
<path opacity="0.26" d="M100.286 12.5029L100.022 12.4976C100.11 12.5017 100.198 12.5058 100.286 12.5029Z" fill="#F2304B"/>
<path opacity="0.26" d="M75.3623 12.5463C75.4723 12.512 75.5823 12.488 75.6996 12.4955C75.5824 12.4672 75.4724 12.4809 75.3623 12.5463Z" fill="#F2304B"/>
<path opacity="0.26" d="M20.428 11.4862L20.7723 11.6153C20.7578 11.5611 20.6406 11.5002 20.428 11.4862Z" fill="#F2304B"/>
<path opacity="0.26" d="M8.46204 12.8042C8.46936 12.8159 8.48402 12.8281 8.49137 12.8286C8.51342 12.8301 8.4914 12.8174 8.46204 12.8042Z" fill="#F2304B"/>
<path opacity="0.26" d="M13.1555 13.0897C13.2581 13.0755 13.3755 13.0519 13.4928 13.0283C13.3462 13.0292 13.1703 13.0386 13.1555 13.0897Z" fill="#F2304B"/>
<path opacity="0.26" d="M13.6542 12.9785L13.4929 13.0099C13.5808 13.0051 13.6542 12.9994 13.6542 12.9785Z" fill="#F2304B"/>
<path opacity="0.26" d="M252.998 12.5036C253.276 12.521 253.554 12.4883 253.826 12.405L252.998 12.5036Z" fill="#F2304B"/>
<path opacity="0.26" d="M138.35 12.1596L138.277 12.211C138.35 12.1935 138.365 12.1719 138.35 12.1596Z" fill="#F2304B"/>
<path opacity="0.26" d="M253.427 11.3004L253.661 11.3428C253.581 11.3191 253.5 11.3048 253.427 11.3004Z" fill="#F2304B"/>
<path opacity="0.26" d="M26.7643 10.7061C27.1089 10.5905 27.8189 10.7317 27.8119 10.6141C27.4457 10.6307 26.926 10.55 26.7643 10.7061Z" fill="#F2304B"/>
<path opacity="0.26" d="M146.394 6.7646L146.621 6.7684C146.512 6.75463 146.446 6.75923 146.394 6.7646Z" fill="#F2304B"/>
<path opacity="0.26" d="M253.428 11.3037L253.157 11.2451C253.179 11.2671 253.208 11.2896 253.237 11.3121C253.296 11.3056 253.362 11.2995 253.428 11.3037Z" fill="#F2304B"/>
<path opacity="0.26" d="M177.998 12.2095L177.984 12.2085L177.903 12.2239L177.998 12.2095Z" fill="#F2304B"/>
<path opacity="0.26" d="M180.095 12.4577L179.648 12.478C179.795 12.496 179.949 12.4958 180.095 12.4577Z" fill="#F2304B"/>
<path opacity="0.26" d="M253.826 12.3591L254.309 12.2989C254.148 12.2988 253.987 12.3189 253.826 12.3591Z" fill="#F2304B"/>
<path opacity="0.26" d="M202.765 12.422L202.56 12.4282C202.626 12.432 202.699 12.4362 202.765 12.422Z" fill="#F2304B"/>
<path opacity="0.26" d="M73.7681 12.5172L73.5851 12.4856C73.563 12.5144 73.5776 12.5354 73.7681 12.5172Z" fill="#F2304B"/>
<path opacity="0.26" d="M88.5639 8.5294C88.8496 8.54768 89.1282 8.50383 89.3997 8.39785C89.1139 8.37958 88.8353 8.42343 88.5639 8.5294Z" fill="#F2304B"/>
<path opacity="0.26" d="M91.1917 8.40545L91.0966 8.39085C91.1258 8.40164 91.1624 8.40376 91.1917 8.40545Z" fill="#F2304B"/>
<path opacity="0.26" d="M74.358 8.52362L74.358 8.53526C74.3654 8.53578 74.3654 8.52414 74.3654 8.52414L74.358 8.52362Z" fill="#F2304B"/>
<path opacity="0.26" d="M77.6946 8.41305C77.7678 8.43748 77.8483 8.46237 77.9289 8.46738C77.8484 8.44249 77.7678 8.42754 77.6946 8.41305Z" fill="#F2304B"/>
<path opacity="0.26" d="M99.4928 7.84696C99.4854 7.84646 99.4854 7.85759 99.4928 7.84696L99.5074 7.8591L99.4928 7.84696Z" fill="#F2304B"/>
<path opacity="0.26" d="M130.88 8.22652C127.726 8.18448 123.643 8.26146 120.511 8.14265C119.633 8.27115 118.74 8.32823 117.847 8.29337L117.739 8.0619L116.911 8.115C116.575 8.03554 117.548 8.08833 116.949 7.98942L116.641 8.12351C116.575 8.04262 114.505 8.01608 115.896 7.89042L112.669 7.81665C111.952 7.79004 112.258 7.99543 111.468 7.92295C111.308 7.85174 111.754 7.88685 111.681 7.79854C109.304 7.57369 108.95 8.17957 106.741 8.01919L106.931 7.99277C106.558 8.04596 105.841 8.02643 105.833 8.05437C106.125 8.29444 106.229 7.93856 106.901 8.09041C106.849 8.28603 106.059 8.17819 106.11 8.32911C105.686 8.29504 105.261 8.30339 104.836 8.35418C104.069 8.21908 102.964 8.28034 102.379 8.11847C101.859 8.25674 101.324 8.33773 100.775 8.34732C100.191 8.18545 100.908 8.20498 100.118 8.1325L99.9929 8.24689C99.3418 8.21631 99.4444 8.18575 99.4666 8.13728C98.9907 8.19274 98.5076 8.21249 98.0248 8.1898L98.5083 8.09226C97.8642 8.12566 97.6009 8.09915 96.7083 8.07136C96.7233 8.0084 97.0818 8.01816 97.3524 8.04503C96.8631 7.8664 96.5252 8.09813 96.2619 8.07869C96.3348 8.13163 96.9566 8.16084 96.656 8.26698C96.2098 8.23895 95.7114 8.39946 95.3975 8.26445L95.8809 8.1669C95.3682 8.256 94.8486 8.28111 94.3293 8.23549C94.3878 8.23117 94.3587 8.2015 94.3808 8.17424C93.539 8.23373 92.6829 8.22181 91.8346 8.12536L92.025 8.09894C91.6224 8.12954 91.4097 8.22566 91.1902 8.21535C91.7606 8.29167 91.6067 8.31981 91.6574 8.4283C90.9048 8.22317 90.5222 8.62257 89.2936 8.48703C89.3085 8.42407 89.6016 8.35295 89.9451 8.42568C90.2976 8.18757 90.7155 8.04449 91.1474 8.00819C90.6862 8.04312 90.1373 8.05977 90.2548 7.9804L90.1149 8.15776C89.8368 8.15884 89.61 8.14112 89.3979 8.13822C89.2802 8.24588 89.9676 8.33477 89.3233 8.39647C88.5913 8.43989 88.9292 8.20817 88.819 8.28081C87.809 8.33239 88.4083 8.46666 87.4355 8.38559C87.5527 8.3628 87.6771 8.3545 87.8015 8.36741C87.0994 8.28491 86.0892 8.36479 85.8781 8.14972C85.9883 8.07 86.1275 8.0341 86.2664 8.06185L86.2298 8.0672C86.9916 7.92613 85.593 8.09388 85.8282 7.90685C85.8861 8.02276 84.9058 7.9767 84.4596 7.95574L84.6052 8.08992C83.1471 8.46002 84.6798 7.83167 83.2234 7.86229C82.301 7.93922 83.5744 7.90708 83.0106 7.9867C82.4256 7.90263 81.8331 7.86772 81.2404 7.87524C80.9845 7.82078 80.4654 7.7398 80.415 7.59594C79.7492 7.56467 79.0833 7.5829 78.4171 7.64356C79.3676 7.78019 79.3544 7.50367 80.4656 7.71151L80.1575 7.85267C79.3893 7.83072 78.4084 7.89076 77.8819 7.83065C77.9915 7.85702 78.0352 7.90152 77.9692 7.92672C77.1565 8.01587 76.3294 8.05483 75.5026 8.04428C75.357 7.91011 75.9788 7.93932 76.4325 7.93941C75.8401 7.87621 75.2475 7.84837 74.6548 7.86297C74.5968 7.74706 75.3718 7.8825 75.4894 7.76777L74.3113 7.78316C74.3186 7.77643 74.3113 7.76902 74.3114 7.76194C74.1494 7.95241 73.4115 7.73382 72.6941 7.77793C71.7356 7.7612 70.7545 7.88488 69.8238 8.13828C69.568 8.08382 69.4951 8.03087 69.5978 7.98618C70.0217 8.07683 69.9416 8.0094 70.0882 7.9597C69.5101 7.96791 68.8234 7.75172 69.1457 7.68197C68.2308 7.72388 69.4817 7.78972 68.918 7.84105L67.6669 7.81057C67.8201 7.90973 68.259 7.93743 67.6147 8.0062C67.0658 8.02285 66.8024 8.00341 66.0927 7.98422C66.1954 7.93952 65.8594 7.83177 66.4008 7.84306C66.0353 7.78344 65.662 7.80127 65.3104 7.87672C66.0928 7.97714 64.0295 7.94388 64.6213 8.10609L63.8242 8.01205C63.9998 8.01323 64.0221 7.95061 64.2854 7.97005C64.0594 7.81795 63.6486 8.0038 63.3778 8.01938C63.0266 8.00995 62.6756 7.97224 62.3247 7.90623C62.0025 7.94769 61.6734 7.91808 61.3592 7.83258C60.9932 7.85783 61.3294 7.93022 61.2267 7.97491L59.9756 7.9515C59.9028 7.87027 59.7943 7.6388 59.9847 7.61237C59.516 7.68231 59.8224 7.85234 59.1127 7.84022C59.516 7.68231 58.1621 7.71067 58.7485 7.526C58.01 7.41349 57.2639 7.37843 56.5245 7.43566C56.1287 7.55855 57.2265 7.51816 57.182 7.6434C55.3744 7.67167 55.2701 8.02756 53.946 7.9512L54.2897 7.98857C53.8799 7.99762 53.4772 8.04944 53.0816 8.14404C53.3019 7.98461 52.1253 7.70296 50.7715 7.72425C50.6613 7.80396 51.5389 7.88764 51.3188 8.0117L50.426 8.02635C50.3602 8.01619 50.4554 7.98529 50.5726 7.96958C49.7674 8.01664 49.0591 7.74284 48.8313 7.93021L47.9984 7.68593L48.3271 7.78627C47.9316 7.85258 47.529 7.89733 47.1264 7.90671C46.5406 7.98531 45.9335 7.94971 45.3488 7.80905C45.5094 7.88027 45.9184 8.03389 45.1939 8.04937C45.1953 7.78769 43.6652 7.93511 43.6805 7.80849C43.3878 7.80889 42.8614 7.72756 42.8315 7.83935L42.8762 7.67874C42.8165 7.90231 41.7409 7.89422 40.9212 7.92646C41.0984 7.61644 40.021 7.94783 39.642 7.66828C39.4945 7.88065 38.1854 7.74841 38.0528 7.92611C37.4161 7.93157 37.4757 7.74336 37.3151 7.67215L37.0219 7.75034C36.7005 7.65035 35.5152 7.63711 34.8057 7.56841L34.1535 7.74999L33.9052 7.66758C33.8025 7.71228 33.2608 7.74343 33.5971 7.80874L33.2459 7.79932C33.2229 8.00339 32.748 7.85375 32.0378 7.94064C31.8697 7.90445 31.9138 7.857 32.0676 7.83593C31.7164 7.83358 31.8633 7.72729 31.6661 7.66143C31.9219 7.7159 30.4056 8.01959 31.3637 8.11412C31.4364 8.19536 30.88 8.25411 30.5289 8.21639L30.3104 8.03634L29.8996 8.22927C29.4899 8.2171 29.0803 8.1837 28.6782 8.11529C29.1319 8.10831 29.6679 7.76563 28.5044 7.76757C28.9143 7.74438 29.3244 7.68583 29.7273 7.60572C29.4858 7.60145 29.3615 7.58146 29.7351 7.50705C28.8274 7.56344 29.4345 7.62026 28.5343 7.64164C28.5791 7.48103 28.3233 7.42657 27.5333 7.36823L28.1254 7.48801C28.0887 7.50751 28.052 7.52701 28.0154 7.53237C28.2421 7.55009 28.3079 7.5744 28.3587 7.64046C28.1831 7.63929 27.3186 7.83919 27.1655 7.74003C28.0861 7.99551 25.5912 7.9349 26.1758 8.08262C25.912 8.14097 25.6414 8.12826 25.3783 8.05931C26.1253 7.93877 24.8012 7.87656 24.9189 7.76183C24.6406 7.80535 25.5183 7.88195 25.1375 7.94188C24.7862 7.93952 24.4426 7.88801 24.0991 7.80113L24.2823 7.76729L23.5875 7.6922C23.4773 7.77192 24.2673 7.82318 23.6305 7.87108C23.4623 7.83488 22.8182 7.88244 22.8404 7.81981C23.1411 7.7066 22.915 7.56157 23.4566 7.53042C23.0029 7.54448 21.5685 7.56906 22.1532 7.71678L21.6117 7.71257C21.9553 7.77823 22.9059 7.89363 21.8228 7.92764L21.8303 7.89262L21.0905 8.02057L20.7617 7.94145C20.7761 7.98458 20.6588 8.02151 20.3807 8.0226C20.3078 7.97673 20.0372 7.95694 20.0594 7.89431C19.2471 7.90567 19.3199 7.98691 19.2172 8.03867C18.7634 8.05273 18.5953 8.02361 18.8007 7.92007C18.0909 7.92917 17.3812 7.90997 16.6717 7.84835C15.8445 7.92267 16.8472 7.87781 16.3636 7.99658C15.6334 7.71467 13.6128 7.90272 12.2661 7.94556C12.6453 8.18975 11.9001 7.97789 11.6574 8.19994C11.9433 8.10725 10.356 8.00438 11.5418 7.92568L10.8172 7.95531C10.3203 7.82585 12.0105 7.84866 11.2505 7.6644C10.4962 7.78459 9.73479 7.85494 8.96639 7.86836C9.27466 7.69184 8.23431 7.933 8.46218 7.73856C8.70389 7.69332 8.94549 7.6693 9.19426 7.67391L9.01884 7.63737C7.24093 7.59629 8.52014 7.84739 7.59748 7.97383C6.51436 8.00076 6.73473 7.84133 6.66198 7.7601C6.33282 7.73756 5.99615 7.75004 5.66658 7.8053C6.32573 7.69478 6.89537 7.90547 6.59475 8.01869C5.95875 7.90391 5.31471 7.92318 4.69915 8.09234C6.2567 8.29285 5.77477 8.10042 7.2371 8.31768C7.43499 8.25624 7.39204 8.07736 8.26248 8.13948C7.72049 8.23428 8.30585 8.24056 8.45936 8.26899C8.29159 8.16914 9.06697 8.21972 9.33063 8.17551C9.57898 8.25792 8.82443 8.42055 9.70965 8.45507L9.86459 8.21475C10.201 8.2447 9.7173 8.39176 10.4494 8.32711C10.0609 8.45742 10.5801 8.52425 9.59196 8.5698C10.791 8.76761 11.4073 8.44993 12.3298 8.35179C12.2346 8.36854 12.2271 8.39648 12.1319 8.41323C12.4029 8.3623 12.6812 8.33292 12.9592 8.33184C13.5736 8.38192 12.483 8.44387 12.6436 8.50801L13.6316 8.49783C13.6535 8.50594 13.6534 8.51301 13.6534 8.51301C13.8439 8.46536 14.0562 8.46119 14.2535 8.5129C13.9677 8.59144 13.8502 8.67081 13.6595 8.73967L14.6849 8.56854C14.5747 8.64826 15.5476 8.70104 14.8155 8.76568L16.3451 8.72435L16.4833 8.88648C16.8493 8.85416 16.8568 8.82621 16.4178 8.80559C16.9445 8.83741 18.7244 8.50365 18.4666 8.8311C19.6674 8.68943 20.0989 8.738 21.5555 8.6508C20.4424 8.81073 22.8497 8.83186 21.6639 8.91056C22.1321 8.91841 22.5934 8.86934 23.0476 8.77042C23.5668 8.83725 23.3464 8.99668 22.7899 9.0625L23.4416 8.98701L23.4341 9.02203L23.998 8.92826C24.6049 9.02044 24.1289 9.09004 24.7507 9.11925L24.8759 8.97657L25.2998 9.06016C25.1392 8.99602 25.5052 8.96369 25.9516 8.95637L25.9441 8.99139L26.4931 8.96766C25.9511 9.05538 26.9978 8.99844 26.7484 9.10699C27.2167 9.11484 27.224 9.11519 28.073 9.0914L27.9198 8.99224C29.0179 8.90942 27.9703 9.1361 28.8629 9.14974L28.805 9.03383C30.0991 9.22904 30.9861 8.93114 31.9367 9.05362C31.3951 9.07769 31.5334 9.21153 31.5483 9.17685C32.368 9.13755 33.6996 9.17181 34.5418 9.03452C34.9286 9.2437 35.3744 9.34953 35.8062 9.32737C36.4428 9.32191 36.5307 9.30482 36.7361 9.20835C37.3362 9.1941 37.9361 9.22228 38.5357 9.29997C38.6753 9.20749 39.0918 9.31902 39.4214 9.24255L39.4944 9.28842L39.4365 9.17251C40.5327 9.42916 41.2665 9.03211 42.3703 9.26082L42.1798 9.29432L42.6411 9.25232C42.7139 9.30526 42.5309 9.33203 42.5086 9.39465L44.6524 9.42463L44.2285 9.33397C44.6459 9.27576 45.0703 9.26741 45.5019 9.29476C44.6522 9.45999 46.2117 9.30688 46.3573 9.44106L45.8961 9.48306C46.5254 9.47725 46.5254 9.47725 46.4675 9.36134C47.2799 9.32877 47.037 9.58618 47.7841 9.46564L47.2499 9.4547C47.0893 9.38348 47.4703 9.29527 47.8288 9.30504C47.9165 9.32331 48.1723 9.37777 47.8942 9.38593C48.5384 9.34545 49.5039 9.4191 49.7822 9.37558C50.1332 9.4133 50.023 9.49301 49.8326 9.51944C51.2014 9.43519 50.4545 9.54865 51.8306 9.45767L51.8083 9.52029L52.277 9.45034L52.9568 9.59547L52.7158 9.50633C53.133 9.47641 53.5574 9.47513 53.9744 9.49472L53.7617 9.59084C55.0351 9.55163 55.2389 9.76635 56.4469 9.64625C56.5273 9.66417 56.3442 9.69094 56.249 9.70769C57.3693 9.56932 57.1042 9.88935 58.2247 9.71562C58.1586 9.74789 58.2828 9.78909 58.2388 9.81532L58.7513 9.76158L58.714 9.89424L59.1247 9.70838L59.446 9.84374L59.6439 9.78229C60.1987 10.0347 60.9679 9.85864 61.7279 10.05L61.5971 9.8882C63.4794 9.55925 65.9351 10.1203 68.2187 10.0012L68.1815 10.1268L69.126 10.0085C69.6377 10.1174 68.8255 10.1146 68.9861 10.1858C69.9962 10.1272 69.4041 10.0003 70.575 9.9775C71.1819 10.0768 70.3697 10.074 70.0841 10.1101C71.2479 10.0445 72.4187 10.0358 73.5892 10.0979C73.6039 10.0844 73.6552 10.0585 73.6114 10.0494C74.3434 10.006 75.3162 10.0729 76.1211 10.0824C76.0988 10.145 75.9012 10.1499 75.7036 10.1548C76.0181 10.1908 76.3327 10.1914 76.6402 10.1563L76.3396 10.2625C76.9911 10.2294 77.6495 10.2533 78.3003 10.3404C78.2274 10.2875 78.2499 10.1895 78.7913 10.2079C79.0902 10.4129 80.2478 10.149 81.1106 10.2673C81.0079 10.312 80.3786 10.3107 80.5542 10.319C80.9565 10.352 81.3591 10.3214 81.7474 10.2336L81.6372 10.3133L83.6426 10.2306C83.9488 10.436 85.5305 10.2274 85.398 10.3697C86.115 10.3892 84.7985 10.2708 85.6986 10.2636C85.9396 10.3527 86.5183 10.2384 86.481 10.3711L86.3858 10.3807L87.0151 10.382L86.6194 10.4978C87.1609 10.4808 87.564 10.3653 87.5865 10.2674C88.084 10.2837 88.5813 10.3353 89.0784 10.4223L88.888 10.4488C90.337 10.4249 91.3006 10.8451 92.4359 10.6508C92.5236 10.6691 92.5088 10.7038 92.3332 10.6955L93.2331 10.7236L93.0204 10.8127L94.4992 10.6912L94.4842 10.7541C95.4645 10.8002 96.9939 10.7942 98.2524 10.8038L98.062 10.8302C99.438 10.7605 99.3933 10.9211 100.396 10.8691C100.367 10.8819 100.33 10.8943 100.293 10.8926L101.201 10.907L101.003 10.9684C101.508 10.9497 102.005 10.9801 102.51 11.0604C102.898 11.0291 103.279 10.9621 103.652 10.8665C104.64 10.8775 103.893 10.9556 104.508 11.0199C105.225 11.0394 105.342 10.9317 106.315 11.0057L106.3 11.0687C106.754 11.0688 107.032 11.0253 107.661 11.0336L107.471 11.06C108.496 10.9455 108.758 11.2832 109.557 11.0165C109.988 11.0793 110.808 11.0612 110.77 11.1868C112.051 11.1337 113.047 11.1168 114.32 11.0988C114.531 11.3139 114.591 11.0903 115.366 11.2329L115.308 11.1169C117.108 11.1449 119.177 11.4756 121.16 11.4768L121.218 11.5927L121.613 11.4769C123.749 11.5843 126.515 11.6859 128.22 11.7377C128.974 11.6458 129.742 11.6112 130.51 11.6472L130.415 11.664C131.959 11.6375 133.584 11.636 135.266 11.7504C135.163 11.7951 135.332 11.8313 135.141 11.8577C135.588 11.8009 136.041 11.8151 136.487 11.8927L136.063 11.7949C136.532 11.7321 137.015 11.7689 137.475 11.9108L138.229 11.8047C138.281 11.8142 138.354 11.8389 138.368 11.8537L138.5 11.7962L138.902 11.9566C139.407 11.9449 139.912 11.8908 140.403 11.7866C140.476 11.8395 141.185 11.8941 140.636 11.9107L143.402 12.0336L142.97 11.9709C142.912 11.8549 143.747 11.8093 144.171 11.8716C143.607 11.9513 144.126 12.0322 144.367 12.1214C144.74 12.0682 144.038 12.014 144.236 11.9525C144.807 11.8874 145.385 11.8792 145.956 11.9343L145.678 11.9707C146.322 11.9444 146.621 12.1565 147.25 12.1578C147.814 12.0781 148.238 12.183 148.114 11.9791C148.934 11.961 148.435 12.1215 148.699 12.148C149.255 12.0822 149.826 12.1232 150.381 12.2624C150.829 11.9864 152.59 12.4299 152.76 12.1973L153.432 12.3562C153.454 12.2936 153.587 12.1513 154.128 12.1414C154.64 12.2291 154.522 12.3367 154.683 12.4079L155.028 12.1766C157.997 12.5283 161.905 12.4713 165.16 12.7799C166.608 12.7701 168.438 12.7217 170.128 12.8152L169.938 12.8416L171.62 12.9631L170.399 12.8138C170.765 12.7956 171.05 12.7595 171.409 12.7763C173.603 12.9997 175.805 13.1031 178 13.0931C179.472 12.8651 178.979 13.3725 180.392 13.2125C180.275 13.2353 180.223 13.2753 180.121 13.2988C181.643 13.2572 182.463 13.2391 183.985 13.1267C183.816 13.3946 184.973 13.1518 184.841 13.2942L184.966 13.1869C185.302 13.2663 186.099 13.3179 185.989 13.3976L186.663 13.2807L186.721 13.3967C187.613 13.4386 189.523 13.4151 189.99 13.6634C192.193 13.5689 195.675 13.7466 198.441 13.8907C199.048 13.8272 199.656 13.8133 200.27 13.8422L200.943 14.0011C201.58 13.9179 202.216 13.9053 202.86 13.9497C202.86 13.9639 202.831 13.9766 202.787 13.9817C203.416 14.0254 204.045 14.0266 204.667 13.971C205.384 14.0046 206.079 14.108 205.859 14.225C205.926 14.0018 207.373 14.3174 207.373 14.3174C207.373 14.3174 216.546 14.7979 226.84 15.2036C237.133 15.6094 248.547 15.9475 253.019 15.5846C253.276 15.4906 254.015 15.4617 253.753 15.3149C253.965 15.3107 254.184 15.3352 254.389 15.3943C254.447 15.4112 254.506 15.421 254.564 15.4308C254.586 15.4319 254.608 15.4329 254.63 15.4269C254.637 15.4272 254.652 15.4208 254.659 15.4212L254.674 15.4148L254.681 15.4081C254.756 15.164 254.823 14.9195 254.897 14.6683C254.83 14.8916 254.763 15.1219 254.704 15.3454C254.681 15.4293 254.689 15.3943 254.689 15.4013L254.674 15.4006L254.659 15.4L254.63 15.3986L254.572 15.3888C254.542 15.3803 254.513 15.3789 254.484 15.3634C254.44 15.3472 254.418 15.332 254.404 15.3172C254.382 15.2808 254.426 15.2475 254.463 15.2139C254.544 15.1398 254.639 15.0594 254.245 14.9702L254.771 14.9737C254.896 14.9017 254.04 15.0171 254.201 14.8903L254.017 15.0868C253.747 15.067 253.483 15.0051 253.235 14.8944C252.707 15.096 252.129 15.1467 251.559 15.0491L251.837 15.048C251.025 15.017 251.34 14.8903 251.172 14.847L251.355 14.8556L250.675 14.7176C251.194 14.8127 252.051 14.6902 251.605 14.6764C250.639 14.5673 251.853 14.7375 251.129 14.7318C250.675 14.7176 250.807 14.6177 250.822 14.5476L250.01 14.5166C250.04 14.4189 250.544 14.5487 250.216 14.4342L249.191 14.4851C249.002 14.2287 248.078 14.5461 247.619 14.291C248.351 14.2688 247.553 14.2031 247.671 14.1308L245.871 14.0604C245.703 14.0171 246.347 14.0049 246.069 14.006C245.82 13.9731 245.571 13.9826 245.33 14.0278C245.176 13.957 243.991 13.972 244.036 13.8114C242.815 13.6479 243.523 13.9925 242.382 13.8469C242.236 13.741 243.282 13.8609 242.777 13.7382L241.6 13.7182C241.798 13.6072 242.039 13.5691 242.273 13.6084C239.084 13.3312 237.368 12.7412 234.448 12.7455C234.039 12.6131 234.741 12.6815 235.034 12.6174C232.919 12.6808 232.066 12.2304 230.266 12.167L230.236 12.2647C227.728 11.8568 224.713 11.9203 221.883 11.6742L222.219 11.7536C221.728 11.8084 221.23 11.8416 220.733 11.8394C220.66 11.7865 221.071 11.6431 220.251 11.6541C220.419 11.6974 220.77 11.7492 220.667 11.7868C218.233 11.4319 213.096 11.2968 209.103 11.0242C203.696 10.8834 197.829 10.4875 192.518 10.3583C193.33 10.3823 192.985 10.6066 192.37 10.5282C190.697 10.0605 189.48 10.4915 187.77 10.1564C184.674 10.1737 181.911 9.73261 179.041 9.9515L178.983 9.8356C178.647 9.80564 178.317 9.80432 177.988 9.83836L177.995 9.80334C176.928 9.72487 175.639 9.79876 175.025 9.72039L174.988 9.84597C174.351 9.83729 174.659 9.73856 174.008 9.78577L174.023 9.72281L173.268 9.82178C173.343 9.5989 171.483 9.745 170.972 9.62193C170.152 9.63294 168.601 9.68031 167.357 9.59359C166.45 9.45196 165.544 9.36691 164.629 9.33809C162.734 9.31273 160.034 9.26371 157.627 9.15064L157.67 9.30122L157.041 9.29288C157.049 9.25786 156.968 9.23994 157.056 9.22991C156.567 9.05129 155.607 9.23966 155.096 9.11659C155.417 9.25902 155.535 9.15136 155.893 9.1682C156.412 9.25625 155.921 9.38174 155.219 9.2851L155.234 9.25042L154.758 9.31295C154.707 9.19739 154.269 9.12726 154.218 9.01169C152.147 8.97808 150.742 9.13134 148.606 9.00977C148.826 8.8857 147.069 8.99417 147.495 8.78779C146.214 8.83373 147.706 8.97457 147.127 9.11716C146.769 9.10031 146.395 9.15351 146.33 9.07262C146.498 9.02395 146.038 8.93157 146.33 8.91703L145.474 8.91218C145.394 8.89425 145.584 8.86783 145.672 8.85781C143.93 8.93867 142.571 8.62721 141.012 8.71667C140.894 8.79604 141.634 8.76003 141.523 8.83267C139.95 8.94974 140.127 8.65387 138.663 8.72658L138.963 8.62751C138.487 8.73248 137.989 8.75154 137.5 8.67194C137.361 8.5381 138.159 8.58264 138.532 8.52944C137.998 8.51142 136.637 8.50408 137.053 8.63683C136.644 8.64587 136.234 8.59833 135.825 8.49422C135.817 8.52924 136.424 8.6002 136.051 8.64632C135.173 8.5485 133.827 8.51355 132.759 8.47752C132.766 8.4425 132.694 8.39663 132.789 8.37988C131.932 8.53062 132.021 8.2377 130.836 8.23861" fill="#F2304B"/>
<path opacity="0.26" d="M73.9266 8.4899L74.3588 8.52785C74.359 8.48671 74.3738 8.43621 74.5717 8.39744L73.9266 8.4899Z" fill="#F2304B"/>
<path opacity="0.26" d="M94.3835 8.16508C94.4349 8.1576 94.4864 8.13918 94.5378 8.10982C94.435 8.12479 94.3983 8.14419 94.3835 8.16508Z" fill="#F2304B"/>
<path opacity="0.26" d="M99.355 7.6938C99.0024 7.72507 99.318 7.79057 99.4941 7.84663C99.5015 7.81404 99.4943 7.7584 99.355 7.6938Z" fill="#F2304B"/>
<path opacity="0.26" d="M62.3446 9.41704C62.4183 9.39933 62.4626 9.36815 62.4554 9.32197C62.3521 9.37188 62.3299 9.39318 62.3446 9.41704Z" fill="#F2304B"/>
<path opacity="0.26" d="M30.3137 10.5768L30.4455 10.6043C30.3943 10.5914 30.3577 10.5794 30.3137 10.5768Z" fill="#F2304B"/>
<path opacity="0.26" d="M32.0887 10.8297C32.2132 10.8276 32.3304 10.8251 32.4477 10.8033C32.3305 10.7962 32.2133 10.8084 32.0887 10.8297Z" fill="#F2304B"/>
<path opacity="0.26" d="M70.1092 9.09911C70.2191 9.09589 70.3364 9.0829 70.4464 9.049C70.3292 9.04153 70.2192 9.05498 70.1092 9.09911Z" fill="#F2304B"/>
<path opacity="0.26" d="M32.8216 10.7044L33.2681 10.7212C33.2681 10.712 33.2755 10.7033 33.2755 10.6849L32.8216 10.7044Z" fill="#F2304B"/>
<path opacity="0.26" d="M29.7434 10.5598C29.919 10.561 30.1531 10.5651 30.3067 10.5807C30.1239 10.548 29.9337 10.5383 29.7434 10.5598Z" fill="#F2304B"/>
<path opacity="0.26" d="M50.5891 10.1149L50.6404 10.1076C50.9852 10.0352 50.7652 10.063 50.5891 10.1149Z" fill="#F2304B"/>
<path opacity="0.26" d="M34.7649 10.2506L34.8235 10.2545L34.9557 10.1988L34.7649 10.2506Z" fill="#F2304B"/>
<path opacity="0.26" d="M27.8122 10.5709C27.8855 10.5652 27.9588 10.5596 28.0322 10.5332L27.7757 10.5062C27.8049 10.5393 27.8122 10.5605 27.8122 10.5709Z" fill="#F2304B"/>
<path opacity="0.26" d="M43.8744 10.0401C43.749 10.1228 43.7046 10.1769 43.6972 10.2106C43.8519 10.21 43.9478 10.1709 43.8744 10.0401Z" fill="#F2304B"/>
</g>
</g>
</g>
</g>
</g>
<defs>
<clipPath id="clip0_1_912">
<rect width="255" height="24" fill="white"/>
</clipPath>
</defs>
</svg>
