<svg width="44" height="45" viewBox="0 0 44 45" fill="none" xmlns="http://www.w3.org/2000/svg">
<circle cx="22" cy="22.103" r="22" fill="white"/>
<path d="M17.0291 31.103H13.2973V18.4177H17.0291V31.103ZM15.1612 16.6873C13.9679 16.6873 13 15.644 13 14.3844C13 13.7793 13.2277 13.199 13.633 12.7712C14.0383 12.3434 14.588 12.103 15.1612 12.103C15.7344 12.103 16.2841 12.3434 16.6894 12.7712C17.0947 13.199 17.3224 13.7793 17.3224 14.3844C17.3224 15.644 16.3541 16.6873 15.1612 16.6873ZM30.996 31.103H27.2722V24.9279C27.2722 23.4562 27.2441 21.5689 25.332 21.5689C23.3918 21.5689 23.0945 23.1678 23.0945 24.8219V31.103H19.3667V18.4177H22.9458V20.1481H22.998C23.4963 19.1514 24.7133 18.0996 26.5289 18.0996C30.3057 18.0996 31 20.7249 31 24.1348V31.103H30.996Z" fill="#003383"/>
</svg>
