<svg width="64" height="60" viewBox="0 0 64 60" fill="none" xmlns="http://www.w3.org/2000/svg">
<path d="M40.25 48.125C45.764 48.125 50.25 52.611 50.25 58.125C50.25 58.8153 50.8097 59.375 51.5 59.375C52.1903 59.375 52.75 58.8153 52.75 58.125C52.75 52.611 57.236 48.125 62.75 48.125C63.4403 48.125 64 47.5653 64 46.875C64 46.1847 63.4403 45.625 62.75 45.625C57.236 45.625 52.75 41.139 52.75 35.625C52.75 34.9348 52.1903 34.375 51.5 34.375C50.8097 34.375 50.25 34.9348 50.25 35.625C50.25 41.139 45.764 45.625 40.25 45.625C39.5598 45.625 39 46.1847 39 46.875C39 47.5653 39.5598 48.125 40.25 48.125ZM51.5 41.0714C52.727 43.5956 54.7792 45.6479 57.3036 46.875C54.7794 48.102 52.7271 50.1542 51.5 52.6786C50.273 50.1544 48.2208 48.1021 45.6964 46.875C48.2208 45.648 50.273 43.5958 51.5 41.0714Z" fill="#1A36A8"/>
<path d="M1.25 10.625C4.69625 10.625 7.5 13.4288 7.5 16.875C7.5 17.5653 8.05962 18.125 8.75 18.125C9.44038 18.125 10 17.5653 10 16.875C10 13.4288 12.8038 10.625 16.25 10.625C16.9404 10.625 17.5 10.0653 17.5 9.375C17.5 8.68475 16.9404 8.125 16.25 8.125C12.8038 8.125 10 5.32125 10 1.875C10 1.18475 9.44038 0.625 8.75 0.625C8.05962 0.625 7.5 1.18475 7.5 1.875C7.5 5.32125 4.69625 8.125 1.25 8.125C0.559625 8.125 0 8.68475 0 9.375C0 10.0653 0.559625 10.625 1.25 10.625ZM8.75 6.378C9.48913 7.60425 10.5208 8.636 11.7469 9.375C10.5206 10.114 9.489 11.1458 8.75 12.372C8.01087 11.1458 6.97925 10.114 5.75313 9.375C6.97925 8.636 8.01087 7.60425 8.75 6.378Z" fill="#1A36A8"/>
<path d="M34.875 36C35.5654 36 36.125 35.4404 36.125 34.75C36.125 34.0596 35.5654 33.5 34.875 33.5C34.1846 33.5 33.625 34.0596 33.625 34.75C33.625 35.4404 34.1846 36 34.875 36Z" fill="#1A36A8"/>
<path d="M38.2098 31.8993C38.5619 32.4929 39.329 32.6886 39.9226 32.3363C43.1874 30.399 46.9314 29.375 50.75 29.375C51.4403 29.375 52 28.8153 52 28.125C52 27.4347 51.4403 26.875 50.75 26.875C39.0327 26.875 29.5 17.3422 29.5 5.625C29.5 4.93475 28.9404 4.375 28.25 4.375C27.5596 4.375 27 4.93475 27 5.625C27 17.3422 17.4672 26.875 5.75 26.875C5.05963 26.875 4.5 27.4347 4.5 28.125C4.5 28.8153 5.05963 29.375 5.75 29.375C17.4672 29.375 27 38.9077 27 50.625C27 51.3153 27.5596 51.875 28.25 51.875C28.9404 51.875 29.5 51.3153 29.5 50.625C29.5 46.8064 30.524 43.0624 32.4613 39.7976C32.8135 39.2039 32.6179 38.437 32.0243 38.0848C31.4301 37.7321 30.6635 37.9281 30.3114 38.5218C29.4659 39.9465 28.7761 41.4524 28.2491 43.0131C25.88 36.0286 20.3441 30.4935 13.3594 28.125C20.3449 25.7563 25.8813 20.2199 28.25 13.2344C30.6185 20.2191 36.1536 25.755 43.138 28.1241C41.5774 28.6511 40.0715 29.3409 38.6466 30.1864C38.0531 30.5387 37.8574 31.3055 38.2098 31.8993Z" fill="#1A36A8"/>
</svg>
