<svg width="472" height="34" viewBox="0 0 472 34" fill="none" xmlns="http://www.w3.org/2000/svg">
<path d="M400.9 8.70715C400.942 8.6752 400.969 8.62596 400.983 8.5762C400.915 8.62387 400.901 8.67363 400.9 8.70715Z" fill="#F2304B"/>
<path d="M364.392 8.01029L364.812 7.9471C364.677 7.94219 364.527 7.96815 364.392 8.01029Z" fill="#F2304B"/>
<path d="M422.776 9.08964C422.762 9.10118 422.735 9.10042 422.722 9.11196L424.265 9.15484L422.776 9.08964Z" fill="#F2304B"/>
<path d="M286.517 8.30293L287.005 8.29063C286.842 8.29944 286.68 8.29412 286.517 8.30293Z" fill="#F2304B"/>
<path d="M332.665 8.1135C332.462 8.16896 332.258 8.19299 332.041 8.20083C332.258 8.24012 332.475 8.20086 332.665 8.1135Z" fill="#F2304B"/>
<path d="M434.326 12.1987L433.703 11.9822C433.703 12.0789 433.933 12.168 434.326 12.1987Z" fill="#F2304B"/>
<path d="M456.498 11.6199C456.485 11.6028 456.458 11.5852 456.444 11.5681C456.417 11.6002 456.444 11.6178 456.498 11.6199Z" fill="#F2304B"/>
<path d="M447.844 10.7162C447.654 10.7248 447.437 10.748 447.22 10.7865C447.478 10.7803 447.817 10.7924 447.844 10.7162Z" fill="#F2304B"/>
<path d="M446.922 10.8357L447.22 10.7999C447.058 10.794 446.922 10.8047 446.922 10.8357Z" fill="#F2304B"/>
<path d="M3.84537 20.6432C3.18053 20.6982 2.51506 20.8328 1.8762 21.0319L3.84537 20.6432Z" fill="#F2304B"/>
<path d="M216.029 10.1449L216.165 10.0678C216.029 10.0791 216.002 10.1109 216.029 10.1449Z" fill="#F2304B"/>
<path d="M3.10287 22.465L2.62893 22.4637C2.77784 22.4682 2.94029 22.473 3.10287 22.465Z" fill="#F2304B"/>
<path d="M422.578 12.7028C421.94 12.8738 420.628 12.6359 420.64 12.8143C421.304 12.7926 422.265 12.9442 422.578 12.7028Z" fill="#F2304B"/>
<path d="M201.282 18.1927L200.862 18.2074C201.066 18.1998 201.187 18.2039 201.282 18.1927Z" fill="#F2304B"/>
<path d="M3.10285 22.4528L3.65851 22.4572C3.60457 22.4241 3.55062 22.391 3.483 22.373C3.34712 22.4149 3.22492 22.4416 3.10285 22.4528Z" fill="#F2304B"/>
<path d="M142.633 12.7006L142.66 12.7016L142.809 12.6591L142.633 12.7006Z" fill="#F2304B"/>
<path d="M138.736 12.5071L139.563 12.4294C139.278 12.4194 139.007 12.4403 138.736 12.5071Z" fill="#F2304B"/>
<path d="M1.87604 21.0793L0.775845 21.3098C1.14237 21.2596 1.50914 21.1774 1.87604 21.0793Z" fill="#F2304B"/>
<path d="M96.7867 14.5866L97.1664 14.5543C97.0445 14.5501 96.9089 14.5605 96.7867 14.5866Z" fill="#F2304B"/>
<path d="M335.63 8.16505L335.968 8.20809C336.009 8.16314 335.982 8.13124 335.63 8.16505Z" fill="#F2304B"/>
<path d="M308.23 13.7419C307.702 13.7227 307.186 13.7983 306.683 13.9844C307.211 13.9878 307.741 13.9127 308.23 13.7419Z" fill="#F2304B"/>
<path d="M303.366 13.9709L303.555 13.9919C303.487 13.9896 303.433 13.9732 303.366 13.9709Z" fill="#F2304B"/>
<path d="M334.511 13.8206L334.511 13.8035C334.497 13.803 334.497 13.82 334.497 13.82L334.511 13.8206Z" fill="#F2304B"/>
<path d="M328.348 13.9432C328.213 13.9076 328.064 13.8716 327.915 13.8663C328.064 13.9177 328.199 13.9379 328.348 13.9432Z" fill="#F2304B"/>
<path d="M288.026 14.8818L287.999 14.8641L288.026 14.8818Z" fill="#F2304B"/>
<path d="M229.946 17.5795C235.772 17.4109 243.32 17.0396 249.116 17.0863C250.731 16.7856 252.385 16.6348 254.037 16.6326L254.25 17.0717L255.782 16.9171C256.404 17.0447 254.603 17.0017 255.712 17.1581L256.283 16.8787C256.404 17.0312 260.238 16.9487 257.661 17.2868L263.634 17.2445C264.962 17.2456 264.396 16.8765 265.858 16.9764C266.155 17.1073 265.343 17.0683 265.463 17.2208C269.862 17.5074 270.51 16.3386 274.599 16.5074L274.246 16.5639C274.938 16.4369 276.265 16.4515 276.28 16.3844C275.742 15.9487 275.546 16.6182 274.302 16.3764C274.4 16.0012 275.848 16.1682 275.756 15.8815C276.541 15.9332 277.327 15.8903 278.114 15.7798C279.547 16.014 281.581 15.8345 282.661 16.1252C283.626 15.8446 284.616 15.673 285.619 15.6234C286.7 15.914 285.372 15.8994 286.834 16.0128L287.066 15.8039C288.258 15.8278 288.081 15.8898 288.04 15.9966C288.921 15.8621 289.816 15.8091 290.709 15.8371L289.814 16.0523C291.006 15.968 291.48 15.9964 293.146 16.0217C293.118 16.1424 292.454 16.1351 291.967 16.1063C292.871 16.4184 293.498 15.9652 293.986 15.994C293.851 15.8951 292.7 15.859 293.258 15.6468C294.083 15.6862 294.994 15.3499 295.588 15.5983L294.692 15.8134C295.628 15.6131 296.604 15.5491 297.565 15.6198C297.457 15.6299 297.51 15.6856 297.469 15.7384C299.028 15.5846 300.613 15.5802 302.183 15.7241L301.83 15.7806C302.576 15.7094 302.97 15.5191 303.376 15.5318C302.321 15.4041 302.606 15.3455 302.513 15.1399C303.905 15.4943 304.617 14.7194 306.89 14.9258C306.862 15.0466 306.319 15.2052 305.683 15.0772C305.029 15.5431 304.267 15.8435 303.454 15.9261C304.308 15.8448 305.325 15.7821 305.106 15.9374L305.367 15.5942C305.882 15.5834 306.301 15.61 306.694 15.5953C306.913 15.386 305.641 15.2515 306.834 15.0997C308.19 14.9801 307.563 15.4469 307.767 15.2912C309.638 15.1471 308.529 14.9232 310.329 15.0337C310.112 15.081 309.882 15.1008 309.652 15.0935C310.937 15.2285 312.822 15.0173 313.197 15.4345C312.992 15.5902 312.734 15.6632 312.491 15.615L312.505 15.5479C311.094 15.855 313.684 15.4633 313.247 15.8415C313.141 15.6219 314.956 15.6788 315.768 15.7178L315.499 15.4662C318.202 14.7266 315.359 15.9618 318.042 15.8702C319.75 15.7076 317.393 15.7958 318.437 15.6259C319.519 15.7679 320.616 15.8294 321.713 15.7962C322.186 15.8921 323.147 16.0304 323.239 16.317C324.471 16.3557 325.704 16.3133 326.938 16.1763C325.179 15.932 325.201 16.4732 323.146 16.0979L323.717 15.8321C325.139 15.8496 326.942 15.717 327.93 15.8156C327.727 15.7552 327.647 15.6851 327.769 15.6349C329.274 15.4523 330.806 15.3517 332.336 15.3457C332.605 15.5974 331.454 15.5477 330.614 15.5754C331.71 15.6774 332.807 15.7118 333.904 15.6787C334.011 15.8982 332.577 15.6641 332.358 15.8734L334.54 15.8067C334.526 15.8198 334.539 15.8337 334.539 15.8472C334.854 15.4787 336.205 15.886 337.533 15.779C339.362 15.7688 341.166 15.5146 342.904 15.0016C343.377 15.0975 343.512 15.1963 343.321 15.2849C342.551 15.1256 342.685 15.2514 342.413 15.3375C343.484 15.3035 344.753 15.7082 344.156 15.8516C345.85 15.7426 343.548 15.6569 344.579 15.5406L346.894 15.5727C346.612 15.3881 345.8 15.3356 346.993 15.1974C348.009 15.1482 348.496 15.1905 349.81 15.2047C349.62 15.2933 350.227 15.488 349.239 15.4705C349.915 15.5728 350.606 15.5405 351.258 15.3717C349.81 15.1912 353.629 15.2164 352.549 14.9257L353.996 15.1063C353.671 15.0961 353.629 15.2299 353.142 15.1876C353.559 15.4709 354.321 15.1165 354.823 15.0917C355.472 15.112 356.122 15.1865 356.771 15.3014C357.368 15.2256 357.977 15.2717 358.558 15.4386C359.235 15.3922 358.614 15.2511 358.804 15.1625L361.12 15.2081C361.24 15.3741 361.439 15.7992 361.1 15.8561C361.968 15.7212 361.402 15.3927 362.729 15.4208C361.982 15.7216 364.474 15.6647 363.387 16.0225C364.753 16.241 366.134 16.2978 367.49 16.1917C368.223 15.958 366.205 16.0433 366.275 15.8022C369.621 15.7451 369.817 15.062 372.267 15.193L371.631 15.119C372.39 15.1022 373.149 15.0044 373.882 14.8247C373.459 15.1223 375.635 15.6635 378.141 15.6205C378.346 15.4647 376.735 15.3196 377.144 15.0757L378.81 15.0469C378.932 15.0777 378.742 15.1258 378.538 15.16C380.029 15.0581 381.324 15.5852 381.761 15.2205L383.287 15.6873L382.68 15.4926C383.412 15.3534 384.158 15.2822 384.917 15.252C386.002 15.1103 387.112 15.1722 388.193 15.4358C387.896 15.3049 387.154 15.0113 388.495 14.9723C388.491 15.4722 391.324 15.1827 391.281 15.4381C391.823 15.4416 392.796 15.6072 392.853 15.4063L392.768 15.7145C392.894 15.286 394.871 15.3345 396.389 15.274C396.045 15.8578 398.055 15.2587 398.741 15.7937C399.029 15.3974 401.437 15.6756 401.698 15.3459C402.862 15.3419 402.751 15.7168 403.047 15.8477L403.59 15.7026C404.185 15.8969 406.378 15.9522 407.691 16.1015L408.899 15.761L409.345 15.9237C409.535 15.835 410.551 15.7994 409.916 15.6578L410.566 15.6917C410.624 15.3152 411.488 15.599 412.803 15.4511C413.114 15.5149 413.032 15.6069 412.747 15.652C413.397 15.6724 413.124 15.853 413.489 15.9861C413.016 15.8767 415.852 15.3305 414.079 15.1263C413.959 14.9738 414.989 14.871 415.639 14.9455L416.028 15.2955L416.804 14.9415C417.562 14.9652 418.319 15.0566 419.063 15.188C418.223 15.2022 417.202 15.8188 419.368 15.8462C418.596 15.8896 417.837 15.9738 417.09 16.1261C417.537 16.1536 417.767 16.1879 417.062 16.3144C418.755 16.2324 417.632 16.1161 419.298 16.0873C419.201 16.395 419.674 16.5044 421.135 16.6314L420.041 16.3943C420.109 16.3559 420.177 16.331 420.245 16.3061C419.825 16.2659 419.717 16.2085 419.623 16.0975C419.948 16.1077 421.564 15.7394 421.833 15.937C420.144 15.4246 424.761 15.61 423.694 15.3063C424.183 15.2 424.697 15.2296 425.17 15.3796C423.773 15.5925 426.223 15.7504 425.991 15.9594C426.506 15.8809 424.896 15.7088 425.588 15.6089C426.238 15.6293 426.873 15.7168 427.495 15.8984L427.142 15.9549L428.427 16.1169C428.632 15.9611 427.184 15.8211 428.363 15.777C428.673 15.8543 429.866 15.7972 429.824 15.9175C429.253 16.1158 429.67 16.4126 428.654 16.4348C429.494 16.4341 432.162 16.4638 431.082 16.1461L432.084 16.1775C431.462 16.0364 429.704 15.7515 431.708 15.7604L431.694 15.841L433.091 15.6416L433.699 15.8228C433.686 15.7413 433.903 15.6806 434.418 15.6967C434.552 15.7955 435.04 15.8378 434.998 15.9581C436.501 15.9783 436.381 15.8123 436.571 15.7372C437.411 15.7366 437.722 15.8004 437.327 15.9772C438.641 15.9914 439.954 16.0866 441.266 16.2359C442.811 16.1357 440.955 16.1585 441.851 15.9704C443.173 16.5389 446.927 16.3053 449.433 16.2894C448.747 15.7949 450.124 16.257 450.575 15.8252C450.032 15.9568 452.955 16.2512 450.76 16.331L452.101 16.319C453.019 16.6046 449.878 16.4655 451.27 16.847C452.68 16.6615 454.103 16.571 455.525 16.5886C454.926 16.9076 456.894 16.5099 456.444 16.8606C455.996 16.9412 455.549 16.9677 455.089 16.9397L455.399 17.017C458.689 17.1878 456.351 16.6415 458.086 16.4527C460.091 16.4615 459.668 16.7591 459.789 16.9115C460.411 16.9716 461.021 16.9637 461.645 16.8751C460.424 17.0531 459.385 16.6151 459.942 16.4163C461.105 16.6825 462.31 16.6663 463.464 16.3782C460.597 15.9099 461.474 16.3157 458.797 15.8128C458.43 15.923 458.481 16.2624 456.871 16.0903C457.888 15.9465 456.805 15.899 456.521 15.8361C456.831 16.035 455.396 15.8954 454.908 15.9611C454.463 15.785 455.874 15.532 454.236 15.413L453.92 15.8761C453.284 15.7886 454.194 15.5468 452.825 15.6255C453.559 15.4053 452.599 15.2401 454.455 15.2172C452.251 14.7697 451.081 15.3546 449.359 15.4763C449.536 15.4548 449.55 15.3876 449.726 15.3661C449.224 15.4585 448.709 15.4964 448.195 15.4667C447.072 15.3369 449.09 15.2786 448.794 15.1477L446.965 15.1174C446.925 15.1026 446.925 15.0891 446.925 15.0891C446.559 15.1722 446.179 15.1603 445.815 15.0543C446.358 14.9227 446.576 14.7673 446.943 14.6572L445.03 14.9351C445.235 14.7928 443.448 14.6287 444.817 14.55L441.973 14.5419L441.732 14.2235C441.054 14.2698 441.027 14.323 441.853 14.3759C440.878 14.2778 437.541 14.8218 438.062 14.2165C435.825 14.4166 435.027 14.2969 432.331 14.388C434.405 14.1558 429.951 13.962 432.146 13.8822C431.279 13.8416 430.412 13.8954 429.571 14.0717C428.624 13.9204 429.047 13.6229 430.077 13.5336L428.87 13.6444L428.898 13.5777L427.854 13.7341C426.745 13.5507 427.626 13.4162 426.476 13.353L426.229 13.6291L425.445 13.4558C425.742 13.5868 425.051 13.6327 424.224 13.6473L424.239 13.5802L423.223 13.6158C424.226 13.4581 422.302 13.5464 422.751 13.3443C421.884 13.3171 421.871 13.3167 420.299 13.3485L420.568 13.5461C418.522 13.6846 420.476 13.2594 418.824 13.2211L418.931 13.4407C416.55 13.0417 414.893 13.5843 413.121 13.326C414.137 13.2903 413.869 13.0386 413.855 13.0922C412.337 13.1527 409.859 13.048 408.299 13.2963C407.585 12.8821 406.775 12.681 405.975 12.7099C404.81 12.7139 404.634 12.7354 404.253 12.9127C403.142 12.9319 402.033 12.8565 400.923 12.7001C400.664 12.8812 399.894 12.6408 399.283 12.7973L399.149 12.6985L399.255 12.918C397.242 12.3954 395.854 13.1356 393.813 12.6933L394.165 12.6367L393.311 12.7046C393.177 12.6057 393.516 12.5488 393.558 12.4285L389.577 12.3306L390.36 12.5039C389.587 12.6148 388.788 12.6302 388.003 12.5786C389.591 12.2635 386.676 12.5505 386.421 12.2992L387.275 12.2179C386.11 12.2219 386.11 12.2219 386.203 12.441C384.685 12.5015 385.164 12.0166 383.767 12.243L384.769 12.2609C385.066 12.3918 384.346 12.5585 383.683 12.5511C383.52 12.519 383.061 12.41 383.562 12.3852C382.37 12.4559 380.583 12.3323 380.054 12.4103C379.405 12.3359 379.623 12.1806 379.962 12.1236C377.414 12.3004 378.811 12.074 376.263 12.2373L376.305 12.117L375.396 12.3047L374.139 12.0355L374.584 12.1982C373.811 12.255 373.026 12.2574 372.254 12.2197L372.649 12.0429C370.291 12.1311 369.916 11.7139 367.679 11.9545C367.53 11.9228 367.869 11.8659 368.045 11.8309C365.971 12.1036 366.464 11.484 364.389 11.8243C364.511 11.7606 364.281 11.6858 364.363 11.6343L363.414 11.7397L363.484 11.4986L362.709 11.8527L362.115 11.6043L361.748 11.7144C360.737 11.2368 359.298 11.5835 357.906 11.2155L358.147 11.5339C354.647 12.1403 350.119 11.1064 345.877 11.4057L345.947 11.1647L344.197 11.4476C343.251 11.2558 344.755 11.2354 344.458 11.1045C342.587 11.235 343.682 11.472 341.515 11.5391C340.406 11.3692 341.895 11.3619 342.425 11.2704C340.269 11.4325 338.102 11.4726 335.936 11.3777C335.908 11.4038 335.813 11.4549 335.894 11.4709C334.539 11.5771 332.738 11.4665 331.235 11.4734C331.263 11.3662 331.643 11.3376 332.008 11.322C331.427 11.2632 330.844 11.272 330.275 11.3352L330.832 11.123C329.626 11.2067 328.407 11.1685 327.203 11.0091C327.338 11.1079 327.295 11.2958 326.293 11.2779C325.741 10.8957 323.583 11.4361 321.986 11.2238C322.177 11.1352 323.342 11.1177 323.017 11.1075C322.272 11.0571 321.527 11.1283 320.794 11.2945L321.012 11.1392L317.299 11.3471C316.747 10.9649 313.79 11.3991 314.037 11.1231C312.709 11.1085 315.159 11.2934 313.479 11.3353C313.034 11.1727 311.962 11.4229 312.032 11.1683L312.208 11.1333L311.03 11.1504L311.763 10.9031C310.761 10.9528 310.013 11.1996 309.971 11.3874C309.05 11.3721 308.13 11.3027 307.21 11.1522L307.563 11.0957C304.88 11.2007 303.099 10.4422 300.996 10.8627C300.834 10.8305 300.861 10.7638 301.186 10.774L299.52 10.7758L299.915 10.5855L297.176 10.878L297.204 10.7572C295.39 10.7138 292.558 10.7872 290.215 10.8353L290.567 10.7788C288.019 10.9826 288.103 10.6744 286.246 10.8054C286.301 10.78 286.369 10.7551 286.437 10.7573L284.757 10.7721L285.124 10.6485C284.189 10.7003 283.268 10.6579 282.335 10.534C281.616 10.6061 280.91 10.7461 280.231 10.9545C278.403 10.9782 279.786 10.7919 278.649 10.7022C277.537 10.7889 276.427 10.8216 275.303 10.7999L275.331 10.6791C274.491 10.7068 273.975 10.7988 272.81 10.8163L273.163 10.7598C271.264 11.038 270.782 10.4148 269.301 10.9629C268.503 10.8703 266.985 10.9579 267.055 10.7033C264.683 10.8857 262.84 10.963 260.496 11.0921C260.107 10.688 259.994 11.1169 258.561 10.8963L258.667 11.1158C255.334 11.1735 251.493 10.6611 247.821 10.7756L247.715 10.5561L246.981 10.8033C243.027 10.7333 237.907 10.6808 234.751 10.7034C233.354 10.9299 231.944 11.0478 230.522 11.0437L230.699 11.0087C227.853 11.1627 224.831 11.2976 221.717 11.1999C221.907 11.1113 221.596 11.0475 221.936 10.9771C221.108 11.1133 220.268 11.1275 219.443 11.007L220.227 11.1667C219.359 11.3287 218.465 11.2871 217.614 11.0442L216.217 11.2977C216.122 11.2812 215.973 11.2495 215.96 11.2085L215.715 11.3225L214.96 11.042C214.025 11.0938 213.102 11.2405 212.192 11.4822C212.058 11.3834 210.745 11.3287 211.761 11.266L206.641 11.2405L207.44 11.3331C207.546 11.5527 206.014 11.7073 205.216 11.6147C206.247 11.4308 205.286 11.3061 204.841 11.1435C204.149 11.2704 205.449 11.3247 205.095 11.4488C204.051 11.6187 202.98 11.6662 201.911 11.6056L202.427 11.5137C201.247 11.6118 200.682 11.2292 199.517 11.2603C198.472 11.4437 197.688 11.2975 197.915 11.6694C196.397 11.7705 197.321 11.4211 196.834 11.3923C195.803 11.5627 194.747 11.5295 193.719 11.3081C192.901 11.877 189.617 11.1659 189.328 11.6298L188.071 11.3877C188.042 11.5084 187.796 11.7979 186.793 11.8611C185.832 11.7364 186.051 11.5135 185.768 11.3965L185.14 11.8633C179.632 11.4472 172.408 11.8828 166.371 11.5583C163.688 11.6903 160.313 11.9628 157.184 11.9457L157.523 11.8753L154.409 11.8046L156.683 11.9705C156.005 12.0304 155.476 12.1354 154.825 12.142C150.75 11.9331 146.687 11.9408 142.622 12.1646C139.921 12.742 140.797 11.729 138.193 12.1608C138.41 12.1135 138.492 12.035 138.695 11.9738C135.89 12.1966 134.372 12.3112 131.565 12.669C131.867 12.138 129.736 12.7063 129.968 12.4298L129.736 12.6522C129.101 12.5377 127.624 12.5184 127.829 12.3627L126.594 12.6482L126.474 12.4283C124.821 12.444 121.298 12.6983 120.408 12.265C116.34 12.6779 109.893 12.7054 104.773 12.7205C103.661 12.9018 102.536 13.0016 101.398 12.9929L100.141 12.7508C98.9736 12.971 97.7942 13.0826 96.6024 13.0722C96.6027 13.0452 96.6571 13.0199 96.7249 13.0085C95.5603 12.9855 94.3947 13.0705 93.2418 13.2371C91.9144 13.2495 90.6286 13.1416 91.0237 12.8972C90.9113 13.3261 88.22 12.9039 88.22 12.9039C88.22 12.9039 71.261 13.034 52.2262 13.545C33.1778 14.069 12.0804 14.9882 3.84471 16.5001C3.21943 16.7372 1.52408 16.9813 2.22641 17.1926C0.938164 17.3548 0.236848 17.0356 0.0315847 17.2588C1.83285 17.2748 -0.339462 17.8283 1.41991 17.978L0.362234 18.107C0.184686 18.2636 1.7597 17.8536 1.56746 18.1313L1.78804 17.7193C2.35725 17.6831 2.92545 17.755 3.47934 17.9075C4.43186 17.4374 5.50385 17.2278 6.58645 17.3293L6.07141 17.3672C7.57554 17.2928 7.0038 17.5992 7.32839 17.6499L6.98975 17.6528L8.27496 17.8147C7.31421 17.717 5.73946 18.1 6.56619 18.0449C8.3672 18.0879 6.09291 17.9625 7.43468 17.8694C8.27496 17.8147 8.04261 18.0372 8.01426 18.1714L9.50486 18.0965C9.46246 18.2844 8.51589 18.1196 9.13736 18.2877L11.009 18.0221C11.3839 18.4798 13.0435 17.7211 13.9335 18.1409C12.5777 18.2875 14.0675 18.2937 13.8493 18.449L17.1689 18.3234C17.48 18.3737 16.3004 18.4989 16.8019 18.4606C17.2622 18.4885 17.7232 18.4354 18.1579 18.3004C18.4547 18.4178 20.6373 18.216 20.5666 18.5381C22.8272 18.6766 21.4916 18.1077 23.6034 18.228C23.8861 18.4125 21.9366 18.3244 22.8831 18.4892L25.0787 18.3419C24.7244 18.574 24.2899 18.682 23.8569 18.6414C29.7617 18.705 32.9901 19.6305 38.3575 19.2314C39.1277 19.4312 37.8141 19.4035 37.2844 19.5626C41.1754 19.1576 42.7937 19.9111 46.1133 19.7855L46.1692 19.598C50.8242 20.0549 56.3819 19.5806 61.6363 19.6778L61.0007 19.5633C61.8963 19.3887 62.8183 19.2825 63.7265 19.2164C63.8611 19.3017 63.1266 19.63 64.6311 19.515C64.3067 19.4508 63.6705 19.4038 63.8611 19.3017C68.3816 19.6597 77.8658 19.3356 85.2604 19.4054C95.2462 19.0295 106.107 19.1811 115.917 18.8672C114.426 18.915 115.04 18.4343 116.164 18.5236C119.286 19.2431 121.502 18.2857 124.681 18.7502C130.387 18.3752 135.514 18.982 140.817 18.2835L140.923 18.503C141.546 18.5225 142.156 18.4876 142.766 18.3987L142.752 18.4658C144.729 18.5143 147.102 18.2509 148.239 18.3406L148.295 18.0856C149.461 18.0411 148.917 18.2673 150.11 18.102L150.082 18.2228L151.466 17.9689C151.353 18.3978 154.771 17.9509 155.717 18.1293C157.235 18.0282 160.095 17.7937 162.397 17.8388C164.075 18.0266 165.767 18.1067 167.447 18.0918C170.943 17.9853 175.942 17.8448 180.398 17.863L180.306 17.5898L181.471 17.5588C181.456 17.6259 181.619 17.6445 181.442 17.6795C182.361 17.9921 184.125 17.5475 185.058 17.7254C184.465 17.4771 184.246 17.6999 183.582 17.7061C182.622 17.5814 183.532 17.2992 184.817 17.4206L184.79 17.4873L185.658 17.3253C185.764 17.5449 186.563 17.6375 186.683 17.8439C190.503 17.7341 193.108 17.3293 197.049 17.3718C196.653 17.6162 199.88 17.2715 199.104 17.7066C201.476 17.5242 198.701 17.3696 199.774 17.0519C200.438 17.0592 201.13 16.9323 201.25 17.0847C200.937 17.1965 201.803 17.3318 201.261 17.3824L202.846 17.3375C202.995 17.3692 202.655 17.4261 202.479 17.4611C205.705 17.1839 208.206 17.6813 211.094 17.3935C211.299 17.2378 209.943 17.3574 210.148 17.2017C213.049 16.8603 212.732 17.4449 215.444 17.2057L214.886 17.4179C215.755 17.1749 216.677 17.1092 217.583 17.2322C217.852 17.4839 216.362 17.4507 215.67 17.5776C216.659 17.5816 219.166 17.4846 218.396 17.2712C219.155 17.2275 219.912 17.2918 220.669 17.4507C220.684 17.3836 219.56 17.2943 220.252 17.1673C221.876 17.2858 224.369 17.2559 226.346 17.2639C226.332 17.331 226.467 17.4163 226.304 17.4518C227.905 17.1236 227.751 17.6863 229.946 17.5795Z" fill="#F2304B"/>
<path d="M335.322 13.8711L334.523 13.8265C334.523 13.8891 334.495 13.9664 334.115 14.031L335.322 13.8711Z" fill="#F2304B"/>
<path d="M297.47 14.3585C297.375 14.3711 297.28 14.3999 297.185 14.4449C297.375 14.4196 297.43 14.3893 297.47 14.3585Z" fill="#F2304B"/>
<path d="M288.281 15.1025C288.933 15.0294 288.35 14.9588 288.024 14.8817C288.01 14.9461 288.023 15.0116 288.281 15.1025Z" fill="#F2304B"/>
<path d="M356.745 12.7207C356.609 12.7486 356.527 12.795 356.54 12.8449C356.731 12.8027 356.772 12.7548 356.745 12.7207Z" fill="#F2304B"/>
<path d="M416.012 12.6734L415.782 12.6177C415.863 12.6522 415.931 12.6704 416.012 12.6734Z" fill="#F2304B"/>
<path d="M412.728 12.1885C412.498 12.1806 412.281 12.2028 412.064 12.2249C412.294 12.2328 412.511 12.2254 412.728 12.1885Z" fill="#F2304B"/>
<path d="M342.388 13.0481C342.185 13.0564 341.967 13.0798 341.764 13.1349C341.981 13.1427 342.184 13.1032 342.388 13.0481Z" fill="#F2304B"/>
<path d="M411.386 12.3115L410.56 12.2695C410.546 12.2834 410.546 12.2978 410.546 12.3266L411.386 12.3115Z" fill="#F2304B"/>
<path d="M417.054 12.7198C416.729 12.7095 416.295 12.6959 416.011 12.6734C416.363 12.7387 416.715 12.7498 417.054 12.7198Z" fill="#F2304B"/>
<path d="M378.499 12.1529L378.404 12.1652C377.779 12.2687 378.173 12.2199 378.499 12.1529Z" fill="#F2304B"/>
<path d="M407.764 12.8242L407.655 12.8044L407.411 12.8747L407.764 12.8242Z" fill="#F2304B"/>
<path d="M420.626 12.8455C420.491 12.8405 420.355 12.8671 420.219 12.8937L420.693 12.9424C420.64 12.8932 420.64 12.8617 420.626 12.8455Z" fill="#F2304B"/>
<path d="M390.91 12.5066C391.142 12.3997 391.224 12.3202 391.238 12.2711C390.966 12.2773 390.789 12.3202 390.91 12.5066Z" fill="#F2304B"/>
<g opacity="0.26">
<g opacity="0.26">
<g opacity="0.26">
<g opacity="0.26">
<path opacity="0.26" d="M400.9 8.70707C400.942 8.67513 400.969 8.62591 400.983 8.57616C400.915 8.6238 400.901 8.67355 400.9 8.70707Z" fill="#F2304B"/>
<path opacity="0.26" d="M364.391 8.01018L364.812 7.94709C364.677 7.94216 364.527 7.96809 364.391 8.01018Z" fill="#F2304B"/>
<path opacity="0.26" d="M422.776 9.08958C422.762 9.10112 422.735 9.10037 422.722 9.11192L424.265 9.15478L422.776 9.08958Z" fill="#F2304B"/>
<path opacity="0.26" d="M286.517 8.30284L287.005 8.29059C286.842 8.29938 286.68 8.29405 286.517 8.30284Z" fill="#F2304B"/>
<path opacity="0.26" d="M332.665 8.11351C332.462 8.16891 332.258 8.1929 332.041 8.20071C332.258 8.24 332.475 8.20079 332.665 8.11351Z" fill="#F2304B"/>
<path opacity="0.26" d="M434.326 12.1987L433.703 11.9822C433.703 12.0788 433.932 12.1679 434.326 12.1987Z" fill="#F2304B"/>
<path opacity="0.26" d="M456.498 11.6198C456.485 11.6027 456.458 11.5851 456.444 11.568C456.417 11.6001 456.444 11.6177 456.498 11.6198Z" fill="#F2304B"/>
<path opacity="0.26" d="M447.844 10.7161C447.655 10.7247 447.438 10.7478 447.22 10.7864C447.478 10.7801 447.817 10.7923 447.844 10.7161Z" fill="#F2304B"/>
<path opacity="0.26" d="M446.922 10.8356L447.22 10.7998C447.058 10.794 446.922 10.8046 446.922 10.8356Z" fill="#F2304B"/>
<path opacity="0.26" d="M3.84528 20.6433C3.18046 20.6982 2.515 20.8326 1.87612 21.0315L3.84528 20.6433Z" fill="#F2304B"/>
<path opacity="0.26" d="M216.029 10.1447L216.165 10.0677C216.029 10.0789 216.002 10.1108 216.029 10.1447Z" fill="#F2304B"/>
<path opacity="0.26" d="M3.1028 22.465L2.62887 22.4637C2.77778 22.4681 2.94022 22.473 3.1028 22.465Z" fill="#F2304B"/>
<path opacity="0.26" d="M422.578 12.7029C421.94 12.8736 420.628 12.6358 420.64 12.8141C421.304 12.7925 422.265 12.9441 422.578 12.7029Z" fill="#F2304B"/>
<path opacity="0.26" d="M201.282 18.1926L200.862 18.2074C201.066 18.1998 201.187 18.2038 201.282 18.1926Z" fill="#F2304B"/>
<path opacity="0.26" d="M3.10286 22.4526L3.6585 22.4571C3.60456 22.424 3.55063 22.391 3.48301 22.3729C3.34713 22.4147 3.22493 22.4415 3.10286 22.4526Z" fill="#F2304B"/>
<path opacity="0.26" d="M142.633 12.7005L142.66 12.7015L142.809 12.659L142.633 12.7005Z" fill="#F2304B"/>
<path opacity="0.26" d="M138.736 12.507L139.563 12.4294C139.278 12.4193 139.007 12.4403 138.736 12.507Z" fill="#F2304B"/>
<path opacity="0.26" d="M1.87601 21.0794L0.775808 21.3096C1.14232 21.2594 1.5091 21.1774 1.87601 21.0794Z" fill="#F2304B"/>
<path opacity="0.26" d="M96.7867 14.5864L97.1664 14.5543C97.0445 14.55 96.9089 14.5604 96.7867 14.5864Z" fill="#F2304B"/>
<path opacity="0.26" d="M335.63 8.16491L335.968 8.20797C336.009 8.16305 335.982 8.13117 335.63 8.16491Z" fill="#F2304B"/>
<path opacity="0.26" d="M308.23 13.7419C307.701 13.7227 307.186 13.7982 306.683 13.9841C307.211 13.9876 307.741 13.9126 308.23 13.7419Z" fill="#F2304B"/>
<path opacity="0.26" d="M303.366 13.9709L303.555 13.9919C303.487 13.9896 303.433 13.9732 303.366 13.9709Z" fill="#F2304B"/>
<path opacity="0.26" d="M334.511 13.8205L334.511 13.8035C334.497 13.8029 334.497 13.82 334.497 13.82L334.511 13.8205Z" fill="#F2304B"/>
<path opacity="0.26" d="M328.348 13.9432C328.213 13.9076 328.064 13.8715 327.915 13.8662C328.064 13.9177 328.199 13.9379 328.348 13.9432Z" fill="#F2304B"/>
<path opacity="0.26" d="M288.025 14.8818L287.999 14.864L288.025 14.8818Z" fill="#F2304B"/>
<path opacity="0.26" d="M229.946 17.5788C235.772 17.4105 243.319 17.0397 249.116 17.0866C250.731 16.7861 252.385 16.6354 254.037 16.6333L254.25 17.0722L255.782 16.9177C256.403 17.0452 254.602 17.0022 255.711 17.1586L256.283 16.8794C256.403 17.0317 260.237 16.9495 257.661 17.2873L263.634 17.2452C264.962 17.2464 264.396 16.8775 265.858 16.9774C266.155 17.1082 265.342 17.0692 265.463 17.2216C269.862 17.5082 270.51 16.34 274.599 16.5089L274.246 16.5654C274.938 16.4385 276.265 16.4532 276.279 16.3861C275.742 15.9505 275.546 16.6197 274.302 16.3781C274.4 16.003 275.848 16.17 275.756 15.8835C276.541 15.9351 277.327 15.8923 278.114 15.7819C279.547 16.016 281.581 15.8367 282.661 16.1272C283.626 15.8469 284.616 15.6754 285.619 15.6258C286.7 15.9164 285.372 15.9017 286.834 16.0151L287.066 15.8063C288.258 15.8302 288.081 15.8922 288.04 15.9989C288.921 15.8645 289.816 15.8116 290.71 15.8396L289.814 16.0546C291.006 15.9705 291.48 15.9989 293.146 16.0242C293.118 16.1448 292.454 16.1375 291.967 16.1087C292.871 16.4207 293.498 15.9677 293.986 15.9965C293.851 15.8978 292.7 15.8616 293.258 15.6495C294.084 15.6889 294.994 15.3529 295.588 15.6011L294.692 15.8161C295.628 15.6159 296.604 15.552 297.565 15.6227C297.457 15.6328 297.51 15.6885 297.469 15.7412C299.028 15.5876 300.613 15.5833 302.183 15.7271L301.83 15.7836C302.576 15.7124 302.97 15.5222 303.377 15.535C302.321 15.4073 302.606 15.3487 302.513 15.1432C303.905 15.4975 304.617 14.723 306.89 14.9295C306.862 15.0501 306.319 15.2086 305.683 15.0807C305.029 15.5463 304.267 15.8466 303.454 15.9291C304.308 15.8478 305.325 15.7852 305.106 15.9404L305.367 15.5975C305.882 15.5866 306.301 15.6133 306.694 15.5986C306.913 15.3894 305.641 15.2549 306.835 15.1033C308.19 14.9838 307.563 15.4503 307.767 15.2946C309.638 15.1508 308.529 14.9269 310.33 15.0374C310.112 15.0846 309.882 15.1044 309.652 15.0972C310.937 15.2321 312.822 15.0211 313.197 15.4381C312.993 15.5937 312.734 15.6667 312.491 15.6185L312.505 15.5514C311.094 15.8583 313.685 15.4669 313.247 15.8448C313.141 15.6254 314.956 15.6824 315.768 15.7214L315.499 15.4698C318.202 14.7308 315.359 15.9651 318.042 15.8738C319.75 15.7113 317.393 15.7994 318.437 15.6296C319.519 15.7716 320.616 15.833 321.713 15.7999C322.186 15.8958 323.147 16.034 323.239 16.3205C324.471 16.3592 325.704 16.3169 326.938 16.18C325.179 15.9358 325.201 16.4767 323.146 16.1015L323.717 15.8359C325.139 15.8535 326.942 15.721 327.93 15.8195C327.727 15.7591 327.647 15.6891 327.769 15.6389C329.274 15.4565 330.806 15.3561 332.336 15.3501C332.605 15.6016 331.454 15.552 330.614 15.5796C331.71 15.6816 332.807 15.716 333.904 15.6829C334.011 15.9024 332.577 15.6683 332.358 15.8775L334.54 15.8109C334.526 15.824 334.539 15.8379 334.539 15.8514C334.854 15.4831 336.205 15.8902 337.533 15.7833C339.362 15.7732 341.166 15.5192 342.904 15.0065C343.378 15.1024 343.512 15.2012 343.322 15.2897C342.551 15.1305 342.685 15.2563 342.414 15.3423C343.484 15.3083 344.753 15.7129 344.156 15.8562C345.85 15.7473 343.548 15.6615 344.579 15.5453L346.894 15.5775C346.612 15.393 345.8 15.3405 346.993 15.2024C348.009 15.1533 348.496 15.1956 349.81 15.2098C349.62 15.2984 350.227 15.493 349.239 15.4755C349.915 15.5778 350.606 15.5454 351.258 15.3768C349.81 15.1963 353.63 15.2217 352.549 14.9311L353.996 15.1116C353.671 15.1014 353.629 15.2352 353.142 15.1928C353.559 15.4761 354.321 15.1218 354.823 15.097C355.473 15.1174 356.122 15.1918 356.771 15.3068C357.368 15.231 357.977 15.2771 358.558 15.4439C359.235 15.3976 358.614 15.2566 358.804 15.168L361.12 15.2137C361.24 15.3795 361.439 15.8045 361.1 15.8613C361.968 15.7265 361.402 15.3981 362.729 15.4263C361.982 15.7269 364.474 15.6701 363.387 16.0277C364.753 16.2461 366.134 16.303 367.49 16.197C368.223 15.9634 366.204 16.0486 366.274 15.8077C369.62 15.7506 369.817 15.068 372.267 15.1989L371.631 15.125C372.39 15.1083 373.149 15.0105 373.882 14.831C373.459 15.1283 375.635 15.6693 378.141 15.6264C378.346 15.4708 376.735 15.3257 377.144 15.0819L378.81 15.0532C378.932 15.084 378.742 15.1321 378.538 15.1662C380.029 15.0644 381.324 15.5913 381.761 15.2269L383.287 15.6935L382.68 15.4988C383.412 15.3597 384.158 15.2886 384.917 15.2584C386.002 15.1169 387.112 15.1787 388.193 15.4423C387.896 15.3114 387.154 15.018 388.495 14.9791C388.49 15.4786 391.324 15.1894 391.281 15.4447C391.823 15.4482 392.796 15.6138 392.852 15.413L392.768 15.721C392.894 15.2927 394.871 15.3413 396.389 15.2809C396.045 15.8643 398.055 15.2656 398.741 15.8004C399.029 15.4043 401.437 15.6824 401.698 15.353C402.862 15.349 402.75 15.7237 403.047 15.8545L403.59 15.7095C404.184 15.9038 406.378 15.9591 407.69 16.1084L408.899 15.7681L409.345 15.9307C409.535 15.8421 410.551 15.8065 409.916 15.665L410.566 15.6989C410.624 15.3225 411.488 15.6063 412.803 15.4585C413.114 15.5223 413.032 15.6142 412.747 15.6593C413.397 15.6797 413.124 15.8602 413.489 15.9932C413.016 15.8838 415.852 15.3381 414.079 15.1339C413.959 14.9815 414.989 14.8788 415.639 14.9532L416.028 15.3031L416.804 14.9493C417.562 14.9731 418.319 15.0644 419.063 15.1958C418.223 15.2099 417.201 15.8262 419.368 15.8537C418.596 15.8969 417.836 15.9812 417.09 16.1333C417.537 16.1608 417.767 16.1951 417.061 16.3215C418.755 16.2396 417.632 16.1233 419.298 16.0946C419.2 16.4021 419.673 16.5115 421.135 16.6384L420.04 16.4015C420.108 16.3631 420.176 16.3382 420.244 16.3133C419.825 16.2732 419.717 16.2158 419.623 16.1048C419.948 16.115 421.563 15.747 421.832 15.9445C420.144 15.4323 424.761 15.6178 423.694 15.3142C424.183 15.2079 424.697 15.2376 425.17 15.3875C423.773 15.6002 426.223 15.7582 425.99 15.967C426.506 15.8886 424.896 15.7165 425.587 15.6167C426.237 15.6371 426.873 15.7246 427.494 15.9062L427.142 15.9626L428.427 16.1245C428.632 15.9689 427.184 15.8289 428.362 15.7848C428.673 15.8621 429.866 15.805 429.824 15.9253C429.253 16.1234 429.67 16.4202 428.654 16.4423C429.494 16.4416 432.162 16.4714 431.081 16.1538L432.083 16.1853C431.462 16.0442 429.704 15.7594 431.708 15.7683L431.694 15.8489L433.091 15.6497L433.699 15.8308C433.686 15.7494 433.903 15.6887 434.418 15.7048C434.552 15.8036 435.039 15.8459 434.997 15.9661C436.501 15.9863 436.38 15.8204 436.571 15.7454C437.411 15.7447 437.721 15.8085 437.327 15.9852C438.641 15.9994 439.954 16.0947 441.266 16.2439C442.811 16.1439 440.955 16.1666 441.851 15.9787C443.173 16.5469 446.927 16.3136 449.433 16.2977C448.747 15.8035 450.124 16.2654 450.575 15.8338C450.032 15.9654 452.955 16.2597 450.76 16.3394L452.101 16.3274C453.019 16.6129 449.878 16.4738 451.269 16.8551C452.68 16.6698 454.103 16.5794 455.525 16.597C454.926 16.9158 456.894 16.5184 456.443 16.8689C455.995 16.9494 455.548 16.9759 455.088 16.9479L455.399 17.0252C458.688 17.196 456.35 16.6499 458.086 16.4613C460.09 16.4702 459.668 16.7676 459.788 16.9199C460.411 16.98 461.02 16.9721 461.644 16.8836C460.423 17.0614 459.385 16.6236 459.942 16.425C461.104 16.6911 462.31 16.6749 463.464 16.387C460.597 15.9189 461.473 16.3245 458.796 15.8218C458.43 15.9319 458.481 16.2711 456.87 16.099C457.888 15.9554 456.805 15.9079 456.521 15.8449C456.83 16.0437 455.396 15.9042 454.908 15.9699C454.462 15.7938 455.874 15.541 454.236 15.422L453.92 15.8848C453.284 15.7973 454.194 15.5558 452.825 15.6344C453.559 15.4143 452.599 15.2491 454.454 15.2263C452.251 14.779 451.081 15.3635 449.359 15.485C449.536 15.4636 449.55 15.3965 449.726 15.375C449.224 15.4673 448.709 15.5051 448.194 15.4755C447.072 15.3457 449.09 15.2875 448.794 15.1567L446.965 15.1263C446.925 15.1115 446.925 15.098 446.925 15.098C446.558 15.181 446.179 15.1691 445.815 15.0631C446.358 14.9316 446.576 14.7764 446.943 14.6664L445.03 14.944C445.235 14.8018 443.448 14.6377 444.817 14.5591L441.973 14.5509L441.732 14.2327C441.055 14.2789 441.027 14.3321 441.853 14.385C440.878 14.2869 437.541 14.8304 438.062 14.2255C435.825 14.4254 435.027 14.3058 432.331 14.3968C434.405 14.1647 429.951 13.9709 432.146 13.8912C431.28 13.8505 430.412 13.9043 429.571 14.0805C428.624 13.9292 429.047 13.6319 430.077 13.5427L428.871 13.6533L428.898 13.5867L427.854 13.743C426.745 13.5596 427.627 13.4252 426.476 13.3621L426.23 13.638L425.446 13.4648C425.742 13.5957 425.051 13.6415 424.225 13.6561L424.239 13.589L423.223 13.6246C424.227 13.4671 422.302 13.5552 422.751 13.3532C421.885 13.326 421.871 13.3256 420.3 13.3573L420.569 13.5548C418.522 13.6932 420.477 13.2683 418.825 13.2299L418.931 13.4494C416.551 13.0505 414.893 13.5927 413.121 13.3345C414.138 13.2989 413.869 13.0474 413.855 13.101C412.338 13.1614 409.86 13.0566 408.3 13.3047C407.586 12.8907 406.775 12.6896 405.976 12.7186C404.811 12.7225 404.635 12.744 404.254 12.9211C403.143 12.9403 402.033 12.8649 400.924 12.7085C400.665 12.8895 399.895 12.6492 399.284 12.8056L399.15 12.7069L399.256 12.9263C397.243 12.4039 395.854 13.1436 393.813 12.7014L394.166 12.6449L393.312 12.7127C393.177 12.6139 393.517 12.557 393.558 12.4368L389.577 12.3388L390.361 12.512C389.588 12.6228 388.789 12.6382 388.004 12.5866C389.591 12.2717 386.677 12.5584 386.422 12.3073L387.276 12.2261C386.111 12.23 386.111 12.23 386.204 12.449C384.686 12.5094 385.165 12.0247 383.767 12.251L384.77 12.269C385.066 12.3998 384.347 12.5663 383.683 12.559C383.521 12.5269 383.062 12.4179 383.563 12.3931C382.37 12.4638 380.584 12.3401 380.055 12.4181C379.405 12.3437 379.623 12.1884 379.963 12.1316C377.415 12.3082 378.812 12.0819 376.264 12.2451L376.306 12.1248L375.396 12.3124L374.139 12.0433L374.585 12.2058C373.812 12.2626 373.027 12.265 372.255 12.2273L372.649 12.0506C370.292 12.1386 369.917 11.7217 367.679 11.9621C367.531 11.9304 367.87 11.8735 368.046 11.8385C365.971 12.111 366.465 11.4918 364.389 11.8318C364.512 11.7681 364.282 11.6934 364.364 11.6419L363.415 11.7472L363.485 11.5063L362.71 11.8601L362.116 11.6118L361.749 11.7219C360.738 11.2444 359.299 11.5909 357.907 11.2231L358.148 11.5413C354.648 12.1472 350.12 11.1137 345.878 11.4127L345.948 11.1718L344.198 11.4546C343.252 11.2628 344.756 11.2425 344.459 11.1116C342.588 11.242 343.683 11.4789 341.516 11.5459C340.407 11.376 341.897 11.3688 342.426 11.2774C340.27 11.4393 338.103 11.4793 335.937 11.3843C335.909 11.4105 335.814 11.4615 335.895 11.4775C334.54 11.5836 332.739 11.473 331.236 11.4798C331.264 11.3727 331.644 11.3441 332.009 11.3285C331.428 11.2698 330.845 11.2785 330.276 11.3416L330.833 11.1295C329.627 11.2132 328.408 11.175 327.204 11.0156C327.339 11.1144 327.296 11.3021 326.294 11.2842C325.742 10.9022 323.584 11.4422 321.987 11.23C322.178 11.1415 323.343 11.124 323.018 11.1138C322.274 11.0634 321.528 11.1346 320.795 11.3006L321.013 11.1454L317.3 11.353C316.748 10.971 313.791 11.4049 314.038 11.129C312.711 11.1144 315.16 11.2993 313.48 11.3412C313.035 11.1786 311.963 11.4286 312.033 11.1742L312.209 11.1392L311.031 11.1562L311.765 10.9091C310.762 10.9587 310.014 11.2053 309.972 11.3931C309.051 11.3777 308.131 11.3083 307.211 11.1579L307.564 11.1014C304.881 11.2063 303.101 10.4481 300.997 10.8682C300.835 10.8361 300.863 10.7695 301.188 10.7797L299.522 10.7814L299.916 10.5912L297.177 10.8834L297.206 10.7627C295.391 10.7193 292.56 10.7925 290.216 10.8404L290.569 10.784C288.02 10.9876 288.105 10.6796 286.248 10.8104C286.302 10.7851 286.37 10.7602 286.438 10.7624L284.758 10.7772L285.125 10.6536C284.19 10.7053 283.269 10.6629 282.336 10.5391C281.617 10.611 280.912 10.751 280.233 10.9592C278.404 10.9829 279.787 10.7967 278.65 10.707C277.539 10.7936 276.428 10.8263 275.304 10.8045L275.332 10.6839C274.492 10.7115 273.976 10.8034 272.812 10.8208L273.164 10.7644C271.265 11.0424 270.784 10.4195 269.302 10.9673C268.504 10.8747 266.986 10.9621 267.056 10.7077C264.684 10.8898 262.841 10.9671 260.497 11.096C260.108 10.6922 259.996 11.1208 258.562 10.9002L258.668 11.1197C255.336 11.1771 251.494 10.6649 247.822 10.7792L247.716 10.5598L246.982 10.8069C243.028 10.7368 237.909 10.6841 234.753 10.7066C233.355 10.9328 231.946 11.0507 230.524 11.0465L230.7 11.0115C227.854 11.1653 224.832 11.3001 221.718 11.2023C221.909 11.1137 221.598 11.05 221.937 10.9796C221.109 11.1157 220.27 11.1298 219.445 11.0094L220.229 11.169C219.36 11.3309 218.467 11.2893 217.616 11.0465L216.218 11.2998C216.123 11.2833 215.975 11.2516 215.962 11.2107L215.717 11.3245L214.961 11.0442C214.026 11.0959 213.103 11.2425 212.194 11.4841C212.059 11.3853 210.746 11.3306 211.762 11.2679L206.643 11.2423L207.441 11.3349C207.547 11.5543 206.015 11.7088 205.217 11.6162C206.248 11.4325 205.288 11.3078 204.842 11.1453C204.15 11.2721 205.45 11.3264 205.097 11.4504C204.052 11.6202 202.982 11.6676 201.912 11.607L202.428 11.5152C201.248 11.6132 200.683 11.2308 199.518 11.2617C198.473 11.445 197.689 11.2989 197.916 11.6707C196.398 11.7716 197.322 11.4224 196.835 11.3936C195.804 11.5638 194.748 11.5307 193.721 11.3094C192.903 11.8779 189.618 11.1671 189.329 11.6307L188.072 11.3886C188.044 11.5093 187.797 11.7987 186.794 11.8618C185.834 11.7371 186.053 11.5143 185.769 11.3974L185.142 11.8639C179.633 11.4479 172.41 11.8829 166.372 11.5583C163.689 11.6902 160.314 11.9624 157.185 11.9452L157.524 11.8749L154.41 11.8041L156.684 11.97C156.006 12.0298 155.477 12.1347 154.827 12.1413C150.752 11.9324 146.688 11.9399 142.623 12.1634C139.922 12.7404 140.798 11.728 138.194 12.1594C138.411 12.1122 138.493 12.0338 138.697 11.9726C135.891 12.1952 134.373 12.3096 131.566 12.6672C131.869 12.1364 129.737 12.7043 129.97 12.428L129.737 12.6503C129.102 12.5358 127.626 12.5165 127.83 12.3608L126.595 12.6462L126.475 12.4263C124.823 12.442 121.299 12.696 120.409 12.2629C116.342 12.6755 109.894 12.7027 104.774 12.7175C103.662 12.8987 102.537 12.9985 101.399 12.9898L100.142 12.7477C98.9747 12.9677 97.7953 13.0792 96.6035 13.0688C96.6037 13.0418 96.6582 13.0165 96.726 13.0051C95.5614 12.9821 94.3958 13.067 93.2429 13.2334C91.9154 13.2458 90.6297 13.1379 91.0249 12.8937C90.9124 13.3224 88.2211 12.9002 88.2211 12.9002C88.2211 12.9002 71.2622 13.0297 52.2273 13.5396C33.1787 14.0626 12.0812 14.9806 3.84512 16.4913C3.2198 16.7283 1.52439 16.9722 2.22666 17.1833C0.938377 17.3455 0.237141 17.0263 0.0318233 17.2495C1.83308 17.2655 -0.339363 17.8186 1.41997 17.9684L0.362264 18.0972C0.184677 18.2537 1.75978 17.844 1.56749 18.1215L1.78817 17.7098C2.35738 17.6736 2.92556 17.7455 3.47941 17.8979C4.43205 17.4281 5.50408 17.2187 6.58666 17.3202L6.07161 17.358C7.57576 17.2837 7.00394 17.5899 7.32852 17.6406L6.98988 17.6435L8.27504 17.8054C7.31433 17.7077 5.73948 18.0904 6.56622 18.0354C8.36722 18.0784 6.09296 17.953 7.43476 17.86C8.27504 17.8054 8.04264 18.0277 8.01426 18.1619L9.50487 18.0871C9.46243 18.2748 8.51591 18.1101 9.13733 18.2781L11.009 18.0128C11.3839 18.4702 13.0436 17.712 13.9335 18.1316C12.5776 18.2781 14.0675 18.2843 13.8492 18.4396L17.1688 18.3142C17.4799 18.3644 16.3003 18.4895 16.8018 18.4512C17.2621 18.4792 17.7231 18.4261 18.1578 18.2912C18.4547 18.4086 20.6373 18.207 20.5664 18.5289C22.827 18.6674 21.4916 18.0987 23.6034 18.219C23.886 18.4035 21.9365 18.3153 22.883 18.48L25.0786 18.3329C24.7242 18.5648 24.2898 18.6728 23.8567 18.6322C29.7615 18.696 32.9897 19.6212 38.3572 19.2224C39.1273 19.4222 37.8137 19.3944 37.284 19.5534C41.1751 19.1488 42.7932 19.9019 46.1128 19.7765L46.1688 19.5892C50.8237 20.0459 56.3815 19.5721 61.6358 19.6695L61.0003 19.555C61.8959 19.3806 62.818 19.2745 63.7261 19.2084C63.8607 19.2937 63.1261 19.6218 64.6307 19.5069C64.3062 19.4427 63.6701 19.3957 63.8607 19.2937C68.3811 19.6517 77.8653 19.3281 85.2599 19.3982C95.2458 19.0229 106.107 19.1747 115.916 18.8614C114.426 18.9091 115.04 18.4287 116.163 18.518C119.285 19.2372 121.502 18.2804 124.681 18.7448C130.386 18.3702 135.514 18.9769 140.817 18.2789L140.923 18.4984C141.546 18.5179 142.156 18.483 142.766 18.3941L142.752 18.4612C144.729 18.5098 147.102 18.2466 148.238 18.3363L148.295 18.0815C149.46 18.037 148.916 18.2631 150.11 18.098L150.082 18.2186L151.466 17.9649C151.353 18.3936 154.771 17.9471 155.717 18.1254C157.235 18.0245 160.095 17.7901 162.397 17.8354C164.075 18.0231 165.767 18.1032 167.447 18.0884C170.942 17.9821 175.942 17.8419 180.398 17.8602L180.305 17.5872L181.47 17.5562C181.456 17.6233 181.619 17.6419 181.442 17.6769C182.36 17.9893 184.125 17.545 185.058 17.7229C184.465 17.4746 184.246 17.6974 183.582 17.7036C182.622 17.5789 183.532 17.2968 184.817 17.4182L184.79 17.4848L185.658 17.323C185.764 17.5425 186.562 17.635 186.682 17.8414C190.503 17.7317 193.107 17.3273 197.048 17.37C196.653 17.6142 199.88 17.2698 199.104 17.7046C201.476 17.5224 198.701 17.3678 199.774 17.0503C200.438 17.0577 201.129 16.9308 201.25 17.0832C200.937 17.1949 201.803 17.3301 201.261 17.3806L202.846 17.3358C202.994 17.3675 202.655 17.4244 202.479 17.4594C205.705 17.1825 208.206 17.6797 211.094 17.3922C211.298 17.2365 209.943 17.356 210.148 17.2004C213.049 16.8593 212.732 17.4436 215.443 17.2046L214.886 17.4167C215.755 17.1738 216.677 17.1082 217.583 17.2312C217.852 17.4828 216.362 17.4495 215.67 17.5763C216.659 17.5804 219.165 17.4835 218.395 17.2702C219.154 17.2265 219.912 17.2908 220.669 17.4497C220.683 17.3826 219.56 17.2933 220.252 17.1664C221.876 17.285 224.369 17.2551 226.346 17.2632C226.332 17.3303 226.467 17.4155 226.304 17.4509C227.905 17.1231 227.751 17.6855 229.946 17.5788Z" fill="#F2304B"/>
<path opacity="0.26" d="M335.322 13.8712L334.523 13.8265C334.522 13.8891 334.495 13.9663 334.115 14.0308L335.322 13.8712Z" fill="#F2304B"/>
<path opacity="0.26" d="M297.471 14.3584C297.375 14.3711 297.28 14.3998 297.185 14.4448C297.375 14.4196 297.43 14.3893 297.471 14.3584Z" fill="#F2304B"/>
<path opacity="0.26" d="M288.281 15.1024C288.933 15.0294 288.35 14.9588 288.025 14.8816C288.01 14.946 288.024 15.0115 288.281 15.1024Z" fill="#F2304B"/>
<path opacity="0.26" d="M356.745 12.7207C356.609 12.7485 356.527 12.7949 356.54 12.8449C356.731 12.8026 356.772 12.7547 356.745 12.7207Z" fill="#F2304B"/>
<path opacity="0.26" d="M416.012 12.6733L415.782 12.6176C415.863 12.6521 415.93 12.6704 416.012 12.6733Z" fill="#F2304B"/>
<path opacity="0.26" d="M412.728 12.1885C412.498 12.1806 412.281 12.2027 412.064 12.2248C412.294 12.2327 412.511 12.2254 412.728 12.1885Z" fill="#F2304B"/>
<path opacity="0.26" d="M342.388 13.0481C342.185 13.0563 341.967 13.0797 341.764 13.1348C341.98 13.1426 342.184 13.1031 342.388 13.0481Z" fill="#F2304B"/>
<path opacity="0.26" d="M411.386 12.3114L410.56 12.2694C410.546 12.2834 410.546 12.2978 410.546 12.3265L411.386 12.3114Z" fill="#F2304B"/>
<path opacity="0.26" d="M417.054 12.7197C416.729 12.7095 416.295 12.6958 416.011 12.6733C416.363 12.7386 416.715 12.7497 417.054 12.7197Z" fill="#F2304B"/>
<path opacity="0.26" d="M378.499 12.1529L378.404 12.1652C377.779 12.2685 378.173 12.2198 378.499 12.1529Z" fill="#F2304B"/>
<path opacity="0.26" d="M407.764 12.8242L407.655 12.8044L407.411 12.8746L407.764 12.8242Z" fill="#F2304B"/>
<path opacity="0.26" d="M420.626 12.8455C420.491 12.8405 420.355 12.867 420.219 12.8936L420.693 12.9423C420.64 12.8932 420.64 12.8617 420.626 12.8455Z" fill="#F2304B"/>
<path opacity="0.26" d="M390.91 12.5065C391.142 12.3997 391.224 12.3202 391.238 12.2711C390.966 12.2772 390.789 12.3201 390.91 12.5065Z" fill="#F2304B"/>
</g>
</g>
</g>
</g>
<path d="M71.3065 18.3892C71.2652 18.4212 71.2374 18.4704 71.2232 18.537C71.2921 18.4725 71.3198 18.44 71.3065 18.3892Z" fill="#F2304B"/>
<path d="M107.8 18.2046L107.379 18.2678C107.528 18.2732 107.664 18.2624 107.8 18.2046Z" fill="#F2304B"/>
<path d="M49.4468 18.8107C49.4605 18.7978 49.4876 18.7986 49.5012 18.7858L47.9709 18.7917L49.4468 18.8107Z" fill="#F2304B"/>
<path d="M185.623 17.706L185.135 17.7043C185.298 17.7092 185.46 17.714 185.623 17.706Z" fill="#F2304B"/>
<path d="M139.504 17.7789C139.707 17.7234 139.911 17.6837 140.128 17.6916C139.911 17.6523 139.694 17.6915 139.504 17.7789Z" fill="#F2304B"/>
<path d="M37.8085 16.2686L38.4444 16.4515C38.4315 16.3713 38.2016 16.2831 37.8085 16.2686Z" fill="#F2304B"/>
<path d="M15.6589 18.1528C15.6723 18.1696 15.6993 18.187 15.7129 18.1875C15.7538 18.1727 15.7267 18.1553 15.6589 18.1528Z" fill="#F2304B"/>
<path d="M24.3464 18.5485C24.5364 18.5239 24.7536 18.4845 24.9709 18.4451C24.7132 18.4515 24.3742 18.4707 24.3464 18.5485Z" fill="#F2304B"/>
<path d="M25.2697 18.3787L24.971 18.4311C25.1338 18.4212 25.2694 18.4103 25.2697 18.3787Z" fill="#F2304B"/>
<path d="M468.289 17.7287C468.804 17.7471 469.32 17.6882 469.822 17.5515L468.289 17.7287Z" fill="#F2304B"/>
<path d="M256.093 17.2208L255.957 17.2981C256.093 17.2703 256.106 17.2543 256.093 17.2208Z" fill="#F2304B"/>
<path d="M469.085 16.0055L469.518 16.0655C469.369 16.0304 469.234 16.0107 469.085 16.0055Z" fill="#F2304B"/>
<path d="M49.5497 15.1864C50.1882 14.9954 51.5009 15.1942 51.4888 15.0108C50.811 15.0479 49.8364 14.9373 49.5497 15.1864Z" fill="#F2304B"/>
<path d="M270.969 9.58371L271.389 9.58339C271.186 9.57721 271.064 9.5735 270.969 9.58371Z" fill="#F2304B"/>
<path d="M469.085 16.0249L468.584 15.944C468.625 15.9769 468.678 16.0102 468.732 16.0435C468.855 16.0166 468.963 16.0205 469.085 16.0249Z" fill="#F2304B"/>
<path d="M329.467 17.291L329.44 17.2901L329.291 17.3159L329.467 17.291Z" fill="#F2304B"/>
<path d="M333.348 17.6361L332.522 17.6821C332.806 17.7068 333.077 17.7012 333.348 17.6361Z" fill="#F2304B"/>
<path d="M469.822 17.5163L470.718 17.4089C470.42 17.4137 470.121 17.465 469.822 17.5163Z" fill="#F2304B"/>
<path d="M375.31 17.5907L374.931 17.607C375.066 17.6116 375.188 17.6157 375.31 17.5907Z" fill="#F2304B"/>
<path d="M136.539 17.7276L136.201 17.6844C136.16 17.7451 136.187 17.7616 136.539 17.7276Z" fill="#F2304B"/>
<path d="M163.926 12.0996C164.454 12.1188 164.97 12.0434 165.473 11.8737C164.944 11.8702 164.429 11.9455 163.926 12.0996Z" fill="#F2304B"/>
<path d="M168.804 11.9045L168.614 11.8835C168.682 11.9004 168.736 11.9022 168.804 11.9045Z" fill="#F2304B"/>
<path d="M137.631 12.0886L137.631 12.1057C137.645 12.1062 137.645 12.0892 137.645 12.0892L137.631 12.0886Z" fill="#F2304B"/>
<path d="M143.807 11.9319C143.942 11.9675 144.091 12.0036 144.24 12.0089C144.092 11.9575 143.943 11.9368 143.807 11.9319Z" fill="#F2304B"/>
<path d="M184.155 11.1298C184.142 11.1293 184.155 11.1298 184.155 11.1298L184.182 11.1474L184.155 11.1298Z" fill="#F2304B"/>
<path d="M242.273 10.5978C236.435 10.6161 228.876 10.8789 223.08 10.757C221.452 11.0171 219.799 11.1478 218.147 11.1112L217.948 10.6935L216.416 10.815C215.795 10.6805 217.595 10.7473 216.486 10.5854L215.915 10.8386C215.795 10.6934 211.962 10.7074 214.538 10.437L208.565 10.3999C207.238 10.373 207.804 10.7374 206.342 10.6293C206.045 10.5046 206.871 10.5551 206.737 10.3966C202.339 10.0592 201.678 11.1718 197.59 10.9465L197.942 10.8927C197.251 11.0007 195.924 10.9867 195.91 11.0378C196.447 11.4657 196.643 10.8152 197.887 11.0712C197.788 11.4286 196.327 11.2562 196.419 11.5292C195.634 11.48 194.849 11.5079 194.062 11.6131C192.642 11.3904 190.596 11.5351 189.515 11.2582C188.551 11.5254 187.56 11.6888 186.544 11.7227C185.464 11.4459 186.791 11.4598 185.329 11.3518L185.097 11.5636C183.892 11.5275 184.082 11.4689 184.123 11.38C183.242 11.4952 182.348 11.5456 181.454 11.5189L182.35 11.327C181.157 11.4071 180.67 11.3668 179.018 11.3431C179.046 11.2281 179.71 11.2351 180.21 11.2758C179.306 10.9656 178.679 11.3973 178.192 11.3698C178.326 11.4639 179.477 11.4984 178.92 11.7004C178.094 11.6629 177.17 11.9698 176.59 11.7337L177.486 11.5417C176.536 11.7192 175.574 11.7805 174.613 11.7131C174.721 11.7035 174.668 11.6504 174.709 11.6002C173.15 11.7337 171.565 11.7378 169.996 11.5878L170.348 11.5341C169.603 11.6018 169.208 11.783 168.802 11.7709C169.857 11.8925 169.572 11.9484 169.665 12.1442C168.274 11.7937 167.562 12.5316 165.289 12.3221C165.317 12.2071 165.86 12.0689 166.496 12.1909C167.15 11.7472 167.925 11.4744 168.725 11.3954C167.871 11.4728 166.854 11.5196 167.072 11.3717L166.812 11.6985C166.297 11.7088 165.878 11.6834 165.485 11.6845C165.266 11.8838 166.538 12.0248 165.345 12.1564C163.989 12.2574 164.617 11.8258 164.412 11.9612C162.542 12.0854 163.65 12.3116 161.85 12.1934C162.067 12.1484 162.298 12.1296 162.528 12.1494C161.229 12.0204 159.358 12.1961 158.969 11.8112C159.174 11.6629 159.432 11.5935 159.689 11.6398L159.675 11.7037C161.086 11.4242 158.496 11.7713 158.932 11.4241C159.039 11.6332 157.224 11.5789 156.399 11.5542L156.667 11.7938C153.965 12.5108 156.807 11.3219 154.111 11.4214C152.403 11.589 154.76 11.4923 153.716 11.6541C152.634 11.5187 151.537 11.4731 150.44 11.5046C149.967 11.4132 149.007 11.2815 148.914 11.0214C147.682 10.9845 146.449 11.0377 145.216 11.1681C146.974 11.388 146.952 10.8855 149.007 11.2301L148.436 11.4961C147.014 11.4793 145.198 11.6179 144.223 11.5244C144.426 11.5691 144.507 11.6487 144.384 11.6965C142.879 11.8831 141.348 11.9789 139.817 11.9845C139.549 11.7449 140.7 11.7793 141.539 11.7658C140.443 11.6687 139.347 11.6359 138.249 11.6803C138.143 11.4712 139.576 11.6942 139.795 11.482L137.614 11.5454C137.628 11.533 137.614 11.5197 137.614 11.5068C137.313 11.8581 135.949 11.4827 134.621 11.5846C132.792 11.5942 130.988 11.8491 129.25 12.3375C128.777 12.2461 128.642 12.152 128.833 12.0677C129.617 12.2198 129.469 12.0996 129.741 12.0047C128.671 12.0371 127.401 11.6645 127.998 11.528C126.304 11.6317 128.62 11.7138 127.576 11.8241L125.247 11.7416C125.53 11.9173 126.342 11.9545 125.149 12.099C124.132 12.1458 123.645 12.1183 122.332 12.1048C122.522 12.0204 121.901 11.8345 122.903 11.8388C122.227 11.7413 121.536 11.785 120.884 11.9328C122.332 12.0919 118.512 12.0934 119.607 12.3707L118.159 12.2244C118.484 12.2213 118.526 12.1067 119.013 12.1341C118.596 11.8643 117.834 12.2147 117.333 12.2512C116.683 12.2446 116.033 12.1865 115.384 12.077C114.787 12.1621 114.178 12.1182 113.597 11.9721C112.92 12.029 113.541 12.1506 113.351 12.235L111.022 12.2425C110.888 12.0969 110.688 11.6792 111.041 11.6254C110.173 11.7667 110.739 12.0667 109.425 12.066C110.173 11.7667 107.667 11.859 108.754 11.5055C107.387 11.323 106.006 11.2817 104.637 11.408C103.904 11.6434 105.936 11.537 105.853 11.7661C102.52 11.8723 102.324 12.5227 99.8735 12.4236L100.51 12.4813C99.7508 12.51 99.0049 12.6164 98.2717 12.8004C98.6809 12.5038 96.5052 12.0269 93.9989 12.1063C93.7943 12.2546 95.4182 12.3804 95.0096 12.6127L93.3568 12.6662C93.2351 12.6497 93.4117 12.5906 93.6287 12.5585C92.1379 12.6683 90.8289 12.1916 90.4056 12.5393L88.8658 12.12L89.4735 12.2926C88.7409 12.4251 87.9951 12.5186 87.2499 12.5478C86.1649 12.7083 85.0412 12.6618 83.9601 12.4236C84.2568 12.5483 85.0126 12.8154 83.6713 12.8654C83.676 12.3894 80.8424 12.7035 80.8717 12.4727C80.3299 12.4823 79.3561 12.3502 79.2999 12.5544L79.3841 12.2609C79.2717 12.6694 77.2806 12.687 75.763 12.7703C76.0936 12.2011 74.0965 12.8362 73.3971 12.3392C73.1224 12.7299 70.7001 12.5287 70.4531 12.8559C69.2746 12.885 69.3863 12.5409 69.0896 12.4162L68.5464 12.5672C67.9522 12.395 65.758 12.4066 64.4453 12.3029L63.2365 12.6528L62.7775 12.5104C62.587 12.5948 61.5841 12.6677 62.206 12.7764L61.5561 12.757C61.5118 13.1288 60.6341 12.8709 59.3186 13.0503C59.0077 12.9895 59.0898 12.9019 59.3746 12.859C58.7245 12.8653 58.9973 12.6675 58.6328 12.5537C59.1059 12.645 56.2965 13.243 58.0693 13.3861C58.2033 13.5317 57.1727 13.6553 56.5232 13.5972L56.1201 13.2763L55.3581 13.6396C54.5998 13.6298 53.8418 13.5813 53.098 13.469C53.938 13.4427 54.933 12.8033 52.7792 12.8418C53.5382 12.7873 54.2978 12.6685 55.0442 12.5106C54.5973 12.5101 54.3674 12.4775 55.0595 12.3309C53.3789 12.4608 54.5021 12.5459 52.8356 12.6118C52.9198 12.3184 52.4467 12.227 50.9848 12.1447L52.0799 12.3447C52.0118 12.3813 51.9437 12.4179 51.8759 12.4287C52.2955 12.4541 52.4169 12.4964 52.5106 12.615C52.1855 12.6181 50.5835 13.0077 50.3009 12.832C52.003 13.269 47.3851 13.2337 48.4661 13.4848C47.9774 13.5989 47.4764 13.5839 46.99 13.4664C48.3738 13.2247 45.9232 13.1514 46.142 12.9392C45.6265 13.0267 47.2506 13.1396 46.5451 13.2601C45.895 13.2663 45.2593 13.183 44.6242 13.0353L44.9634 12.9682L43.678 12.8526C43.4733 13.0009 44.9353 13.0703 43.756 13.1766C43.4451 13.1158 42.2523 13.2217 42.294 13.1071C42.8514 12.8922 42.4341 12.6352 43.4371 12.5623C42.597 12.6015 39.9416 12.6893 41.0226 12.9404L40.0203 12.949C40.6558 13.0581 42.4146 13.2394 40.4093 13.3338L40.4234 13.2699L39.0395 13.5245L38.4314 13.3905C38.4577 13.4685 38.2403 13.5392 37.7255 13.5495C37.5909 13.4683 37.0901 13.4404 37.1319 13.3258C35.6281 13.3709 35.7621 13.5165 35.5715 13.6137C34.7314 13.6529 34.4204 13.605 34.8016 13.4105C33.4875 13.4484 32.1739 13.4349 30.8611 13.3441C29.3291 13.5042 31.1857 13.3924 30.2895 13.623C28.94 13.1322 25.1981 13.535 22.705 13.6534C23.4049 14.0861 22.0271 13.7232 21.5896 14.1348C22.1193 13.9833 19.1953 13.8444 21.3776 13.6652L20.036 13.7408C19.1037 13.5199 22.2459 13.511 20.8405 13.1987C19.4431 13.44 18.0331 13.5908 16.6106 13.6383C17.1827 13.308 15.2549 13.7779 15.6783 13.4174C16.1261 13.3279 16.5735 13.2769 17.034 13.2778L16.7231 13.217C13.4323 13.1958 15.7847 13.6136 14.0757 13.8713C12.0705 13.9529 12.4797 13.6563 12.3592 13.5111C11.7233 13.4535 11.1 13.4863 10.4894 13.5967C11.697 13.3755 12.7633 13.742 12.2059 13.9569C11.0295 13.7673 9.82357 13.8213 8.68271 14.1475C11.5643 14.4653 10.6739 14.117 13.379 14.481C13.7458 14.3633 13.6677 14.0393 15.2785 14.1261C14.2745 14.3148 15.358 14.3086 15.6419 14.3557C15.3186 14.1787 16.7536 14.2474 17.242 14.1591C17.7011 14.3015 16.3029 14.62 17.9413 14.6561L18.2301 14.2144C18.8797 14.2596 17.9696 14.5412 19.3387 14.4148C18.6184 14.6635 19.579 14.7695 17.7359 14.8816C19.9539 15.2054 21.0974 14.609 22.8059 14.4028C22.6295 14.4361 22.6155 14.4872 22.4391 14.5205C22.9412 14.4197 23.4564 14.3579 23.9712 14.3476C25.1081 14.4202 23.0887 14.5657 23.3855 14.6775L25.2144 14.6293C25.2549 14.6433 25.2547 14.6562 25.2547 14.6562C25.6078 14.5638 26.0007 14.5498 26.3655 14.638C25.8358 14.7894 25.6176 14.9373 25.2642 15.0683L27.1637 14.7262C26.959 14.8745 28.7596 14.9412 27.4039 15.0808L30.2357 14.9597L30.4901 15.2504C31.168 15.1806 31.182 15.1295 30.3697 15.1052C31.3444 15.1473 34.6419 14.4867 34.162 15.09C36.386 14.7962 37.1843 14.8716 39.8814 14.6692C37.8196 14.9936 42.2757 14.9596 40.0799 15.1384C40.9467 15.1386 41.801 15.0355 42.6425 14.8419C43.6031 14.9479 43.1938 15.2445 42.1632 15.3809L43.3701 15.224L43.3559 15.2879L44.4006 15.1004C45.5233 15.2498 44.6415 15.3907 45.7924 15.4252L46.0252 15.1619L46.8094 15.3012C46.5125 15.1893 47.1904 15.1195 48.0168 15.0928L48.0026 15.1567L49.0189 15.097C48.015 15.2729 49.953 15.1379 49.4905 15.3428C50.3573 15.343 50.3708 15.3434 51.9425 15.2746L51.6599 15.0989C53.6932 14.9152 51.7521 15.359 53.4044 15.3569L53.2981 15.1479C55.6922 15.464 57.3366 14.8955 59.0953 15.0897C58.0925 15.1498 58.3474 15.389 58.3751 15.3255C59.8929 15.2294 62.3576 15.2517 63.9178 14.9766C64.632 15.3454 65.4563 15.5245 66.2559 15.4713C67.4345 15.4422 67.5973 15.4084 67.9783 15.2268C69.0893 15.1829 70.1996 15.2161 71.3089 15.3393C71.5679 15.1669 72.338 15.3573 72.9489 15.2083L73.0836 15.2895L72.9773 15.0804C75.0045 15.5143 76.3662 14.77 78.4074 15.1528L78.0686 15.1813L78.9227 15.091C79.0572 15.1851 78.7181 15.2393 78.6763 15.3539L82.6446 15.344L81.8606 15.1918C82.6338 15.0734 83.4196 15.0454 84.2182 15.0822C82.644 15.4083 85.5319 15.0829 85.8004 15.3226L84.9463 15.4128C86.1113 15.3833 86.1113 15.3833 86.0051 15.1743C87.5092 15.0906 87.0576 15.5661 88.4414 15.3244L87.4527 15.3205C87.156 15.1958 87.862 15.0239 88.5255 15.0309C88.6877 15.0615 89.1609 15.1529 88.646 15.1761C89.8387 15.0831 91.6254 15.188 92.1409 15.1005C92.7904 15.1585 92.5858 15.3068 92.2332 15.3606C94.7677 15.1662 93.384 15.3951 95.9322 15.1882L95.8904 15.3028L96.7586 15.1615L98.0157 15.405L97.5703 15.2501C98.343 15.1831 99.1286 15.168 99.9004 15.1911L99.5058 15.3723C101.863 15.2627 102.239 15.6471 104.476 15.3924C104.625 15.4226 104.286 15.4768 104.109 15.5101C106.184 15.2247 105.691 15.8148 107.766 15.4651C107.644 15.5258 107.873 15.597 107.792 15.646L108.741 15.5329L108.684 15.7499L109.446 15.3995L110.04 15.6361L110.407 15.5184C111.432 15.9608 112.857 15.6174 114.262 15.9426L114.022 15.6523C117.509 14.9974 122.05 15.944 126.278 15.6587L126.208 15.8882L127.958 15.6446C128.904 15.8273 127.4 15.8467 127.697 15.9714C129.567 15.8343 128.473 15.6214 130.64 15.5447C131.763 15.707 130.259 15.7263 129.73 15.8006C131.885 15.6463 134.053 15.5953 136.219 15.673C136.246 15.6481 136.341 15.5995 136.26 15.5842C137.616 15.4832 139.416 15.5757 140.906 15.5688C140.864 15.6833 140.498 15.6981 140.132 15.7129C140.714 15.7689 141.297 15.7606 141.866 15.6876L141.309 15.8897C142.515 15.8099 143.734 15.8335 144.938 15.9725C144.803 15.8784 144.846 15.6995 145.848 15.7166C146.399 16.0806 148.544 15.5657 150.141 15.755C149.95 15.8394 148.785 15.856 149.11 15.8657C149.855 15.9137 150.6 15.846 151.32 15.6745L151.115 15.8228L154.828 15.6122C155.393 15.9765 158.323 15.5495 158.076 15.8123C159.404 15.8263 156.967 15.6504 158.634 15.6102C159.079 15.7651 160.151 15.5398 160.081 15.7822L159.905 15.8027L161.07 15.7861L160.336 16.0086C161.339 15.9614 162.086 15.7393 162.128 15.5604C163.049 15.5751 163.969 15.6541 164.889 15.7974L164.536 15.8512C167.219 15.7642 168.999 16.4995 171.102 16.112C171.264 16.1426 171.237 16.2061 170.912 16.1964L172.577 16.2205L172.183 16.3888L174.921 16.1233L174.893 16.2383C176.707 16.2926 179.538 16.2357 181.868 16.2154L181.515 16.2692C184.063 16.1009 183.979 16.3943 185.836 16.2697C185.781 16.2938 185.713 16.3176 185.646 16.3155L187.325 16.3143L186.958 16.432C187.893 16.3828 188.814 16.4232 189.747 16.5541C190.465 16.4855 191.171 16.3522 191.864 16.167C193.692 16.1574 192.309 16.3219 193.446 16.4202C194.773 16.4342 194.991 16.2349 196.792 16.3402L196.763 16.4552C197.603 16.4417 198.119 16.3542 199.284 16.3504L198.931 16.4042C200.829 16.165 201.311 16.7714 202.792 16.2624C203.59 16.3635 205.108 16.3059 205.038 16.5355C207.409 16.4005 209.251 16.3398 211.609 16.2688C211.998 16.6536 212.11 16.2452 213.543 16.4811L213.437 16.2721C216.769 16.2688 220.596 16.808 224.267 16.7505L224.373 16.9596L225.107 16.737C229.06 16.8682 234.179 16.9699 237.334 17.0128C238.731 16.823 240.153 16.7369 241.575 16.7794L241.399 16.8127C244.257 16.7181 247.264 16.6665 250.378 16.824C250.187 16.9084 250.498 16.9692 250.146 17.023C250.973 16.9062 251.813 16.9184 252.637 17.0461L251.854 16.8811C252.722 16.7526 253.615 16.8051 254.466 17.0493L255.863 16.8337C255.957 16.8494 256.092 16.8921 256.119 16.9186L256.364 16.8101L257.106 17.0897C258.041 17.0533 258.977 16.9398 259.886 16.7354C260.021 16.8295 261.334 16.9074 260.317 16.9542L265.435 17.0944L264.637 16.9934C264.531 16.7843 266.076 16.6761 266.861 16.7768C265.816 16.9385 266.776 17.0702 267.222 17.2251C267.914 17.1171 266.614 17.0396 266.981 16.9219C268.039 16.7863 269.109 16.754 270.165 16.837L269.649 16.9117C270.842 16.8444 271.393 17.2212 272.558 17.2046C273.603 17.0428 274.386 17.2207 274.16 16.8536C275.677 16.7961 274.753 17.103 275.24 17.1433C276.271 17.0069 277.327 17.0642 278.354 17.3008C279.185 16.7852 282.441 17.539 282.757 17.1109L284 17.3797C284.042 17.2651 284.289 17.0023 285.291 16.9679C286.238 17.1121 286.019 17.3114 286.316 17.4361L286.957 17.0049C292.45 17.5553 299.684 17.3343 305.706 17.7976C308.389 17.7363 311.776 17.5931 314.903 17.7124L314.55 17.7662L317.664 17.9366L315.404 17.7017C316.082 17.6576 316.611 17.5834 317.274 17.6032C321.334 17.9435 325.409 18.0654 329.473 17.9811C332.2 17.5222 331.283 18.4599 333.9 18.1264C333.683 18.1714 333.588 18.2458 333.398 18.2916C336.216 18.17 337.733 18.1124 340.553 17.8622C340.236 18.3546 342.381 17.8783 342.135 18.1412L342.367 17.9422C342.988 18.0767 344.464 18.1465 344.259 18.2948L345.508 18.062L345.614 18.271C347.266 18.3205 350.802 18.2204 351.664 18.658C355.743 18.4197 362.187 18.6383 367.305 18.8171C368.43 18.6835 369.555 18.6399 370.692 18.674L371.936 18.9428C373.115 18.7722 374.294 18.7303 375.485 18.7917C375.485 18.8174 375.431 18.8415 375.349 18.8519C376.513 18.9125 377.678 18.8959 378.831 18.7759C380.158 18.8156 381.443 18.9828 381.034 19.2022C381.16 18.7942 383.836 19.3246 383.836 19.3246C383.836 19.3246 400.813 19.987 419.864 20.4155C438.916 20.844 460.041 21.1158 468.323 20.3213C468.799 20.1425 470.168 20.0677 469.683 19.8087C470.076 19.7947 470.482 19.8326 470.86 19.934C470.968 19.9629 471.076 19.979 471.184 19.9951C471.225 19.9964 471.266 19.9976 471.306 19.9859C471.32 19.9863 471.347 19.9743 471.361 19.9747L471.388 19.9626L471.401 19.9502C471.541 19.504 471.668 19.0573 471.808 18.5983C471.682 19.0063 471.556 19.4272 471.443 19.8356C471.401 19.9888 471.415 19.9248 471.415 19.9377L471.388 19.9369L471.361 19.9361L471.307 19.9345L471.199 19.9184C471.145 19.9039 471.09 19.9022 471.036 19.8749C470.956 19.8467 470.915 19.8198 470.888 19.7933C470.848 19.7277 470.93 19.6658 470.999 19.6035C471.149 19.4665 471.326 19.3174 470.597 19.1668L471.572 19.1574C471.803 19.0228 470.216 19.2584 470.517 19.0229L470.175 19.3858C469.674 19.358 469.187 19.2534 468.729 19.0595C467.75 19.442 466.679 19.5515 465.624 19.3912L466.139 19.3809C464.636 19.3488 465.22 19.1089 464.91 19.0353L465.248 19.0454L463.991 18.8148C464.951 18.9722 466.538 18.7237 465.712 18.7119C463.926 18.5426 466.171 18.8157 464.83 18.827C463.991 18.8148 464.236 18.6291 464.265 18.5013L462.762 18.4692C462.818 18.2907 463.75 18.5116 463.143 18.3133L461.245 18.4367C460.898 17.9759 459.185 18.5809 458.337 18.1309C459.692 18.0685 458.216 17.9728 458.434 17.8378L455.103 17.7639C454.793 17.6902 455.985 17.6487 455.47 17.659C455.01 17.6067 454.549 17.6315 454.102 17.721C453.818 17.5967 451.624 17.6598 451.708 17.3663C449.449 17.1057 450.756 17.711 448.646 17.4806C448.377 17.2924 450.312 17.479 449.379 17.2709L447.199 17.27C447.567 17.0622 448.014 16.9856 448.447 17.05C442.546 16.6418 439.374 15.6203 433.969 15.716C433.213 15.4875 434.512 15.5907 435.055 15.4654C431.139 15.6442 429.562 14.8506 426.231 14.7896L426.175 14.968C421.536 14.3016 415.955 14.5078 410.717 14.1452L411.339 14.2796C410.43 14.394 409.508 14.4693 408.587 14.4804C408.453 14.3863 409.214 14.1131 407.697 14.1578C408.007 14.2314 408.657 14.3152 408.466 14.3867C403.962 13.8144 394.456 13.723 387.065 13.3474C377.057 13.2538 366.201 12.7102 356.369 12.6348C357.872 12.6541 357.231 13.0724 356.095 12.9483C353.001 12.148 350.745 12.9684 347.581 12.4105C341.851 12.535 336.739 11.8158 331.412 12.2998L331.306 12.0908C330.683 12.0464 330.073 12.0539 329.463 12.1257L329.477 12.0618C327.501 11.9512 325.116 12.1243 323.979 12.0002L323.909 12.2298C322.731 12.2331 323.302 12.0443 322.095 12.1498L322.124 12.0348L320.727 12.2375C320.866 11.8299 317.423 12.1515 316.477 11.943C314.96 11.9877 312.087 12.1205 309.786 12.0002C308.109 11.7699 306.431 11.6424 304.738 11.6175C301.23 11.6284 296.233 11.6204 291.778 11.4871L291.857 11.7597L290.692 11.7635C290.706 11.6995 290.558 11.6694 290.72 11.6485C289.816 11.3383 288.038 11.7098 287.092 11.5013C287.686 11.7507 287.904 11.5514 288.568 11.5712C289.528 11.7158 288.618 11.9588 287.32 11.8041L287.347 11.7406L286.466 11.8686C286.373 11.66 285.561 11.5456 285.469 11.3369C281.636 11.3381 279.032 11.6591 275.079 11.5022C275.488 11.2699 272.235 11.52 273.024 11.1319C270.653 11.2539 273.414 11.4652 272.341 11.742C271.678 11.7221 270.986 11.8301 270.866 11.6849C271.178 11.5913 270.326 11.4372 270.868 11.4019L269.284 11.4188C269.135 11.3887 269.488 11.3349 269.65 11.314C266.425 11.5135 263.911 10.9879 261.024 11.1975C260.806 11.3453 262.175 11.2576 261.97 11.3931C259.056 11.6533 259.386 11.1098 256.676 11.2861L257.233 11.0969C256.351 11.3021 255.429 11.3518 254.523 11.2217C254.268 10.9824 255.744 11.0395 256.436 10.9315C255.447 10.9148 252.928 10.9423 253.698 11.1713C252.939 11.2 252.181 11.1259 251.425 10.9488C251.41 11.0127 252.533 11.1235 251.842 11.2187C250.218 11.0671 247.726 11.044 245.749 11.0106C245.763 10.9467 245.629 10.8655 245.805 10.8321C244.218 11.1321 244.386 10.5966 242.191 10.6339" fill="#F2304B"/>
<path d="M136.833 12.0381L137.632 12.0827C137.633 12.0201 137.66 11.9427 138.027 11.8776L136.833 12.0381Z" fill="#F2304B"/>
<path d="M174.711 11.5681C174.807 11.5555 174.902 11.5267 174.997 11.4817C174.793 11.5065 174.739 11.5368 174.711 11.5681Z" fill="#F2304B"/>
<path d="M183.9 10.9088C183.248 10.9656 183.831 11.0524 184.156 11.1296C184.17 11.0651 184.158 10.9834 183.9 10.9088Z" fill="#F2304B"/>
<path d="M115.394 13.3574C115.53 13.3295 115.612 13.283 115.599 13.2163C115.409 13.2752 115.367 13.3067 115.394 13.3574Z" fill="#F2304B"/>
<path d="M56.1063 14.9803L56.3498 15.0193C56.2687 15.0012 56.1875 14.9831 56.1063 14.9803Z" fill="#F2304B"/>
<path d="M59.4051 15.3464C59.6355 15.3393 59.8524 15.3318 60.0695 15.294C59.8392 15.286 59.6222 15.3086 59.4051 15.3464Z" fill="#F2304B"/>
<path d="M129.767 12.8949C129.97 12.8866 130.187 12.8632 130.391 12.8081C130.174 12.8003 129.971 12.8242 129.767 12.8949Z" fill="#F2304B"/>
<path d="M60.7478 15.1867L61.5741 15.2002C61.5742 15.1855 61.5879 15.1712 61.5881 15.1416L60.7478 15.1867Z" fill="#F2304B"/>
<path d="M55.0501 14.9801C55.3752 14.9767 55.8086 14.9768 56.0928 14.9999C55.7548 14.9331 55.4028 14.9217 55.0501 14.9801Z" fill="#F2304B"/>
<path d="M93.6351 14.3486L93.7301 14.3361C94.3685 14.2002 93.9612 14.2649 93.6351 14.3486Z" fill="#F2304B"/>
<path d="M64.3586 14.5233L64.4671 14.5273L64.7119 14.4402L64.3586 14.5233Z" fill="#F2304B"/>
<path d="M51.489 14.9945C51.6246 14.9837 51.7603 14.9729 51.8962 14.9306L51.422 14.8976C51.4622 14.9463 51.4757 14.9625 51.489 14.9945Z" fill="#F2304B"/>
<path d="M81.2204 14.2153C80.9882 14.3389 80.906 14.4186 80.892 14.4677C81.1641 14.4615 81.3414 14.402 81.2204 14.2153Z" fill="#F2304B"/>
<g opacity="0.26">
<g opacity="0.26">
<g opacity="0.26">
<g opacity="0.26">
<path opacity="0.26" d="M71.3106 18.3924C71.2693 18.4246 71.2416 18.4741 71.2273 18.5408C71.2962 18.476 71.3103 18.426 71.3106 18.3924Z" fill="#F2304B"/>
<path opacity="0.26" d="M107.791 18.2067L107.37 18.272C107.519 18.277 107.668 18.2503 107.791 18.2067Z" fill="#F2304B"/>
<path opacity="0.26" d="M49.4373 18.8128C49.451 18.7994 49.4781 18.8002 49.4917 18.7867L47.9614 18.7971L49.4373 18.8128Z" fill="#F2304B"/>
<path opacity="0.26" d="M185.627 17.7089L185.139 17.7084C185.302 17.713 185.464 17.7177 185.627 17.7089Z" fill="#F2304B"/>
<path opacity="0.26" d="M139.494 17.7836C139.698 17.7268 139.902 17.6858 140.118 17.6932C139.902 17.654 139.698 17.679 139.494 17.7836Z" fill="#F2304B"/>
<path opacity="0.26" d="M37.8127 16.2721L38.4483 16.455C38.4219 16.3735 38.2058 16.2855 37.8127 16.2721Z" fill="#F2304B"/>
<path opacity="0.26" d="M15.6633 18.1393C15.6767 18.1563 15.7037 18.1737 15.7173 18.1741C15.758 18.1756 15.7174 18.1577 15.6633 18.1393Z" fill="#F2304B"/>
<path opacity="0.26" d="M24.3506 18.5535C24.5406 18.528 24.7578 18.4875 24.975 18.4469C24.7039 18.4537 24.3784 18.4746 24.3506 18.5535Z" fill="#F2304B"/>
<path opacity="0.26" d="M25.2737 18.3815L24.975 18.4353C25.1378 18.4248 25.2734 18.4134 25.2737 18.3815Z" fill="#F2304B"/>
<path opacity="0.26" d="M468.294 17.7358C468.808 17.753 469.324 17.6916 469.826 17.5513L468.294 17.7358Z" fill="#F2304B"/>
<path opacity="0.26" d="M256.084 17.2236L255.947 17.3016C256.083 17.2732 256.111 17.2411 256.084 17.2236Z" fill="#F2304B"/>
<path opacity="0.26" d="M469.089 16.009L469.522 16.069C469.373 16.0335 469.224 16.0134 469.089 16.009Z" fill="#F2304B"/>
<path opacity="0.26" d="M49.5403 15.1941C50.1789 14.9978 51.4912 15.1963 51.4794 15.0096C50.8016 15.0493 49.8407 14.94 49.5403 15.1941Z" fill="#F2304B"/>
<path opacity="0.26" d="M270.973 9.58724L271.393 9.5857C271.19 9.56529 271.068 9.57585 270.973 9.58724Z" fill="#F2304B"/>
<path opacity="0.26" d="M469.089 16.011L468.588 15.9305C468.629 15.9637 468.683 15.9973 468.737 16.0309C468.845 16.0187 468.967 16.0069 469.089 16.011Z" fill="#F2304B"/>
<path opacity="0.26" d="M329.471 17.2941L329.444 17.2932L329.295 17.3198L329.471 17.2941Z" fill="#F2304B"/>
<path opacity="0.26" d="M333.352 17.6378L332.526 17.6872C332.796 17.7112 333.081 17.7052 333.352 17.6378Z" fill="#F2304B"/>
<path opacity="0.26" d="M469.826 17.522L470.722 17.4102C470.424 17.416 470.125 17.4533 469.826 17.522Z" fill="#F2304B"/>
<path opacity="0.26" d="M375.314 17.5933L374.935 17.6112C375.057 17.6151 375.192 17.6194 375.314 17.5933Z" fill="#F2304B"/>
<path opacity="0.26" d="M136.543 17.7305L136.205 17.6878C136.164 17.7336 136.191 17.7659 136.543 17.7305Z" fill="#F2304B"/>
<path opacity="0.26" d="M163.93 12.107C164.458 12.1248 164.974 12.0469 165.477 11.8733C164.949 11.8555 164.433 11.9334 163.93 12.107Z" fill="#F2304B"/>
<path opacity="0.26" d="M168.794 11.9077L168.618 11.887C168.672 11.9038 168.74 11.906 168.794 11.9077Z" fill="#F2304B"/>
<path opacity="0.26" d="M137.635 12.0751L137.635 12.0922C137.649 12.0927 137.649 12.0756 137.649 12.0756L137.635 12.0751Z" fill="#F2304B"/>
<path opacity="0.26" d="M143.812 11.9185C143.947 11.9542 144.095 11.9905 144.244 11.9954C144.096 11.9592 143.947 11.9386 143.812 11.9185Z" fill="#F2304B"/>
<path opacity="0.26" d="M184.159 11.1163C184.146 11.1158 184.146 11.1323 184.159 11.1163L184.186 11.1337L184.159 11.1163Z" fill="#F2304B"/>
<path opacity="0.26" d="M242.282 10.3731C236.445 10.408 228.885 10.7034 223.09 10.5912C221.462 10.8679 219.808 11.0092 218.156 10.9753L217.957 10.5385L216.426 10.6698C215.804 10.5308 217.605 10.5958 216.496 10.4293L215.924 10.6959C215.804 10.5442 211.971 10.5691 214.547 10.2792L208.575 10.2563C207.248 10.2318 207.813 10.6117 206.351 10.5025C206.055 10.3727 206.88 10.4233 206.747 10.2578C202.349 9.91633 201.686 11.0829 197.599 10.858L197.952 10.8008C197.26 10.9157 195.933 10.9046 195.919 10.9581C196.456 11.4045 196.652 10.7231 197.895 10.9877C197.797 11.3621 196.336 11.1856 196.428 11.4711C195.643 11.4217 194.857 11.4531 194.07 11.5652C192.651 11.336 190.604 11.4929 189.524 11.206C188.559 11.4882 187.569 11.6619 186.552 11.7002C185.472 11.4133 186.799 11.4243 185.338 11.3151L185.105 11.5375C183.9 11.5029 184.09 11.441 184.132 11.3479C183.25 11.4709 182.356 11.5261 181.462 11.5005L182.358 11.2971C181.166 11.3842 180.679 11.3433 179.027 11.3229C179.055 11.2025 179.718 11.208 180.219 11.2493C179.315 10.9271 178.687 11.3806 178.2 11.3532C178.334 11.4513 179.485 11.4843 178.928 11.6973C178.102 11.6602 177.178 11.984 176.598 11.7384L177.494 11.535C176.544 11.7233 175.582 11.7901 174.621 11.7221C174.729 11.7118 174.676 11.6563 174.717 11.6036C173.158 11.7476 171.573 11.7561 170.004 11.6034L170.357 11.5461C169.611 11.6191 169.216 11.8098 168.81 11.7982C169.865 11.9227 169.58 11.9819 169.673 12.1866C168.282 11.8235 167.569 12.5979 165.296 12.3846C165.325 12.2642 165.868 12.1181 166.503 12.244C167.158 11.7778 167.933 11.4902 168.733 11.4053C167.879 11.4886 166.863 11.5403 167.081 11.3849L166.82 11.7277C166.305 11.7399 165.886 11.7144 165.493 11.7166C165.274 11.9259 166.546 12.0701 165.352 12.2111C163.997 12.3204 164.625 11.8669 164.42 12.0092C162.55 12.1443 163.658 12.3781 161.858 12.2592C162.075 12.2115 162.305 12.1911 162.535 12.2112C161.237 12.0797 159.366 12.2686 158.977 11.8668C159.182 11.711 159.44 11.6376 159.697 11.6853L159.629 11.6969C161.041 11.4005 158.45 11.7709 158.887 11.4062C158.993 11.6248 157.179 11.5728 156.353 11.5492L156.621 11.7993C153.918 12.5571 156.762 11.3049 154.066 11.4163C152.357 11.5964 154.715 11.4888 153.67 11.6609C152.588 11.5222 151.492 11.4773 150.395 11.5132C149.922 11.4188 148.961 11.2835 148.87 11.0115C147.638 10.9762 146.404 11.0352 145.171 11.175C146.929 11.4005 146.907 10.8744 148.962 11.2297L148.39 11.5097C146.968 11.4959 145.152 11.6459 144.178 11.5507C144.381 11.5969 144.461 11.68 144.339 11.7304C142.833 11.9298 141.302 12.0341 139.771 12.0442C139.503 11.794 140.654 11.8269 141.494 11.8106C140.398 11.7118 139.301 11.6804 138.204 11.7298C138.098 11.5112 139.531 11.7409 139.75 11.5181L137.569 11.5904C137.582 11.5773 137.569 11.5634 137.569 11.55C137.267 11.9185 135.903 11.5292 134.575 11.6394C132.801 11.6424 130.983 11.9137 129.258 12.4301C128.785 12.3357 128.65 12.2375 128.841 12.1487C129.625 12.3059 129.477 12.1804 129.749 12.0804C128.679 12.1171 127.41 11.7305 128.007 11.5859C126.313 11.6991 128.628 11.7789 127.584 11.8971L125.268 11.8847C125.551 12.0679 126.363 12.1047 125.17 12.2591C124.153 12.3108 123.666 12.2834 122.353 12.2727C122.543 12.1838 121.922 11.9909 122.924 11.9927C122.248 11.8925 121.557 11.9401 120.905 12.0965C122.353 12.2592 118.533 12.2711 119.627 12.5584L118.153 12.4084C118.478 12.4042 118.52 12.2842 119.007 12.3116C118.59 12.0302 117.828 12.3991 117.326 12.4386C116.676 12.4334 116.027 12.3744 115.378 12.2615C114.781 12.3522 114.172 12.3078 113.591 12.1565C112.914 12.2179 113.535 12.3435 113.345 12.4323L111.029 12.4333C110.895 12.2813 110.697 11.8445 111.049 11.7873C110.181 11.9375 110.746 12.2501 109.433 12.2529C110.181 11.9375 107.674 12.0409 108.762 11.6679C107.396 11.4806 106.015 11.441 104.646 11.5769C103.912 11.8253 105.944 11.7084 105.861 11.9485C102.514 12.0682 102.317 12.7496 99.8672 12.6525L100.503 12.7111C99.7443 12.7433 98.9983 12.8566 98.2649 13.0512C98.6745 12.7396 96.4993 12.2462 93.9929 12.336C93.7881 12.4918 95.4119 12.6192 95.003 12.8634L93.3501 12.9239C93.2284 12.9069 93.4051 12.8446 93.6222 12.8104C92.1312 12.9294 90.8228 12.4338 90.3991 12.7989L88.8598 12.3641L89.4673 12.5432C88.7345 12.6839 87.9886 12.7837 87.2434 12.8163C86.1581 12.9873 85.0345 12.9416 83.9537 12.6951C84.2503 12.8249 85.0057 13.1025 83.6644 13.1583C83.6697 12.66 80.8356 12.9965 80.8653 12.7548C80.3234 12.7663 79.3498 12.6306 79.2933 12.8445L79.3778 12.5371C79.265 12.965 77.2739 12.9888 75.7561 13.08C76.0875 12.4833 74.0895 13.1535 73.3908 12.6351C73.1156 13.0448 70.6936 12.8407 70.4462 13.1839C69.2676 13.2175 69.3797 12.857 69.0831 12.7272L68.5397 12.8868C67.9457 12.7081 65.7516 12.7261 64.439 12.6211L63.2298 12.9906L62.7709 12.8428C62.5803 12.9316 61.5773 13.0107 62.1991 13.1228L61.5491 13.1176C61.5044 13.507 60.6269 13.2394 59.3112 13.4307C59.0004 13.368 59.0826 13.276 59.3675 13.2303C58.7173 13.2386 58.9904 13.0309 58.626 12.9127C59.099 13.007 56.2889 13.6406 58.0615 13.7856C58.1953 13.9376 57.1646 14.0698 56.5152 14.0108L56.1125 13.6759L55.35 14.0582C54.5917 14.05 53.8338 14.0013 53.0902 13.8857C53.9301 13.8559 54.9259 13.1839 52.7721 13.23C53.5311 13.1709 54.2908 13.0445 55.0375 12.8772C54.5905 12.8779 54.3607 12.8444 55.053 12.6891C53.3722 12.8295 54.4953 12.9156 52.8288 12.9891C52.9133 12.6817 52.4403 12.5873 50.9785 12.505L52.0733 12.7115C52.0052 12.75 51.9371 12.7884 51.8692 12.8C52.2888 12.8255 52.4102 12.8693 52.5037 12.9933C52.1786 12.9974 50.5762 13.4096 50.2937 13.2263C51.9954 13.6792 47.3775 13.6547 48.4581 13.9147C47.9693 14.0354 47.4684 14.0211 46.9821 13.8994C48.3662 13.6426 45.9157 13.5724 46.1347 13.3497C45.6191 13.4427 47.2431 13.5566 46.5375 13.6846C45.8873 13.6929 45.2517 13.6073 44.6168 13.4544L44.9561 13.3833L43.6708 13.2657C43.466 13.4215 44.9279 13.4903 43.7485 13.6047C43.4376 13.5419 42.2446 13.6559 42.2865 13.5359C42.8442 13.3093 42.4272 13.0414 43.4302 12.9624C42.5901 13.0057 39.9346 13.1048 41.0153 13.3647L40.013 13.3764C40.6483 13.4889 42.407 13.674 40.4015 13.7782L40.4158 13.7113L39.045 13.9819L38.4371 13.8432C38.4633 13.9248 38.2458 13.9994 37.7311 14.0116C37.5965 13.9269 37.0957 13.8991 37.1376 13.7791C35.6338 13.8303 35.7676 13.9823 35.577 14.0846C34.7368 14.1279 34.4259 14.0786 34.8072 13.874C33.4931 13.9172 32.1795 13.9065 30.8668 13.815C29.3347 13.9866 31.1913 13.8647 30.2949 14.1084C28.946 13.5983 25.2036 14.03 22.7103 14.1606C23.4098 14.6118 22.0324 14.2355 21.5809 14.6671C22.111 14.4803 19.1737 14.3422 21.3697 14.1492L20.028 14.232C19.1095 14.0036 22.2381 13.9854 20.8331 13.6623C19.4355 13.9186 18.0253 14.0803 16.6027 14.1339C17.1752 13.7865 15.2468 14.2836 15.6706 13.9051C16.1186 13.8102 16.5661 13.7556 17.0265 13.7553L16.7022 13.6922C13.4114 13.6787 15.7768 14.1102 14.0675 14.3846C12.0622 14.4753 12.4718 14.1637 12.3379 14.0117C11.7288 13.9808 11.1055 14.0168 10.4948 14.1341C11.7161 13.8996 12.7685 14.28 12.2108 14.5065C11.0346 14.3112 9.84222 14.3713 8.70096 14.7158C11.5822 15.0409 10.692 14.692 13.3968 15.0524C13.7638 14.9282 13.6861 14.5892 15.2968 14.6758C14.2925 14.876 15.3761 14.8666 15.66 14.9152C15.3504 14.7312 16.7853 14.7992 17.2738 14.7054C17.7327 14.8533 16.3342 15.1904 17.9725 15.2239L18.2618 14.7607C18.8843 14.8055 17.9874 15.1031 19.3432 14.9533C18.6227 15.2156 19.5831 15.3239 17.7535 15.4466C19.971 15.7796 21.1153 15.1523 22.824 14.9318C22.6476 14.9671 22.6335 15.0206 22.4571 15.056C22.9593 14.9491 23.4746 14.8831 23.9894 14.8709C25.1262 14.9438 23.1066 15.1015 23.4033 15.2178L25.2322 15.1624C25.2727 15.177 25.2726 15.1905 25.2726 15.1905C25.6257 15.0929 26.0186 15.0772 26.3833 15.1684C25.8535 15.3284 25.6351 15.4838 25.2815 15.6219L27.1814 15.2587C26.9766 15.4145 28.7772 15.4795 27.4213 15.6293L30.2532 15.4948L30.5073 15.7985C31.1852 15.7236 31.1993 15.6701 30.387 15.6469C31.3617 15.6882 34.66 14.9879 34.1793 15.6208C36.4037 15.3073 37.2019 15.384 39.8993 15.1649C37.8371 15.51 42.2932 15.4625 40.0972 15.6556C40.964 15.6534 41.8184 15.5432 42.6602 15.3383C43.6206 15.4466 43.211 15.7582 42.1802 15.9038L43.3873 15.7363L43.3731 15.8033L44.418 15.6042C45.5404 15.7576 44.6586 15.9075 45.8094 15.9404L46.0425 15.6642L46.8265 15.8079C46.5298 15.6916 47.2077 15.6167 48.0342 15.5865L48.0199 15.6535L49.0363 15.5883C48.0322 15.7751 49.9704 15.6285 49.5076 15.8443C50.3744 15.8422 50.3879 15.8425 51.9597 15.7663L51.6773 15.5831C53.7108 15.3854 51.7692 15.8552 53.4215 15.8486L53.3155 15.63C55.7091 15.9545 57.3542 15.355 59.1127 15.5536C58.1098 15.6192 58.3645 15.8689 58.3923 15.8024C59.9102 15.6977 62.3748 15.7144 63.9354 15.4223C64.6491 15.8065 65.4733 15.9917 66.2729 15.9338C67.4515 15.9002 67.6144 15.8645 67.9956 15.6733C69.1067 15.6243 70.2169 15.6561 71.3261 15.7822C71.5853 15.601 72.3551 15.7982 72.9663 15.6405L73.1008 15.7252L72.9948 15.5066C75.0215 15.9554 76.384 15.1726 78.4249 15.5679L78.072 15.6386L78.9262 15.5418C79.0606 15.64 78.7214 15.6976 78.6795 15.8177L82.6478 15.7966L81.864 15.6394C82.6373 15.5134 83.4231 15.482 84.2218 15.5184C82.6471 15.8639 85.5355 15.5156 85.8037 15.7658L84.9495 15.8625C86.1145 15.8285 86.1145 15.8285 86.0085 15.61C87.5127 15.5183 87.0605 16.0173 88.4446 15.7606L87.456 15.7592C87.1594 15.6295 87.8656 15.4476 88.5291 15.4531C88.6913 15.4847 89.1643 15.5791 88.6494 15.6048C89.8423 15.5042 91.6288 15.6093 92.1444 15.5163C92.7939 15.5753 92.5891 15.7311 92.2364 15.7884C94.7711 15.5781 93.3872 15.8213 95.9356 15.5979L95.8937 15.718L96.7621 15.5677L98.0189 15.8193L97.5737 15.6583C98.3464 15.5862 99.1321 15.5682 99.9038 15.5904L99.509 15.7811C101.867 15.6601 102.242 16.0615 104.479 15.7888C104.628 15.82 104.289 15.8776 104.112 15.913C106.188 15.6087 105.693 16.2277 107.769 15.8561C107.647 15.9199 107.876 15.9938 107.795 16.0454L108.744 15.9244L108.673 16.1783L109.436 15.8095L110.029 16.0555L110.396 15.9313C111.42 16.3917 112.846 16.0284 114.251 16.365L114.011 16.0618C117.499 15.3669 122.039 16.3456 126.267 16.0356L126.197 16.2761L127.947 16.0164C128.893 16.2051 127.389 16.2294 127.686 16.3592C129.556 16.2107 128.462 15.9907 130.63 15.9046C131.752 16.0715 130.248 16.0958 129.719 16.1749C131.874 16.0076 134.042 15.9485 136.208 16.024C136.235 15.9978 136.331 15.9467 136.25 15.9309C137.605 15.8215 139.405 15.9135 140.895 15.9023C140.853 16.0223 140.487 16.0388 140.122 16.0553C140.703 16.1123 141.286 16.1021 141.855 16.0241L141.298 16.2371C142.504 16.1505 143.723 16.1719 144.927 16.3141C144.792 16.216 144.835 16.0286 145.837 16.0438C146.388 16.4234 148.534 15.8786 150.13 16.0725C149.939 16.1613 148.774 16.1819 149.099 16.1912C149.844 16.2394 150.589 16.1665 151.309 15.985L151.104 16.1408L154.817 15.9104C155.382 16.2903 158.312 15.8354 158.065 16.1112C159.393 16.1223 156.957 15.9447 158.623 15.8982C159.068 16.0591 160.141 15.8204 160.07 16.0743L159.894 16.0962L161.059 16.0757L160.325 16.3106C161.328 16.2585 162.075 16.024 162.118 15.8366C163.039 15.8495 163.959 15.9297 164.878 16.0773L164.525 16.1346C167.208 16.0363 168.987 16.8012 171.091 16.39C171.253 16.4216 171.225 16.4881 170.9 16.4788L172.566 16.4996L172.171 16.6769L174.91 16.3916L174.882 16.512C176.696 16.564 179.527 16.4969 181.857 16.4693L181.504 16.5266C184.052 16.3436 183.968 16.651 185.824 16.5156C185.77 16.541 185.702 16.566 185.634 16.5641L187.314 16.5583L186.947 16.6825C187.882 16.6284 188.802 16.6683 189.735 16.8028C190.454 16.7291 191.16 16.5876 191.852 16.3919C193.681 16.3769 192.298 16.5529 193.434 16.6528C194.761 16.6638 194.98 16.4546 196.78 16.56L196.752 16.6804C197.592 16.6641 198.107 16.5711 199.272 16.564L198.919 16.6213C200.818 16.3658 201.299 16.9993 202.781 16.4625C203.579 16.5661 205.096 16.5018 205.026 16.7423C207.398 16.5947 209.24 16.5262 211.597 16.4456C211.986 16.8474 212.099 16.4195 213.532 16.6626L213.426 16.444C216.757 16.4317 220.584 16.9859 224.255 16.9159L224.361 17.1345L225.095 16.8995C229.048 17.0262 234.166 17.119 237.322 17.1554C238.719 16.953 240.142 16.859 241.563 16.8997L241.387 16.9351C244.246 16.8284 247.253 16.7663 250.366 16.9228C250.175 17.0117 250.486 17.0745 250.134 17.1317C250.961 17.0072 251.801 17.0178 252.625 17.1492L251.842 16.9786C252.71 16.8418 253.603 16.8943 254.454 17.1477L255.851 16.9183C255.946 16.9345 256.081 16.9788 256.107 17.0065L256.352 16.8922L257.094 17.1829C258.029 17.1423 258.965 17.021 259.874 16.8045C260.009 16.9027 261.322 16.9807 260.305 17.0324L265.423 17.1655L264.625 17.0618C264.519 16.8433 266.064 16.7259 266.849 16.8292C265.804 17.0013 266.764 17.1366 267.209 17.2975C267.901 17.1826 266.602 17.105 266.969 16.9808C268.027 16.836 269.097 16.7993 270.153 16.8834L269.637 16.9629C270.83 16.8893 271.381 17.2823 272.546 17.2618C273.59 17.0896 274.374 17.2737 274.148 16.89C275.665 16.8257 274.741 17.1495 275.228 17.1904C276.259 17.0448 277.315 17.102 278.341 17.3469C279.173 16.805 282.429 17.5853 282.745 17.1363L283.988 17.4144C284.03 17.2943 284.277 17.0185 285.279 16.9799C286.226 17.1282 286.007 17.3375 286.303 17.4672L286.945 17.0141C292.437 17.5756 299.672 17.3248 305.693 17.7936C308.376 17.7223 311.763 17.5633 314.89 17.6798L314.538 17.7371L317.651 17.9071L315.392 17.6672C316.069 17.6193 316.598 17.5401 317.262 17.5592C321.321 17.9044 325.396 18.0212 329.46 17.922C332.187 17.4343 331.27 18.4184 333.887 18.0623C333.67 18.11 333.574 18.1881 333.384 18.2365C336.203 18.1017 337.72 18.0374 340.54 17.7679C340.223 18.2842 342.368 17.7798 342.121 18.0557L342.354 17.8468C342.975 17.9858 344.451 18.055 344.246 18.2108L345.495 17.9637L345.601 18.1823C347.252 18.2296 350.788 18.1153 351.65 18.5711C355.729 18.3107 362.174 18.5223 367.291 18.6958C368.417 18.5529 369.541 18.5043 370.678 18.5368L371.921 18.8149C373.102 18.6332 374.28 18.5861 375.472 18.6472C375.471 18.6741 375.417 18.6995 375.335 18.7106C376.499 18.7709 377.664 18.7504 378.817 18.6218C380.144 18.6598 381.428 18.8313 381.02 19.0621C381.146 18.6346 383.822 19.1827 383.822 19.1827C383.822 19.1827 400.799 19.7633 419.849 20.1608C438.9 20.5583 460.025 20.7862 468.309 19.9322C468.785 19.7438 470.153 19.6618 469.669 19.3919C470.062 19.3762 470.467 19.4148 470.846 19.5199C470.954 19.55 471.062 19.5665 471.17 19.5831C471.211 19.5843 471.251 19.5854 471.292 19.5731C471.305 19.5735 471.333 19.5608 471.346 19.5612L471.373 19.5485L471.387 19.5354C471.528 19.068 471.654 18.6001 471.795 18.1191C471.668 18.5466 471.542 18.9875 471.429 19.4154C471.387 19.5758 471.401 19.5089 471.401 19.5224L471.374 19.5216L471.347 19.5208L471.293 19.5193L471.184 19.5027C471.13 19.4877 471.076 19.4861 471.022 19.4576C470.941 19.4284 470.901 19.4003 470.874 19.3726C470.834 19.3041 470.916 19.239 470.985 19.1737C471.135 19.0298 471.313 18.8732 470.583 18.7176L471.558 18.7051C471.79 18.5636 470.203 18.8145 470.504 18.5671L470.161 18.948C469.66 18.9202 469.174 18.8119 468.715 18.6102C467.736 19.0132 466.665 19.1307 465.61 18.9658L466.125 18.9536C464.622 18.924 465.207 18.6714 464.896 18.5951L465.235 18.6048L463.978 18.3667C464.938 18.5289 466.525 18.2646 465.699 18.2544C463.913 18.082 466.158 18.3618 464.818 18.3773C463.978 18.3667 464.224 18.1717 464.252 18.0378L462.749 18.0082C462.805 17.8212 463.738 18.05 463.13 17.844L461.233 17.9783C460.886 17.4968 459.173 18.1348 458.324 17.6659C459.679 17.597 458.204 17.5008 458.422 17.3589L455.092 17.2904C454.781 17.2142 455.973 17.1675 455.458 17.1797C454.999 17.1261 454.538 17.1533 454.09 17.2483C453.807 17.1189 451.612 17.1908 451.697 16.8833C449.438 16.6166 450.745 17.2467 448.635 17.0112C448.366 16.8149 450.3 17.005 449.368 16.7897L447.188 16.7946C447.556 16.5761 448.003 16.4946 448.436 16.5609C442.536 16.1494 439.364 15.0886 433.96 15.2033C433.204 14.9661 434.503 15.0706 435.046 14.938C431.13 15.1357 429.554 14.3092 426.223 14.2542L426.167 14.4412C421.529 13.756 415.947 13.9868 410.709 13.6212L411.331 13.7603C410.422 13.8824 409.5 13.9638 408.579 13.9778C408.445 13.8797 409.206 13.5916 407.689 13.6425C408 13.7187 408.649 13.8047 408.459 13.8801C403.955 13.293 394.448 13.2228 387.058 12.8495C377.05 12.7784 366.195 12.2384 356.363 12.1858C357.866 12.2019 357.225 12.6416 356.089 12.5147C352.996 11.6852 350.739 12.5501 347.576 11.9745C341.846 12.1202 336.734 11.3811 331.42 11.9024L331.314 11.6839C330.691 11.6391 330.082 11.6486 329.471 11.7254L329.486 11.6584C327.51 11.548 325.124 11.7356 323.988 11.6087L323.918 11.8492C322.739 11.8559 323.31 11.6567 322.104 11.7703L322.132 11.6499L320.735 11.8658C320.875 11.4387 317.431 11.7847 316.485 11.569C314.968 11.6198 312.095 11.7665 309.794 11.6468C308.117 11.4101 306.44 11.2812 304.747 11.2597C301.239 11.2805 296.242 11.2855 291.787 11.1579L291.866 11.4431L290.701 11.4501C290.715 11.3832 290.566 11.352 290.729 11.3297C289.825 11.0074 288.047 11.401 287.101 11.1853C287.694 11.4448 287.913 11.2356 288.577 11.2546C289.537 11.4033 288.626 11.6601 287.328 11.5017L287.356 11.4351L286.474 11.5715C286.382 11.3533 285.57 11.2358 285.478 11.0176C281.645 11.0291 279.041 11.3721 275.088 11.2185C275.497 10.9742 272.244 11.2448 273.034 10.8363C270.662 10.9704 273.423 11.1842 272.35 11.4768C271.686 11.4578 270.994 11.5727 270.874 11.4211C271.187 11.3223 270.335 11.1632 270.877 11.1248L269.292 11.1468C269.144 11.1156 269.497 11.0583 269.659 11.036C266.434 11.2535 263.921 10.71 261.033 10.9371C260.815 11.0925 262.184 10.997 261.979 11.1394C259.065 11.4196 259.396 10.8498 256.685 11.0416L257.242 10.842C256.36 11.0592 255.438 11.1137 254.532 10.9799C254.278 10.7302 255.753 10.7859 256.445 10.671C255.457 10.6562 252.937 10.6918 253.707 10.9294C252.948 10.9615 252.19 10.8859 251.434 10.7026C251.42 10.7695 252.543 10.8825 251.851 10.984C250.227 10.8297 247.736 10.8122 245.759 10.7825C245.773 10.7156 245.638 10.6309 245.815 10.5955C244.227 10.9138 244.395 10.3528 242.201 10.3977" fill="#F2304B"/>
<path opacity="0.26" d="M136.837 12.0443L137.636 12.0871C137.637 12.0236 137.664 11.9451 138.031 11.8781L136.837 12.0443Z" fill="#F2304B"/>
<path opacity="0.26" d="M174.702 11.5721C174.797 11.5591 174.892 11.5297 174.988 11.4841C174.798 11.5101 174.729 11.5404 174.702 11.5721Z" fill="#F2304B"/>
<path opacity="0.26" d="M183.905 10.8944C183.253 10.9537 183.836 11.0394 184.16 11.1161C184.174 11.0675 184.162 10.9852 183.905 10.8944Z" fill="#F2304B"/>
<path opacity="0.26" d="M115.399 13.3446C115.535 13.3161 115.617 13.2692 115.604 13.2023C115.413 13.2786 115.372 13.3104 115.399 13.3446Z" fill="#F2304B"/>
<path opacity="0.26" d="M56.1103 14.9838L56.3538 15.0228C56.2592 15.0042 56.1916 14.9864 56.1103 14.9838Z" fill="#F2304B"/>
<path opacity="0.26" d="M59.3957 15.3511C59.626 15.3432 59.8429 15.3349 60.06 15.2957C59.8433 15.2886 59.6263 15.3124 59.3957 15.3511Z" fill="#F2304B"/>
<path opacity="0.26" d="M129.771 12.8999C129.974 12.8909 130.191 12.8665 130.395 12.8099C130.178 12.8027 129.975 12.8275 129.771 12.8999Z" fill="#F2304B"/>
<path opacity="0.26" d="M60.7521 15.1751L61.5783 15.1865C61.5784 15.1714 61.5921 15.1567 61.5924 15.1264L60.7521 15.1751Z" fill="#F2304B"/>
<path opacity="0.26" d="M55.0544 14.9693C55.3794 14.9649 55.8128 14.9638 56.097 14.9864C55.7589 14.934 55.4069 14.9235 55.0544 14.9693Z" fill="#F2304B"/>
<path opacity="0.26" d="M93.6394 14.3363L93.7344 14.3235C94.3726 14.2007 93.9654 14.251 93.6394 14.3363Z" fill="#F2304B"/>
<path opacity="0.26" d="M64.3491 14.5274L64.4576 14.5312L64.7024 14.4425L64.3491 14.5274Z" fill="#F2304B"/>
<path opacity="0.26" d="M51.4797 14.9818C51.6154 14.9704 51.751 14.9591 51.8869 14.9158L51.4128 14.8839C51.4666 14.9335 51.4799 14.9659 51.4797 14.9818Z" fill="#F2304B"/>
<path opacity="0.26" d="M81.2109 14.2175C80.9788 14.3423 80.8966 14.4225 80.8826 14.4719C81.168 14.4653 81.3452 14.405 81.2109 14.2175Z" fill="#F2304B"/>
</g>
</g>
</g>
</g>
</svg>
