<svg width="44" height="45" viewBox="0 0 44 45" fill="none" xmlns="http://www.w3.org/2000/svg">
<circle cx="22" cy="22.103" r="22" fill="white"/>
<path d="M33 16.2338C32.1905 16.5952 31.3206 16.8395 30.4076 16.9493C31.3396 16.387 32.0552 15.4964 32.3922 14.4353C31.5062 14.9647 30.5369 15.3376 29.5261 15.538C28.7027 14.6549 27.5297 14.103 26.2315 14.103C23.7388 14.103 21.7178 16.1376 21.7178 18.647C21.7178 19.0032 21.7577 19.35 21.8347 19.6827C18.0835 19.4931 14.7577 17.6841 12.5315 14.9348C12.1431 15.606 11.9205 16.3866 11.9205 17.2193C11.9205 18.7958 12.7174 20.1866 13.9284 21.0016C13.2116 20.979 12.5107 20.7841 11.884 20.4331C11.8837 20.4522 11.8837 20.4712 11.8837 20.4903C11.8837 22.692 13.4395 24.5286 15.5042 24.9461C14.8396 25.128 14.1424 25.1547 13.466 25.0239C14.0403 26.8292 15.7072 28.143 17.6822 28.1797C16.1375 29.3984 14.1913 30.1249 12.0767 30.1249C11.7123 30.1249 11.3531 30.1034 11 30.0614C12.9974 31.3507 15.3699 32.103 17.9188 32.103C26.221 32.103 30.7608 25.1788 30.7608 19.174C30.7608 18.9769 30.7565 18.781 30.7478 18.5861C31.6314 17.943 32.3941 17.1464 33 16.2338Z" fill="#003383"/>
</svg>
